<svg width="200" height="200" viewBox="0 0 200 200" fill="none" xmlns="http://www.w3.org/2000/svg">
<rect width="200" height="200" rx="40" fill="white"/>
<rect x="0.5" y="0.5" width="199" height="199" rx="39.5" stroke="#EEEEEE" stroke-opacity="0.933333"/>
<path d="M81.0921 82.9608C83.5578 82.9608 85.5567 81.1787 85.5567 78.9804C85.5567 76.7821 83.5578 75 81.0921 75C78.6263 75 76.6274 76.7821 76.6274 78.9804C76.6274 81.1787 78.6263 82.9608 81.0921 82.9608Z" fill="#5B9EDD"/>
<path d="M61.5537 79.3474V113.762H69.8666V77.4287H63.487C62.9765 77.4277 62.4864 77.6291 62.1241 77.9887C61.7617 78.3483 61.5566 78.8369 61.5537 79.3474Z" fill="#3D3A39"/>
<path d="M76.9355 89.0359V113.773H85.2448V87.1025H78.8689C78.615 87.1025 78.3636 87.1525 78.129 87.2497C77.8945 87.3469 77.6813 87.4893 77.5018 87.6688C77.3223 87.8483 77.1799 88.0614 77.0827 88.296C76.9856 88.5306 76.9355 88.782 76.9355 89.0359Z" fill="#3D3A39"/>
<path d="M107.759 86.4824C104.929 86.5157 102.211 87.5966 100.132 89.5163V87.1024H93.7522C93.2394 87.1024 92.7477 87.3061 92.3851 87.6687C92.0225 88.0312 91.8188 88.523 91.8188 89.0357V124.441H100.132V112.702C101.658 113.818 103.513 114.393 105.403 114.334C113.155 114.334 119.109 107.635 119.109 99.2013C119.109 90.7673 112.972 86.4824 107.759 86.4824ZM105.029 111.476C103.327 111.476 101.518 109.866 100.132 108.252V93.9443C101.427 92.6603 103.624 90.815 105.528 90.815C108.379 90.815 111.031 94.722 111.031 100.43C111.031 106.139 108.441 111.476 105.029 111.476Z" fill="#3D3A39"/>
<path d="M134.925 86.4824C127.587 86.4824 125.188 88.0342 125.188 88.0342L126.058 89.8942C126.058 89.8942 128.787 88.8853 133.252 88.8853C138.212 88.8853 138.71 91.5524 138.71 94.8394V96.3728C136.875 95.8475 134.974 95.582 133.065 95.5841C129.282 95.5841 122.583 97.0735 122.583 104.825C122.583 112.577 128.538 114.316 132.445 114.316C134.734 114.316 137.118 113.127 138.71 112.14V113.758H147.02V94.854C147.02 89.2742 142.243 86.4824 134.925 86.4824ZM134.429 110.794C130.955 110.794 128.787 108.747 128.787 104.965C128.787 101.182 132.632 98.8234 135.669 98.8234C137.199 98.8234 138.145 99.3113 138.71 99.7956V109.062C137.539 110.138 136.019 110.753 134.429 110.794Z" fill="#3D3A39"/>
<path d="M180 86.4822H174.424L166.94 103.523L166.735 103.123L158.205 86.4785H149.69L162.699 111.865L163.011 112.474L161.657 115.574C159.555 119.741 153.539 119.462 153.539 119.462V122.951C155.026 123.071 156.52 123.071 158.007 122.951C159.794 122.746 163.77 121.557 165.711 117.448L169.684 108.846L180 86.4822Z" fill="#3D3A39"/>
<path d="M41.0135 77.4287H37.4843L34.6192 83.3828L20 113.766H25.6202L28.511 107.749H45.922L48.7138 113.766H57.8851L42.0443 79.6482L41.0135 77.4287ZM44.7407 105.214H29.7363L37.3743 89.3368L44.7407 105.214Z" fill="#3D3A39"/>
</svg>
