<svg width="200" height="200" viewBox="0 0 200 200" fill="none" xmlns="http://www.w3.org/2000/svg">
<rect width="200" height="200" rx="40" fill="#8F1B7C"/>
<path d="M30 58.1512C30 57.8 30.0976 57.5268 30.2733 57.3122C30.4489 57.0976 30.7417 57 31.0931 57H47.1185C48.2701 57 49.3632 57.1561 50.3782 57.4683C51.3932 57.7805 52.3302 58.2293 53.189 58.7756C54.0479 59.3415 54.8091 60.0049 55.4923 60.7854C56.1755 61.5659 56.7611 62.4049 57.2295 63.3025C57.698 64.2001 58.0689 65.1562 58.3226 66.1513C58.5764 67.1465 58.6935 68.1611 58.6935 69.1758C58.6935 70.6782 58.4202 72.1417 57.8737 73.5856C57.3271 75.0295 56.5659 76.2978 55.5509 77.4295C54.5554 78.5417 53.3452 79.4588 51.9398 80.1418C50.5344 80.8442 48.9728 81.1954 47.2746 81.2149H39.6816V93.1566C39.6816 93.8785 39.2912 94.2297 38.53 94.2297H31.1126C30.7808 94.2297 30.5075 94.1517 30.3123 93.9761C30.1171 93.8005 30.0195 93.5273 30.0195 93.1566V58.1512H30ZM48.8947 69.1172C48.8947 68.6099 48.8167 68.1221 48.641 67.6148C48.4653 67.1074 48.2116 66.6587 47.8797 66.2684C47.5479 65.8782 47.138 65.5465 46.6695 65.3123C46.2011 65.0586 45.6545 64.9416 45.0494 64.9416H39.7402V73.3124H45.0494C45.6545 73.3124 46.2011 73.1953 46.6891 72.9417C47.177 72.7075 47.587 72.3953 47.8993 72.0051C48.2311 71.6148 48.4848 71.1855 48.6605 70.6782C48.8362 70.1709 48.9143 69.6636 48.9143 69.1172H48.8947Z" fill="white"/>
<path d="M69.9071 57.9756C69.9071 57.8781 69.9852 57.761 70.0632 57.6439C70.1608 57.5268 70.2584 57.4098 70.3951 57.3122C70.5317 57.2146 70.6683 57.1366 70.8245 57.078C70.9807 57.0195 71.1173 57 71.2539 57H77.6758C77.9686 57 78.2028 57.078 78.398 57.2537C78.5932 57.4293 78.7494 57.5854 78.847 57.722L79.4716 59.1464L92.6472 93.098C92.7838 93.4297 92.7643 93.7029 92.5691 93.9175C92.3934 94.1322 92.0616 94.2297 91.6126 94.2297H84.41C84.0196 94.2297 83.7268 94.1517 83.5121 94.0151C83.2974 93.8785 83.1412 93.6444 83.0241 93.2931C82.6923 92.4346 82.3605 91.5956 82.0481 90.7565C81.7358 89.9175 81.404 89.0589 81.0917 88.2199H67.7795C67.4672 89.0785 67.1353 89.9175 66.823 90.7565C66.4912 91.5956 66.1789 92.4541 65.8666 93.2931C65.6519 93.9175 65.2224 94.2297 64.5783 94.2297H57.1805C56.8682 94.2297 56.5949 94.1517 56.3802 93.9761C56.1655 93.8005 56.1264 93.5663 56.2631 93.2151L69.9071 57.9756ZM74.4746 68.7075C74.1623 69.566 73.8305 70.4831 73.5182 71.4587C73.1863 72.4539 72.874 73.449 72.5617 74.4441C72.2494 75.4393 71.9176 76.4344 71.6053 77.41C71.2734 78.3856 70.9611 79.3027 70.6488 80.1613H78.359L74.5137 68.7075H74.4746Z" fill="white"/>
<path d="M104.161 70.7368L110.212 57.7805C110.309 57.5854 110.387 57.4293 110.465 57.3512C110.524 57.2537 110.602 57.1951 110.661 57.1561C110.719 57.1171 110.797 57.0976 110.875 57.078C110.953 57.078 111.032 57.0585 111.129 57.0195H120.791C120.908 57.0195 121.006 57.0585 121.084 57.1366C121.162 57.2146 121.201 57.2927 121.201 57.4098C121.201 57.5854 121.084 57.8 120.85 58.0342L108.962 79.0686V93.0785C108.962 93.859 108.572 94.2493 107.811 94.2493H100.296C99.9641 94.2493 99.7103 94.1517 99.5151 93.9371C99.3199 93.7224 99.2418 93.4492 99.2418 93.0785V79.01L87.3741 58.0146C87.1594 57.8 87.0422 57.5854 87.0422 57.3902C87.0422 57.2927 87.0813 57.1951 87.1398 57.1171C87.1984 57.039 87.296 57 87.4131 57H97.0752C97.1923 57.039 97.2899 57.0585 97.3485 57.0585C97.407 57.0585 97.4851 57.0976 97.5437 57.1366C97.6022 57.1756 97.6803 57.2537 97.7389 57.3317C97.7974 57.4293 97.895 57.5659 98.0121 57.761L104.122 70.7173L104.161 70.7368Z" fill="white"/>
<path d="M30 100.192C30 99.8996 30.0976 99.6264 30.2733 99.4118C30.4489 99.1972 30.7417 99.0801 31.0931 99.0801H39.2912C39.5254 99.0801 39.7597 99.1386 40.0134 99.2557C40.2672 99.3728 40.4819 99.5679 40.6576 99.8606C42.7852 103.295 44.8933 106.67 46.9819 109.988C49.0704 113.324 51.1785 116.7 53.3256 120.114V100.036C53.3842 99.7435 53.5208 99.5094 53.7356 99.3337C53.9307 99.1581 54.165 99.0801 54.4382 99.0801H61.5823C61.9337 99.0801 62.2265 99.1776 62.4607 99.3728C62.6949 99.5679 62.8121 99.8411 62.8121 100.192V135.354C62.8121 135.685 62.7145 135.939 62.5193 136.095C62.3241 136.251 62.0508 136.329 61.6995 136.329H53.6965C53.4818 136.329 53.2866 136.251 53.1109 136.095C52.9353 135.939 52.7596 135.744 52.5839 135.49C50.3587 131.822 48.153 128.173 45.9864 124.583C43.8197 120.993 41.614 117.344 39.3693 113.675V135.217C39.3693 135.588 39.2912 135.861 39.1155 136.037C38.9399 136.212 38.6471 136.31 38.2177 136.31H31.0931C30.7027 136.31 30.4294 136.212 30.2538 135.998C30.0781 135.783 30 135.529 30 135.237V100.192Z" fill="white"/>
<path d="M130.805 136.719C130.629 136.426 130.473 136.133 130.337 135.84C130.18 135.548 130.044 135.236 129.927 134.943C127.76 129.265 125.613 123.626 123.485 118.045C121.338 112.465 119.191 106.825 117.044 101.147C117.044 101.069 117.044 100.991 117.005 100.913C116.985 100.855 116.966 100.777 116.966 100.718C116.966 100.25 117.278 100.016 117.903 100.016H125.984C126.628 100.016 127.057 100.328 127.292 100.972L134.963 123.821L142.068 100.972C142.302 100.328 142.77 100.016 143.454 100.016H151.613C152.003 100.016 152.276 100.094 152.433 100.23C152.589 100.367 152.667 100.562 152.667 100.796C152.667 100.933 152.667 101.03 152.647 101.069V101.147L148.177 113.928L151.535 123.782L159.655 100.972C159.889 100.328 160.357 100.016 161.041 100.016H168.946C169.336 100.016 169.61 100.094 169.766 100.23C169.922 100.367 170 100.562 170 100.796C170 100.933 170 101.03 169.98 101.069V101.147C168.848 104.094 167.677 107.021 166.486 109.947C165.296 112.874 164.105 115.801 162.914 118.728C161.724 121.655 160.533 124.582 159.362 127.509C158.191 130.436 157.039 133.362 155.907 136.289C155.848 136.465 155.692 136.68 155.458 136.894C155.224 137.128 154.931 137.226 154.599 137.226H148.451C148.08 137.226 147.806 137.148 147.611 137.011C147.416 136.875 147.279 136.68 147.201 136.445L143.239 126.006C142.673 127.528 142.107 129.011 141.56 130.475C141.014 131.938 140.448 133.421 139.901 134.943C139.823 135.177 139.725 135.431 139.608 135.684C139.491 135.938 139.374 136.192 139.218 136.406C139.062 136.64 138.906 136.816 138.71 136.972C138.515 137.128 138.3 137.206 138.047 137.206H131.898C131.371 137.206 131.02 137.031 130.844 136.68L130.805 136.719Z" fill="white"/>
<path d="M112.367 100.776C111.264 99.3449 109.996 98.0545 108.635 96.8814C108.353 96.6233 107.977 96.506 107.602 96.506C107.085 96.506 106.616 96.7641 106.311 97.163L91.828 117.035L84.5749 108.167C84.2932 107.815 83.8707 107.603 83.4247 107.603C82.9553 107.603 82.5328 107.838 82.2276 108.237L79.1527 112.46C78.6597 113.14 78.6832 114.126 79.2231 114.759L91.0065 129.165C91.2882 129.517 91.7107 129.728 92.1567 129.728C92.6261 129.728 93.0486 129.493 93.3538 129.094L108.494 108.307C112.578 116.261 110.466 126.115 103.306 131.699C99.9732 134.303 95.9828 135.664 91.7576 135.664C85.9129 135.664 80.4906 133.012 76.8993 128.414C73.8243 124.449 72.4629 119.522 73.0732 114.548C73.6835 109.551 76.2185 105.116 80.162 102.02C83.4952 99.4153 87.4856 98.0545 91.7107 98.0545C94.2927 98.0545 96.7808 98.5707 99.1281 99.5561C99.8793 99.8845 100.865 99.603 101.335 98.946L103.776 95.591C104.057 95.2156 104.151 94.7464 104.034 94.3006C103.917 93.8783 103.635 93.5029 103.212 93.3152C99.6211 91.5556 95.748 90.6641 91.6872 90.6641C85.819 90.6641 80.2559 92.5879 75.6082 96.201C64.2239 105.07 62.1817 121.563 71.0545 132.942C76.0542 139.347 83.5891 143.031 91.7342 143.031C97.6024 143.031 103.165 141.13 107.813 137.494C113.329 133.2 116.827 127.006 117.695 120.062C118.564 113.117 116.662 106.266 112.367 100.753V100.776Z" fill="white"/>
</svg>
