<svg width="200" height="200" viewBox="0 0 200 200" fill="none" xmlns="http://www.w3.org/2000/svg">
<g clip-path="url(#clip0_111_11)">
<rect width="200" height="200" rx="40" fill="#28C445"/>
<path d="M92.2305 115.561C92.2305 130.993 107.446 143.511 126.115 143.511C130.648 143.511 135.072 142.755 138.957 141.46C140.036 142 147.806 148.691 149.533 147.503C150.72 146.532 146.727 139.302 146.403 138.007C154.605 132.935 160 124.734 160 115.561C160 100.129 144.784 87.6113 126.115 87.6113C107.446 87.6113 92.2305 100.129 92.2305 115.561ZM133.238 105.741C133.238 103.043 135.396 100.885 138.094 100.885C140.792 100.885 142.95 103.043 142.95 105.741C142.95 108.439 140.792 110.597 138.094 110.597C135.396 110.597 133.238 108.439 133.238 105.741ZM109.389 105.741C109.389 103.043 111.547 100.885 114.245 100.885C116.943 100.885 119.101 103.043 119.101 105.741C119.101 108.439 116.943 110.597 114.245 110.597C111.547 110.597 109.389 108.439 109.389 105.741Z" fill="white"/>
<path d="M89.2086 115.345C89.2086 98.5108 105.827 84.9137 126.223 84.9137C127.302 84.9137 128.381 84.9137 129.353 85.0216C127.086 66.4605 107.986 52 84.7842 52C60.0719 52 40 68.5108 40 88.9065C40 100.993 47.1223 111.784 58.0216 118.475C57.5899 120.094 52.4101 129.698 53.9209 130.993C56.187 132.504 66.4388 123.655 67.8417 123.007C73.0216 124.734 78.741 125.705 84.7842 125.705C86.9424 125.705 89.1007 125.597 91.259 125.273C89.964 122.252 89.2086 118.907 89.2086 115.345ZM100.432 69.2662C103.993 69.2662 106.906 72.1799 106.906 75.741C107.014 79.3022 104.101 82.2159 100.432 82.2159C96.8705 82.2159 93.9568 79.3022 93.9568 75.741C93.9568 72.1799 96.8705 69.2662 100.432 69.2662ZM69.0288 82.2159C65.4676 82.2159 62.554 79.3022 62.554 75.741C62.554 72.1799 65.4676 69.2662 69.0288 69.2662C72.5899 69.2662 75.5036 72.1799 75.5036 75.741C75.5036 79.3022 72.5899 82.2159 69.0288 82.2159Z" fill="white"/>
</g>
<defs>
<clipPath id="clip0_111_11">
<rect width="200" height="200" rx="40" fill="white"/>
</clipPath>
</defs>
</svg>
