<svg id="Original" xmlns="http://www.w3.org/2000/svg" viewBox="0 0 490 182"><defs><style>.cls-1{fill:none;}.cls-2{fill:#1f3a6a;}.cls-3{fill:#5dc4e9;}</style></defs><rect class="cls-1" width="490" height="182" rx="4.673"/><path class="cls-2" d="M211.6528,71.831h-8.1686v46.4477h8.1686Zm-26.5435,23.53a18.7265,18.7265,0,0,1-2.6848,9.9711c-2.7783,4.38-6.9473,6.47-10.59,6.47a12.8792,12.8792,0,0,1-8.5214-3.4045c-3.273-3.2418-4.2279-8.4419-4.2279-13.4067.0588-7.0095,2.0793-10.9536,5.3938-13.9879a10.5281,10.5281,0,0,1,7.276-2.9685,12.7567,12.7567,0,0,1,7.7049,2.8543c5.9163,4.9441,5.65,14.0226,5.65,14.4723m4.1656,35.92c3.46-4.57,3.7331-9.3138,3.9822-19.0462l-.1038-40.4034h-7.7776v7.1756a19.228,19.228,0,0,0-3.75-4.3766,16.51,16.51,0,0,0-11.1059-3.7089,18.8626,18.8626,0,0,0-15.6071,8.3c-3.64,5.0133-4.605,11.03-4.605,16.14a32.1364,32.1364,0,0,0,1.377,9.7947,21.7112,21.7112,0,0,0,6.5044,10.2271,17.408,17.408,0,0,0,12.3307,3.8612,19.3525,19.3525,0,0,0,11.1059-4.0307,17.1817,17.1817,0,0,0,3.1277-3.5013l-.0657,6.3729a22.019,22.019,0,0,1-1.0795,6.1861,10.0423,10.0423,0,0,1-2.0828,3.5221c-2.2315,2.581-5.0859,3.9234-10.5627,4.1172a37.2338,37.2338,0,0,1-11.8187-1.9721,27.337,27.337,0,0,1-4.5877-2.2351l-.8649,8.089c1.3078.5259,2.27.8823,3.6639,1.36a44.8479,44.8479,0,0,0,13.0815,1.9617c6.4214,0,10.5039-1.4669,13.2787-2.9719a16.6038,16.6038,0,0,0,5.56-4.861m13.6627-70.5h8.9435V51.612h-8.9435Zm39.0507,17.9459a15.7157,15.7157,0,0,1,5.6291,1.1106V71.6788c-.4118,0-2.9167-.3875-5-.3875a13.5389,13.5389,0,0,0-10.94,4.7641,31.8992,31.8992,0,0,0-2.27,3.5186l-.4187-7.743h-7.8122c.2491,5.8228.46,9.8812.46,15.6175,0,6.7293-.1281,11.4761-.1281,18.14v12.6836h8.435V95.5375c.2526-4.4043.5086-10.2341,5.0237-14.1955a10.2,10.2,0,0,1,7.02-2.6156m42.6973,15.88c0,5.0755-1.5777,12.5106-7.8122,16.0292a13.3883,13.3883,0,0,1-12.0643.3667,16.2624,16.2624,0,0,1-2.2766-1.4669,15.0042,15.0042,0,0,1-4.4112-6.1031,21.3789,21.3789,0,0,1-1.5431-8.9816c.1488-6.4387,2.83-11.016,5.6291-13.3686a13.8161,13.8161,0,0,1,9.1235-3.3214c7.1894.0865,10.3759,5.0236,11.9536,8.7982a24,24,0,0,1,1.4012,8.0475m1.8164,18.5549c5.37-5.4112,6.9127-12.77,6.8331-18.7106-.2526-11.41-6.2277-18.2192-11.8844-21.1981a22.684,22.684,0,0,0-10.12-2.2247c-10.4175,0-17.1087,5.3973-20.3125,10.9468a27.7182,27.7182,0,0,0-3.2314,13.2164c-.0865,9.3241,3.2314,14.8148,7.2067,18.6794a22.99,22.99,0,0,0,2.9582,2.1624c2.6017,1.7057,6.3348,3.1242,12.4794,3.1242a23.0934,23.0934,0,0,0,9.8155-1.813,20.5175,20.5175,0,0,0,6.2553-4.1828"/><path class="cls-2" d="M300.536,81.7049c.2491,8.9781.2491,15.3615.2491,24.3845,0,11.2549-.1869,22.5164-.2491,33.7573h8.2932V111.9954a24.4019,24.4019,0,0,0,2.6225,2.9547,17.0013,17.0013,0,0,0,11.4449,4.2139,19.8534,19.8534,0,0,0,14.6661-6.366c6.9369-7.449,6.3626-17.5238,6.3626-19.0287a30.417,30.417,0,0,0-1.8613-10.1822c-2.2316-5.7467-7.5147-12.8358-18.4651-12.8358-1.18,0-7.5666,0-12.3963,4.7848a17.2683,17.2683,0,0,0-2.8717,3.3871l-.36-7.0924h-7.8157C300.37,75.5361,300.4046,78.0342,300.536,81.7049Zm8.1479,12.95a22.9326,22.9326,0,0,1,.9548-6.4734c2.1694-6.5633,7.0822-10.1474,12.5625-10.1474,4.4216,0,8.84,2.4183,11.2963,7.6494a20.1218,20.1218,0,0,1,1.7127,9.5076,21.593,21.593,0,0,1-1.2075,7.1617c-3.0239,8.6288-9.8813,9.473-12.1543,9.473-5.2763,0-10.12-3.5429-12.21-9.9607A23.9772,23.9772,0,0,1,308.6839,94.655Z"/><path class="cls-2" d="M429.4966,71.8262l-10.358,25.139-4.6837,12.1753-.3223.6563c-1.1771-3.4852-2.799-7.8337-4.28-11.9658l-9.6019-26.0048h-8.913l18.6556,46.4384-9.09,21.5821H409.22l29.0754-68.02Z"/><path class="cls-2" d="M385.2365,77.8469c-2.4217-4.0544-8.6677-6.9094-15.9606-6.9094-8.8538,0-13.3381,3.1742-14.5654,3.9243v7.3c1.8676-1.11,7.23-4.4007,13.002-4.4007,5.6356,0,10.0614,3.2418,11.2236,6.2759a19.2218,19.2218,0,0,1,.8379,6.1272c-2.1488-.1065-4.44-.1943-6.6711-.1943-4.58,0-11.0168.1943-15.6008,2.4394-3.56,1.7062-8.4348,5.0038-8.4348,12.4453a14.115,14.115,0,0,0,4.6879,10.783c2.6049,2.2079,6.1,3.0661,9.6495,3.2807,5.2969.1554,9.8435-1.463,12.1409-3.0865a32.0745,32.0745,0,0,0,4.92-4.9328v7.3722h7.0961V88.2886C387.5619,83.648,386.4824,79.722,385.2365,77.8469ZM379.9776,97.35a21.054,21.054,0,0,1-.7053,6.2758,12.09,12.09,0,0,1-2.08,3.9683c-2.6953,3.6675-7.19,4.9193-10.515,4.9193-3.82,0-8.9019-1.9883-8.9019-7.4415,0-5.4143,6.3187-8.271,9.8222-8.8544a36.0682,36.0682,0,0,1,6.1384-.3795c2.0795,0,4.1625.0625,6.2412.2382Z"/><polygon class="cls-2" points="101.261 72.329 95.962 72.329 95.962 73.747 100.133 73.747 110.653 116.535 56.832 116.535 67.352 73.747 71.523 73.747 71.523 72.329 66.222 72.329 54.57 118.28 112.915 118.28 101.261 72.329"/><path class="cls-3" d="M93.9762,53.0223H73.5086a2.0819,2.0819,0,0,0-2.0793,2.0794V75.1762h1.54V55.1017a.5472.5472,0,0,1,.54-.54h3.8148v14.48H73.3143l5.7444,6.1346h9.3666L94.17,69.0417H90.1606v-14.48h3.8156a.5465.5465,0,0,1,.539.54V75.1762h1.54V55.1017A2.0813,2.0813,0,0,0,93.9762,53.0223Z"/><path class="cls-2" d="M79.23,100.2254h9.0239a1.02,1.02,0,0,0,1.0273-1.0892l-.3455-5.9126a1.1742,1.1742,0,0,0-1.1547-1.0892H79.7031a1.1743,1.1743,0,0,0-1.1547,1.0892l-.3455,5.9126A1.02,1.02,0,0,0,79.23,100.2254Z"/><path class="cls-2" d="M75.3719,92.1344h-8.151a1.3922,1.3922,0,0,0-1.3062,1.07l-1.1975,5.9518a.86.86,0,0,0,.8758,1.07H74.68a1.2133,1.2133,0,0,0,1.1841-1.087l.5063-5.917A.9869.9869,0,0,0,75.3719,92.1344Z"/><path class="cls-2" d="M79.594,90.2677H87.89a.8158.8158,0,0,0,.822-.8713l-.2765-4.73a.9393.9393,0,0,0-.9237-.8713h-7.54a.9394.9394,0,0,0-.9237.8713l-.2764,4.73A.8155.8155,0,0,0,79.594,90.2677Z"/><path class="cls-2" d="M76.3038,83.795H68.6805a1.1136,1.1136,0,0,0-1.045.8556l-.958,4.7615a.6881.6881,0,0,0,.7007.8556H75.75a.9706.9706,0,0,0,.9472-.87l.4051-4.7335A.7894.7894,0,0,0,76.3038,83.795Z"/><path class="cls-2" d="M100.0844,90.2677a.6872.6872,0,0,0,.7-.8554L99.8217,84.65a1.1151,1.1151,0,0,0-1.0459-.8554H91.1807a.7894.7894,0,0,0-.7984.87l.405,4.7335a.9706.9706,0,0,0,.9472.87Z"/><path class="cls-2" d="M79.9559,82.2083h7.5727a.7137.7137,0,0,0,.7191-.7624l-.2134-3.652a.822.822,0,0,0-.8083-.7624H80.2585a.8219.8219,0,0,0-.8083.7624l-.2134,3.652A.7137.7137,0,0,0,79.9559,82.2083Z"/><path class="cls-2" d="M98.5641,82.2083a.6014.6014,0,0,0,.6124-.7485l-.7438-3.68a.9757.9757,0,0,0-.9152-.7485H90.4927a.6908.6908,0,0,0-.6986.7609l.3128,3.655a.8493.8493,0,0,0,.8288.7609Z"/><path class="cls-2" d="M76.9918,77.0315H69.9323a.9745.9745,0,0,0-.9144.7487l-.74,3.6794a.6022.6022,0,0,0,.6131.7487h7.658a.8492.8492,0,0,0,.8288-.7609l.3128-3.655A.6907.6907,0,0,0,76.9918,77.0315Z"/><path class="cls-2" d="M101.8794,100.2254a.8591.8591,0,0,0,.8748-1.0694l-1.2033-5.9521a1.3938,1.3938,0,0,0-1.3073-1.07H92.1125a.9868.9868,0,0,0-.998,1.087l.5063,5.917a1.2134,1.2134,0,0,0,1.1841,1.087Z"/><path class="cls-2" d="M88.1643,102.4213H79.32a1.409,1.409,0,0,0-1.3855,1.307l-.4384,7.5a1.2236,1.2236,0,0,0,1.2329,1.307H88.7554a1.2236,1.2236,0,0,0,1.2329-1.307l-.4384-7.5A1.4091,1.4091,0,0,0,88.1643,102.4213Z"/><path class="cls-2" d="M74.2734,102.4213h-8.904a1.6706,1.6706,0,0,0-1.5675,1.2835l-1.5184,7.5469a1.0322,1.0322,0,0,0,1.051,1.2835H73.4079a1.456,1.456,0,0,0,1.4209-1.3045l.6422-7.5049A1.1842,1.1842,0,0,0,74.2734,102.4213Z"/><path class="cls-2" d="M103.6739,103.7046a1.6725,1.6725,0,0,0-1.5687-1.2833H93.2111a1.1844,1.1844,0,0,0-1.1977,1.3045l.6422,7.5049a1.456,1.456,0,0,0,1.4209,1.3045H104.15a1.031,1.031,0,0,0,1.05-1.2833Z"/></svg>