<svg width="24" height="24" viewBox="0 0 24 24" fill="none" xmlns="http://www.w3.org/2000/svg">
<g clip-path="url(#clip0_293_6344)">
<path d="M11.8518 24C11.8094 23.9577 11.7671 23.8942 11.7248 23.8519C9.35442 21.4815 7.00521 19.1323 4.63484 16.7619C4.50786 16.6349 4.52902 16.5714 4.63484 16.4656C5.05812 16.0423 5.46024 15.619 5.90469 15.2169C6.32797 14.8148 6.75125 14.4127 7.15336 13.9894C7.25918 13.8836 7.30151 13.9683 7.365 14.0317C8.46553 15.1323 9.56606 16.2328 10.6878 17.3333C11.0475 17.6931 11.4073 18.0529 11.7671 18.4127C11.8729 18.5185 11.9364 18.4974 12.0211 18.4127C13.4814 16.9524 14.9417 15.4921 16.3809 14.0317C16.5079 13.9048 16.5925 13.8836 16.7195 14.0317C17.5237 14.8571 18.328 15.6614 19.1534 16.4656C19.2803 16.5926 19.2803 16.6561 19.1534 16.7831C16.783 19.1323 14.4338 21.5026 12.0846 23.8519C12.0423 23.8942 11.9999 23.9365 11.9576 24H11.8518Z" fill="#8D8D8D"/>
<path d="M11.9576 0C11.9999 0.042328 12.0422 0.10582 12.0845 0.148148C14.4338 2.49735 16.783 4.84656 19.1322 7.19577C19.2592 7.32275 19.2803 7.40741 19.1322 7.53439C18.3068 8.33862 17.5025 9.16402 16.6771 9.98942C16.5713 10.0952 16.5078 10.0952 16.402 9.98942C14.9629 8.5291 13.5025 7.08995 12.0422 5.62963C11.9293 5.51675 11.8165 5.51675 11.7036 5.62963C10.2644 7.06878 8.80412 8.50794 7.36497 9.96825C7.23799 10.0952 7.19566 10.0741 7.06867 9.96825C6.22211 9.10053 5.35439 8.25397 4.44434 7.34392C4.50783 7.30159 4.57132 7.28042 4.61365 7.2381C7.00518 4.86772 9.35439 2.51852 11.7036 0.148148C11.7459 0.10582 11.7883 0.042328 11.8306 0C11.8729 0 11.9152 0 11.9364 0H11.9576Z" fill="#8D8D8D"/>
<path d="M0 11.8518C0.10582 11.746 0.21164 11.6402 0.31746 11.5556C1.07937 10.7936 1.84127 10.0317 2.60317 9.26984C3.49206 10.1587 4.35979 11.0476 5.24868 11.9153C5.31217 11.9788 5.31217 12.0212 5.24868 12.0847C4.35979 12.9735 3.49206 13.8413 2.60317 14.7302C1.77778 13.9048 0.973545 13.1005 0.148148 12.2751C0.10582 12.2328 0.042328 12.1905 0 12.1481C0 12.0423 0 11.9577 0 11.8518Z" fill="#8D8D8D"/>
<path d="M11.8942 14.7725C11.8307 14.7725 11.8095 14.709 11.7672 14.6878C10.9206 13.8413 10.0529 12.9735 9.18517 12.127C9.10052 12.0423 9.07935 12 9.18517 11.8942C9.7566 11.3228 10.328 10.7513 10.8995 10.1799C11.1746 9.90476 11.4709 9.62963 11.746 9.33334C11.8307 9.22752 11.8942 9.24868 11.9788 9.33334C12.8254 10.2011 13.6931 11.0476 14.5397 11.8942C14.6243 11.9788 14.6243 12.0212 14.5397 12.1058C13.6719 12.9524 12.8254 13.8201 11.9577 14.6878C11.9365 14.709 11.8942 14.7513 11.873 14.7725H11.8942Z" fill="#8D8D8D"/>
<path d="M23.9154 11.9788C23.9154 12.0423 23.8731 12.0635 23.8307 12.0847C22.9842 12.9524 22.1165 13.7989 21.2699 14.6667C21.2064 14.7302 21.1641 14.7513 21.1006 14.6667C20.2329 13.7989 19.3863 12.9312 18.5186 12.0847C18.4551 12.0212 18.4551 11.9788 18.5186 11.9153C19.3863 11.0476 20.254 10.2011 21.1006 9.33333C21.1852 9.24868 21.2064 9.26984 21.2699 9.33333C22.1165 10.2011 22.9842 11.0476 23.8307 11.9153C23.8519 11.9365 23.8731 11.9788 23.8942 12L23.9154 11.9788Z" fill="#8D8D8D"/>
</g>
<defs>
<clipPath id="clip0_293_6344">
<rect width="24" height="24" fill="white"/>
</clipPath>
</defs>
</svg>
