<svg width="24" height="24" viewBox="0 0 24 24" fill="none" xmlns="http://www.w3.org/2000/svg">
<path d="M5.24854 12.1905C5.46018 11.8518 5.65065 11.5132 5.86229 11.1534C6.0316 10.8571 6.20092 10.5608 6.39139 10.2645C6.66652 9.8201 6.94166 9.35449 7.21679 8.91005C7.55541 8.35978 7.87287 7.80952 8.2115 7.25926C8.50779 6.77248 8.80409 6.28571 9.10039 5.79894C9.43901 5.24867 9.75647 4.69841 10.0951 4.14814C10.3702 3.68254 10.6454 3.21693 10.9417 2.77248C11.2803 2.22222 11.5977 1.69312 11.9152 1.14285C11.9364 1.10053 11.9575 1.03703 12.021 1.01587C12.0633 1.12169 12.0634 1.22751 12.0634 1.33333C12.0634 3.06878 12.0634 4.78306 12.0634 6.51851C12.0634 8.25396 12.0634 8.10582 12.0634 8.91005C12.0634 8.97354 12.0634 9.0582 12.0634 9.12169C12.021 9.18518 11.9575 9.22751 11.894 9.24867C11.5131 9.41799 11.111 9.60846 10.73 9.77777C10.3279 9.96825 9.90462 10.1587 9.5025 10.328C8.95224 10.582 8.40197 10.836 7.83055 11.0899C7.36494 11.3016 6.87816 11.5132 6.41256 11.7249C6.0951 11.873 5.77764 12.0212 5.46018 12.1693C5.39668 12.1905 5.33319 12.2328 5.2697 12.1905H5.24854Z" fill="#8D8D8D"/>
<path d="M11.9999 9.14285C11.9999 9.10053 11.9999 9.07936 11.9999 9.03703C11.9999 6.39153 11.9999 3.76719 11.9999 1.12169C11.9999 1.07936 11.9999 1.0582 11.9999 1.01587C12.1269 1.20635 12.2539 1.41799 12.3809 1.60846C12.6983 2.1164 12.9946 2.62433 13.2909 3.13227C13.5661 3.59788 13.8412 4.06349 14.1163 4.5291C14.3915 4.97354 14.6666 5.41799 14.9206 5.86243C15.2592 6.43386 15.5978 7.00529 15.9364 7.55555C16.2327 8.06349 16.5502 8.57142 16.8465 9.0582C17.1216 9.52381 17.3967 9.98941 17.693 10.455C17.9893 10.963 18.3068 11.4709 18.6031 11.9788C18.6454 12.0423 18.6878 12.127 18.7301 12.1905C18.6666 12.2328 18.6031 12.1905 18.5396 12.1693C18.3068 12.0635 18.0528 11.9577 17.82 11.8518C17.2486 11.5979 16.6772 11.3439 16.1269 11.0688C15.6613 10.8571 15.1745 10.6455 14.7089 10.4339C14.1587 10.1799 13.6084 9.92592 13.0581 9.67195C12.7407 9.52381 12.4232 9.37566 12.1057 9.24867C12.0634 9.24867 12.0211 9.20635 11.9788 9.16402C11.9788 9.16402 11.9788 9.16402 11.9788 9.14285H11.9999Z" fill="#8D8D8D"/>
<path d="M5.24854 12.1905C5.566 12.0423 5.86229 11.9153 6.17975 11.7672C6.81467 11.4921 7.42843 11.1958 8.06335 10.9206C8.61361 10.6667 9.14271 10.4339 9.69298 10.1799C10.3914 9.86243 11.0898 9.54497 11.8094 9.22751C11.8729 9.20634 11.9575 9.16402 12.021 9.12169C12.0633 9.16402 12.0634 9.20635 12.0634 9.24867C12.0634 9.291 12.0634 9.33333 12.0634 9.37566C12.0634 11.5556 12.0634 13.7566 12.0634 15.9365C12.0634 16.0212 12.0633 16.1058 12.021 16.1905C11.8094 16.1058 11.6401 15.9788 11.4496 15.8518C11.0475 15.619 10.6454 15.3862 10.2644 15.1534C9.96811 14.9841 9.69298 14.8148 9.39668 14.6455C9.07922 14.455 8.7406 14.2645 8.42314 14.0741C8.02102 13.8413 7.59774 13.5873 7.19563 13.3545C6.83584 13.1429 6.47605 12.9312 6.13742 12.7196C5.86229 12.5503 5.566 12.4021 5.29086 12.2116L5.24854 12.1905Z" fill="#8D8D8D"/>
<path d="M12 16.1905C12 13.9048 12 11.5979 12 9.31216C12 9.24867 12 9.20634 12 9.14285C12.254 9.24867 12.5079 9.37566 12.7831 9.48148C13.418 9.75661 14.0529 10.0529 14.6667 10.3492C15.2169 10.6032 15.746 10.836 16.2963 11.0899C16.8466 11.3439 17.3968 11.5979 17.9683 11.8518C18.2011 11.9577 18.455 12.0635 18.6878 12.1693C18.709 12.1693 18.7302 12.1693 18.7725 12.1905C18.6032 12.3175 18.4127 12.4233 18.2434 12.5291C17.5661 12.9312 16.8889 13.3122 16.2328 13.7143C15.6825 14.0529 15.1323 14.3704 14.5608 14.709C14.0741 15.0053 13.5661 15.3016 13.0582 15.5767C12.7407 15.7672 12.4233 15.9577 12.1058 16.1481C12.0847 16.1481 12.0423 16.1693 12 16.1905Z" fill="#8D8D8D"/>
<path d="M11.9999 22.9841C11.8518 22.836 11.746 22.6455 11.619 22.4762C11.2592 22.0106 10.9417 21.5238 10.582 21.037C10.328 20.6984 10.0952 20.3386 9.84122 20C9.52376 19.5556 9.22746 19.1323 8.91 18.6878C8.65603 18.3492 8.42323 17.9894 8.16926 17.6508C7.83064 17.164 7.49201 16.6984 7.13222 16.2116C6.85709 15.8307 6.58196 15.4286 6.30683 15.0476C6.0317 14.6667 5.75656 14.2857 5.48143 13.8836C5.39677 13.7566 5.29095 13.6296 5.2063 13.4603C5.39678 13.545 5.54492 13.6508 5.69307 13.7354C6.05286 13.9471 6.41265 14.1587 6.77244 14.3704C7.0264 14.5185 7.28037 14.6878 7.55551 14.836C7.87297 15.0264 8.21159 15.2169 8.52905 15.4074C8.78302 15.5556 9.03699 15.7037 9.29096 15.8518C9.62958 16.0423 9.94704 16.2328 10.2857 16.4444C10.5396 16.5926 10.7936 16.7407 11.0476 16.8889C11.3439 17.0582 11.619 17.2275 11.9153 17.3968C11.9153 17.3968 11.9576 17.418 11.9788 17.4391C12.0211 17.4391 12.0211 17.5026 12.0211 17.5238C12.0211 17.5661 12.0211 17.6296 12.0211 17.672C12.0211 19.3439 12.0211 21.0159 12.0211 22.6667C12.0211 22.7725 12.0211 22.8571 11.9788 22.963L11.9999 22.9841Z" fill="#8D8D8D"/>
<path d="M11.9999 22.9841C11.9999 21.1429 11.9999 19.3016 11.9999 17.4391C12.3809 17.2063 12.7618 16.9735 13.1639 16.7619C13.6507 16.4656 14.1587 16.1693 14.6454 15.873C15.0687 15.619 15.492 15.3862 15.8941 15.1323C16.3174 14.8783 16.7407 14.6243 17.1851 14.3704C17.6296 14.1164 18.0528 13.8624 18.4973 13.6085C18.5819 13.5661 18.6666 13.5026 18.7512 13.4815C18.6878 13.5661 18.6454 13.6508 18.5819 13.7354C18.3491 14.0741 18.0952 14.3915 17.8624 14.7302C17.5449 15.1746 17.2486 15.5979 16.9311 16.0423C16.656 16.4233 16.402 16.8042 16.1269 17.1852C15.8094 17.6296 15.492 18.0741 15.1745 18.5185C14.7724 19.0899 14.3703 19.6614 13.947 20.2328C13.5661 20.7619 13.1851 21.3122 12.8042 21.8413C12.5502 22.1799 12.3174 22.5397 12.0634 22.8783C12.0423 22.9206 11.9999 22.9418 11.9788 22.963L11.9999 22.9841Z" fill="#8D8D8D"/>
</svg>
