<svg width="24" height="24" viewBox="0 0 24 24" fill="none" xmlns="http://www.w3.org/2000/svg">
<g clip-path="url(#clip0_228_6490)">
<path d="M23.0813 7.23C21.9563 6.19125 20.4 4.605 19.1325 3.48L19.0575 3.4275C18.9328 3.32729 18.7921 3.2487 18.6413 3.195C15.585 2.625 1.3613 -0.033752 1.0838 -1.95994e-06C1.00604 0.0108881 0.931718 0.03908 0.866299 0.082498L0.795049 0.138748C0.707315 0.227848 0.64068 0.33549 0.600049 0.453748L0.581299 0.502498V0.768748V0.809998C2.18255 5.26875 8.50505 19.875 9.75005 23.3025C9.82505 23.535 9.96755 23.9775 10.2338 24H10.2938C10.4363 24 11.0438 23.1975 11.0438 23.1975C11.0438 23.1975 21.9038 10.0275 23.0025 8.625C23.1448 8.45224 23.2703 8.26641 23.3775 8.07C23.4049 7.91632 23.392 7.75817 23.3401 7.61097C23.2882 7.46376 23.199 7.33251 23.0813 7.23ZM13.83 8.76375L18.465 4.92L21.1838 7.425L13.83 8.76375ZM12.0301 8.5125L4.05005 1.9725L16.9613 4.35375L12.0301 8.5125ZM12.75 10.2262L20.9175 8.91L11.58 20.16L12.75 10.2262ZM2.9663 2.625L11.3625 9.75L10.1475 20.1675L2.9663 2.625Z" fill="#FF060A"/>
</g>
<defs>
<clipPath id="clip0_228_6490">
<rect width="24" height="24" fill="white"/>
</clipPath>
</defs>
</svg>
