<svg width="186" height="41" viewBox="0 0 186 41" fill="none" xmlns="http://www.w3.org/2000/svg">
<rect width="186" height="41" fill="#FF0000"/>
<path fill-rule="evenodd" clip-rule="evenodd" d="M129.157 29.5192H133.506V11.1041H129.157V29.5192ZM104.636 25.0762C105.085 24.5259 105.419 23.8795 105.636 23.132C105.853 22.3861 105.96 21.5074 105.96 20.4986C105.96 19.4161 105.836 18.4967 105.586 17.7378C105.338 16.979 105.012 16.3658 104.611 15.8971C104.203 15.4134 103.731 15.0612 103.196 14.8437C102.662 14.6261 102.106 14.5164 101.529 14.5164C100.942 14.5164 100.391 14.6222 99.873 14.8308C99.3556 15.0415 98.8793 15.3879 98.4465 15.8731C98.0439 16.3254 97.7178 16.949 97.4636 17.7441C97.2105 18.5392 97.0848 19.4608 97.0848 20.5103C97.0848 21.5844 97.2067 22.4976 97.4522 23.2534C97.6969 24.009 98.02 24.6239 98.4215 25.101C98.8232 25.5761 99.2927 25.9273 99.8294 26.1545C100.368 26.3795 100.933 26.4931 101.529 26.4931C102.123 26.4931 102.69 26.3778 103.227 26.1485C103.764 25.9171 104.234 25.5611 104.636 25.0762ZM110.766 20.5107C110.766 23.3844 109.946 25.6678 108.308 27.3596C106.671 29.0505 104.406 29.8959 101.516 29.8959C98.634 29.8959 96.3748 29.0505 94.7365 27.3596C93.0988 25.6678 92.28 23.3844 92.28 20.5107C92.28 17.6129 93.0988 15.3211 94.7365 13.6383C96.3748 11.9556 98.634 11.1143 101.516 11.1143C104.391 11.1143 106.65 11.9556 108.298 13.6383C109.942 15.3211 110.766 17.6129 110.766 20.5107ZM30.622 20.438V20.4413V29.3773H25.2113V28.6608V20.444V20.4413C25.2113 18.4963 23.6463 16.9235 21.7162 16.9235C19.7807 16.9235 18.218 18.4963 18.218 20.4413C18.218 22.3812 19.7807 23.9546 21.7162 23.9546C22.7608 23.9546 23.691 23.4946 24.3336 22.7684V28.9844C23.5062 29.2359 22.6255 29.3773 21.7141 29.3773C16.7913 29.3773 12.7981 25.3713 12.7981 20.438C12.7981 15.4909 16.7913 11.4867 21.7141 11.4867C26.6273 11.4867 30.622 15.4909 30.622 20.438ZM28.6825 13.5819C30.2213 12.2707 32.2116 11.4867 34.3894 11.4867C39.306 11.4867 43.2816 15.4957 43.2816 20.4338C43.2816 25.3752 39.306 29.3773 34.3894 29.3773C33.982 29.3773 33.5782 29.3459 33.1889 29.2958V23.7386C33.5585 23.8791 33.9629 23.9501 34.3832 23.9501C36.3133 23.9501 37.8762 22.3812 37.8762 20.4413C37.8762 18.4939 36.3133 16.9193 34.3832 16.9193C33.0369 16.9193 31.8656 17.6874 31.2823 18.808C30.9813 16.7619 30.0407 14.9383 28.6825 13.5819ZM59.9822 22.5692L57.7763 16.1093L55.5705 22.5692H59.9822ZM67.1195 29.5191H62.3449L61.0946 25.8748H54.4595L53.2086 29.5191H48.549L55.1727 11.4892H60.4952L67.1195 29.5191ZM81.4332 29.5191V19.8806C81.9309 19.5899 82.3533 19.3813 82.6981 19.2569C83.0435 19.1313 83.3955 19.069 83.7579 19.069C84.2956 19.069 84.7129 19.1367 85.01 19.2695C85.3075 19.4014 85.5241 19.6154 85.6615 19.9046C85.8049 20.195 85.8916 20.5708 85.9194 21.0305C85.9483 21.4906 85.9629 22.0567 85.9629 22.7265V29.5191H90.3095V20.6673C90.3095 19.013 89.9292 17.745 89.1719 16.8651C88.4152 15.9854 87.3079 15.5452 85.8469 15.5452C85.0616 15.5452 84.2604 15.7559 83.4429 16.1755C82.6248 16.5944 81.7834 17.171 80.9173 17.9074C80.5322 17.1315 79.9987 16.5435 79.3183 16.1449C78.6361 15.7457 77.8504 15.5452 76.9599 15.5452C76.134 15.5452 75.3805 15.7112 74.7004 16.0415C74.0179 16.3724 73.3026 16.8324 72.5575 17.421V15.9213H68.2108V29.5191H72.5575V19.8806C72.8796 19.6879 73.2409 19.5027 73.6411 19.3291C74.0438 19.1559 74.4566 19.069 74.8819 19.069C75.4115 19.069 75.8246 19.1367 76.1164 19.2695C76.4094 19.4014 76.6296 19.6154 76.7733 19.9046C76.9175 20.195 77.0061 20.5717 77.0382 21.0371C77.0692 21.5004 77.0865 22.0654 77.0865 22.7265V29.5191H81.4332ZM122.056 29.5196H126.405V20.6678C126.405 18.9658 125.994 17.6858 125.17 16.8296C124.349 15.9746 123.209 15.546 121.748 15.546C120.883 15.546 120.096 15.7069 119.387 16.03C118.678 16.3531 117.936 16.8167 117.169 17.4218V15.9218H112.82V29.5196H117.169V19.8811C117.641 19.5979 118.08 19.3923 118.486 19.2646C118.891 19.134 119.291 19.0695 119.684 19.0695C120.239 19.0695 120.67 19.1382 120.979 19.276C121.287 19.4121 121.522 19.6312 121.683 19.9303C121.82 20.1886 121.916 20.5896 121.973 21.1341C122.029 21.6799 122.056 22.2271 122.056 22.775V29.5196ZM140.702 29.5198H136.355V15.922H140.702V29.5198ZM140.823 14.4113H136.234V11.1041H140.823V14.4113ZM157.136 29.5196H152.788V22.775C152.788 22.2271 152.759 21.6799 152.703 21.1341C152.647 20.5896 152.55 20.1886 152.415 19.9303C152.255 19.6312 152.019 19.4121 151.71 19.276C151.402 19.1382 150.969 19.0695 150.415 19.0695C150.022 19.0695 149.622 19.134 149.216 19.2646C148.811 19.3923 148.373 19.5979 147.898 19.8811V29.5196H143.55V15.9218H147.898V17.4218C148.669 16.8167 149.407 16.3531 150.117 16.03C150.828 15.7069 151.615 15.546 152.481 15.546C153.94 15.546 155.081 15.9746 155.902 16.8296C156.724 17.6858 157.136 18.9658 157.136 20.6678V29.5196ZM168.221 18.9118C168.647 19.3716 168.871 20.06 168.895 20.9701H163.272C163.336 20.0105 163.636 19.3128 164.175 18.8756C164.713 18.4401 165.399 18.2225 166.233 18.2225C167.133 18.2225 167.796 18.4521 168.221 18.9118ZM163.283 23.5267H173.206V22.0007C173.206 19.901 172.653 18.2923 171.546 17.1753C170.438 16.0562 168.783 15.4985 166.584 15.4985C164.2 15.4985 162.322 16.1536 160.954 17.4663C159.584 18.7769 158.899 20.5559 158.899 22.7988C158.899 25.0678 159.623 26.8153 161.067 28.0425C162.512 29.2704 164.591 29.8836 167.306 29.8836C168.357 29.8836 169.317 29.7961 170.186 29.6168C171.051 29.4394 171.975 29.1529 172.954 28.7564V25.2578H172.472C171.975 25.6378 171.297 25.9926 170.438 26.3241C169.578 26.6547 168.691 26.8201 167.776 26.8201C166.331 26.8201 165.236 26.5375 164.494 25.9726C163.752 25.4073 163.349 24.5916 163.283 23.5267Z" fill="#FFFF00"/>
</svg>
