<?xml version="1.0" encoding="utf-8"?>
<!-- Generator: Adobe Illustrator 19.2.1, SVG Export Plug-In . SVG Version: 6.00 Build 0)  -->
<svg version="1.1" id="layer" xmlns="http://www.w3.org/2000/svg" xmlns:xlink="http://www.w3.org/1999/xlink" x="0px" y="0px"
	 viewBox="0 0 652 652" style="enable-background:new 0 0 652 652;" xml:space="preserve">
<style type="text/css">
	.st0{fill:#EE3124;}
</style>
<g>
	<path class="st0" d="M167.3,332.3c-4.1-8-11.2-13-21.1-15c-0.8-0.2-1.6-0.2-2.4-0.3l-1.1-0.1c-0.7-0.1-1.6-0.2-3.1-0.2h-0.8
		l-16.1,0l0-16c0-2.1-0.1-3.2-0.2-4l-0.1-1.1c-0.1-0.8-0.2-1.7-0.3-2.4c-2-9.9-7-17.1-15-21.1c-6.1-3.1-11.7-3.2-11.8-3.2l-0.9,0
		c-1.6,0-2.7,0.1-4.1,0.3c-26.2,3.5-25.9,28.7-25.8,29.7v46.6c0,9.4,2.6,16.8,7.6,22c5.2,5,12.6,7.5,21.9,7.5h46.9
		c2.6,0,26.1-0.7,29.5-25.8c0.2-1.6,0.3-2.9,0.3-5C170.6,344.1,170.5,338.5,167.3,332.3"/>
	<path class="st0" d="M183.5,371.4c-8.2,15.3-24.9,20.8-29.8,22.1c-2.9,0.8-5.4,1.1-10.1,1.4h-0.1H87.4c0,0-3.8,0-7.7-1
		c-2.7-0.7-6.1-1.8-8.9-3c-3.3-1.5-7.1-3.6-12.3-8.8l-0.8-0.8c-4.1-4.2-8.1-10.1-10.1-15.1c-1.1-2.8-1.5-4.2-2.1-6.9
		c-0.9-3.7-0.9-7.7-0.9-8l0-55.4c0.3-4.8,0.7-7.4,1.4-10.2c1.3-4.9,6.7-21.6,22.1-29.8c8.7-4.9,17.6-7.4,26.5-7.4
		c13.7,0,22.7,6,23,6.3c24.2,14.6,24.9,38.7,24.9,42.1c3.5-0.1,27.5,0.6,42.2,25.1C184.8,322,199.3,343.3,183.5,371.4 M180.9,227.3
		H48.9c-15.6,0-28.3,12.7-28.3,28.3v131.9c0,15.6,12.7,28.3,28.3,28.3h131.9c15.6,0,28.3-12.7,28.3-28.3V255.7
		C209.2,240,196.5,227.3,180.9,227.3"/>
</g>
<polygon class="st0" points="598.3,273.2 592.2,273.2 592.2,289.1 588.5,289.1 588.5,273.2 582.4,273.2 582.4,269.9 598.3,269.9 "/>
<polygon class="st0" points="616.9,289.1 616.9,276.4 611.9,285.8 609.9,285.8 605,276.4 605,289.1 601.3,289.1 601.3,269.9 
	605.3,269.9 610.9,280.8 616.6,269.9 620.6,269.9 620.6,289.1 "/>
<g>
	<path class="st0" d="M268.4,317.3c-3.8,0-7.3,0.8-10.7,2.5c-3.4,1.7-6.3,3.9-8.8,6.7c-2.5,2.8-4.5,6.2-6,10
		c-1.5,3.8-2.2,8-2.2,12.3c0,4.5,0.7,8.7,2.1,12.4c1.4,3.8,3.4,7.1,5.8,9.8c2.5,2.8,5.4,5,8.8,6.5c3.3,1.6,7,2.4,10.9,2.4
		c3.9,0,7.5-0.8,10.9-2.4c3.3-1.6,6.3-3.8,8.8-6.6c2.5-2.8,4.4-6.2,5.8-9.9c1.4-3.8,2.1-8,2.1-12.4c0-4.4-0.7-8.5-2.1-12.3
		c-1.4-3.8-3.4-7.2-5.8-10c-2.5-2.8-5.4-5.1-8.8-6.6C275.9,318.1,272.2,317.3,268.4,317.3 M268.4,397.8c-7.5,0-14.3-1.3-20.2-4
		c-6-2.6-11.1-6.3-15.3-10.7c-4.2-4.5-7.5-9.7-9.8-15.7c-2.3-6-3.4-12.3-3.4-18.8c0-6.5,1.1-12.8,3.4-18.8c2.3-6,5.6-11.3,9.9-15.7
		c4.3-4.5,9.5-8.1,15.4-10.7c6-2.6,12.7-4,20.1-4c7.3,0,14.1,1.4,20.1,4c6,2.6,11.2,6.3,15.4,10.7c4.3,4.5,7.6,9.7,9.9,15.7
		c2.3,6,3.5,12.3,3.5,18.8c0,6.5-1.2,12.8-3.5,18.8c-2.3,6-5.6,11.3-9.9,15.7c-4.3,4.5-9.5,8.1-15.4,10.7
		C282.5,396.5,275.7,397.8,268.4,397.8"/>
	<path class="st0" d="M376.2,317.3c-3.8,0-7.3,0.8-10.7,2.5c-3.4,1.7-6.3,3.9-8.8,6.7c-2.5,2.8-4.5,6.2-6,10
		c-1.5,3.8-2.2,8-2.2,12.3c0,4.5,0.7,8.7,2.1,12.4c1.4,3.8,3.4,7.1,5.8,9.8c2.5,2.8,5.4,5,8.8,6.5c3.3,1.6,7,2.4,10.9,2.4
		c3.9,0,7.5-0.8,10.9-2.4c3.3-1.6,6.3-3.8,8.8-6.6c2.5-2.8,4.5-6.2,5.9-9.9c1.4-3.8,2.1-8,2.1-12.4c0-4.4-0.7-8.5-2.1-12.3
		c-1.4-3.8-3.4-7.2-5.9-10c-2.5-2.8-5.4-5.1-8.8-6.6C383.7,318.1,380.1,317.3,376.2,317.3 M376.2,397.8c-7.5,0-14.3-1.3-20.2-4
		c-6-2.6-11.1-6.3-15.3-10.7c-4.2-4.5-7.5-9.7-9.8-15.7c-2.3-6-3.4-12.3-3.4-18.8c0-6.5,1.1-12.8,3.4-18.8c2.3-6,5.6-11.3,9.9-15.7
		c4.3-4.5,9.5-8.1,15.4-10.7c6-2.6,12.7-4,20.1-4c7.3,0,14.1,1.4,20.1,4c6,2.6,11.2,6.3,15.4,10.7c4.3,4.5,7.6,9.7,9.9,15.7
		c2.3,6,3.5,12.3,3.5,18.8c0,6.5-1.2,12.8-3.5,18.8c-2.3,6-5.6,11.3-9.9,15.7c-4.3,4.5-9.5,8.1-15.4,10.7
		C390.3,396.5,383.5,397.8,376.2,397.8"/>
	<path class="st0" d="M475.6,397.8c-3.8,0-7.8-0.3-11.7-0.9c-3.9-0.6-7.8-1.5-11.6-2.6c-3.8-1.1-7.4-2.5-10.9-4.2
		c-3.4-1.6-6.5-3.5-9.2-5.5l-0.3-0.3l8.7-14l0.4,0.3c11.4,7.9,22.8,12,34.1,12c5.9,0,10.6-1.1,14-3.3c3.4-2.2,5-5.3,5-9.3
		c0-3.8-1.8-6.5-5.6-8.3c-3.9-1.8-10.1-3.8-18.5-5.8c-5.9-1.4-11-2.9-15.2-4.4c-4.2-1.5-7.7-3.2-10.4-5.1c-2.7-1.9-4.7-4.2-5.9-6.8
		c-1.2-2.6-1.8-5.8-1.8-9.4c0-4.8,1-9.2,2.9-13c1.9-3.8,4.6-7,7.9-9.6c3.3-2.6,7.3-4.6,11.8-5.9c4.5-1.3,9.4-2,14.6-2
		c6.8,0,13.6,1.1,19.9,3.3c6.4,2.2,12.2,5.1,17.2,8.9l0.4,0.3l-9,12.8l-0.4-0.3c-8.9-6.6-18.5-10-28.5-10c-4.9,0-9.1,1-12.5,3.1
		c-3.4,2-5,5.2-5,9.6c0,1.8,0.3,3.4,1,4.6c0.7,1.2,1.8,2.3,3.3,3.2c1.6,0.9,3.7,1.8,6.3,2.6c2.6,0.8,5.9,1.6,9.7,2.6
		c6.4,1.6,12.1,3.1,16.8,4.7c4.7,1.6,8.6,3.4,11.7,5.5c3.1,2.1,5.4,4.7,6.9,7.6c1.5,2.9,2.2,6.3,2.2,10.4c0,4.5-0.9,8.6-2.7,12.2
		c-1.8,3.6-4.4,6.8-7.8,9.3c-3.3,2.5-7.4,4.5-12.2,5.9C486.7,397.1,481.4,397.8,475.6,397.8"/>
	<path class="st0" d="M557.6,397.5c-3.1,0-6.1-0.4-8.9-1.3c-2.7-0.8-5.2-2.1-7.3-3.9c-2.1-1.7-3.9-4-5.1-6.7
		c-1.2-2.7-1.8-6.1-1.8-10v-58.4h-12.6v-16.2h12.6v-30.9h20.7v30.9h20.5v16.2h-20.5v52.1c0,3.2,0.9,5.5,2.7,6.9
		c1.8,1.4,4.1,2.2,6.7,2.2c2.7,0,5.3-0.5,7.8-1.4c2.5-0.9,4.4-1.7,5.5-2.3l0.5-0.2l4.6,16.5l-0.4,0.2c-2.6,1.2-6.2,2.6-10.6,4.1
		C567.6,396.7,562.8,397.5,557.6,397.5"/>
</g>
</svg>
