<svg width="200" height="200" viewBox="0 0 200 200" fill="none" xmlns="http://www.w3.org/2000/svg">
<rect width="200" height="200" rx="40" fill="#ED3024"/>
<path d="M127.605 105.839C125.481 101.626 121.752 98.9342 116.523 97.838C116.127 97.7544 115.681 97.7038 115.254 97.6557L114.678 97.5861C114.332 97.5398 113.844 97.4892 113.025 97.4831L112.575 97.4813L104.095 97.4032L104.175 88.9727C104.206 87.8667 104.153 87.2649 104.106 86.8589L104.045 86.2754C104.007 85.8626 103.959 85.4047 103.881 84.9998C102.87 79.7557 100.239 75.9877 96.0626 73.7976C92.8504 72.1166 89.9011 72.0343 89.8706 72.0343L89.4014 72.0257C88.5808 72.0215 87.9518 72.0562 87.23 72.1477C73.4232 73.8957 73.469 87.1405 73.4781 87.707L73.2792 112.281C73.239 117.213 74.5544 121.133 77.1913 123.927C79.9044 126.563 83.7963 127.935 88.7285 127.974L113.439 128.177C114.839 128.188 127.215 127.905 129.107 114.69C129.228 113.851 129.272 113.141 129.268 112.067C129.265 112.031 129.235 109.078 127.605 105.839Z" fill="white"/>
<path d="M135.187 50.5669L65.6206 50.0005C57.375 49.9334 50.6338 56.561 50.5673 64.8007L50.0005 134.324C49.9316 142.566 56.5653 149.298 64.8104 149.365L134.376 149.932C142.624 150 149.364 143.376 149.432 135.133L150 65.6104C150.066 57.3719 143.437 50.6352 135.187 50.5669ZM135.957 126.455C131.594 134.506 122.752 137.296 120.15 137.957C118.627 138.344 117.282 138.519 114.819 138.647H114.791L85.1765 138.407C85.1594 138.407 83.1582 138.38 81.1394 137.858C79.7239 137.494 77.9235 136.91 76.4635 136.227C74.7222 135.417 72.7339 134.29 70.0024 131.559L69.5656 131.115C67.4094 128.899 65.3528 125.767 64.332 123.134C63.7439 121.632 63.5785 120.9 63.2308 119.49C62.75 117.534 62.7817 115.454 62.7842 115.292L63.0203 86.1108C63.1923 83.5811 63.3912 82.2355 63.8025 80.7203C64.5059 78.1296 67.4418 69.3437 75.6026 65.097C80.1949 62.5545 84.9111 61.2802 89.6022 61.318C96.8503 61.3777 101.524 64.5781 101.721 64.7159C114.425 72.4837 114.695 85.231 114.667 87.0284C116.534 86.9985 129.183 87.4509 136.837 100.413C136.879 100.471 144.429 111.732 135.957 126.455Z" fill="white"/>
</svg>
