<svg width="200" height="200" viewBox="0 0 200 200" fill="none" xmlns="http://www.w3.org/2000/svg">
<rect width="200" height="200" rx="40" fill="#0047BA"/>
<path d="M86.0601 102.858H79.0839C77.0354 102.858 74.3862 104.318 73.6267 106.26L74.3156 102.537H65.7854L62.0234 123.945H70.5537L72.9203 110.391H82.1041C82.1041 110.391 80.9384 117.106 80.4086 120.116C79.8965 123.126 81.9098 123.856 82.9164 123.856H87.3847L90.2987 107.203C90.0162 104.817 88.4267 102.858 86.0601 102.858Z" fill="white"/>
<path d="M59.6565 102.537L58.0493 111.727L64.531 102.537H59.6565Z" fill="white"/>
<path d="M69.7764 69H41.2363L40 76.0885H49.9608L45.9694 98.9564H54.5704L58.5617 76.0885H68.5401L69.7764 69Z" fill="#FFCD00"/>
<path d="M75.6746 91.9385L76.9285 84.7789H69.2812L68.0273 91.9385H75.6746ZM63.6298 98.9557C61.2633 98.9557 59.6738 96.9965 60.08 94.6101L62.2876 82.0896C62.6937 79.703 64.9719 77.7617 67.3386 77.7617H81.326C83.6927 77.7617 85.2822 79.703 84.8583 82.0896L82.6682 94.6101C82.2444 96.9965 79.9662 98.9557 77.5997 98.9557H63.6298Z" fill="#FFCD00"/>
<path d="M119.934 91.9385L121.188 84.7789H132.261L133.497 77.7617H119.245C116.878 77.7617 114.6 79.703 114.176 82.0896L111.986 94.6101C111.58 96.9965 113.17 98.9557 115.536 98.9557H129.4L130.619 91.9385H119.934Z" fill="#FFCD00"/>
<path d="M102.521 91.9385H93.1426L95.6153 77.7617H88.1447L85.1953 94.6101C84.7714 96.9965 86.3786 98.9557 88.7451 98.9557H96.0214C98.3881 98.9557 100.313 97.5309 101.85 95.6965C101.85 95.6965 102.68 98.1542 103.88 98.7063C105.082 99.2585 108.737 99.1337 108.737 99.1337L112.482 77.7796H105.011L102.521 91.9385Z" fill="#FFCD00"/>
<path d="M156.387 77.8702H149.411C147.362 77.8702 145.384 79.3306 144.607 81.2719L146.62 69.7666H138.761L133.657 98.9573H141.534L143.901 85.4038H152.431C152.431 85.4038 151.265 92.1182 150.735 95.1281C150.206 98.1203 152.237 98.8505 153.226 98.8505H157.023L159.937 82.1981C160.343 79.8115 158.754 77.8702 156.387 77.8702Z" fill="#FFCD00"/>
<path d="M128.376 131.068C125.197 131.068 123.042 128.432 123.607 125.226L126.557 108.395C127.104 105.19 130.177 102.554 133.374 102.554H151.176C154.355 102.554 156.509 105.19 155.944 108.395L153.013 125.226C152.448 128.432 149.392 131.068 146.195 131.068H128.376ZM144.959 123.196L147.202 110.426H134.575L132.332 123.196H144.959Z" fill="#FFCD00"/>
<path d="M111.103 123.196H98.4756L100.719 110.426H121.188L122.53 102.554H99.4999C96.3209 102.554 93.248 105.19 92.7005 108.395L89.7511 125.226C89.2036 128.432 91.3406 131.068 94.5194 131.068H112.322C115.501 131.068 118.574 128.432 119.121 125.226L120.923 114.896H112.534L111.103 123.196Z" fill="#FFCD00"/>
</svg>
