<svg width="200" height="200" viewBox="0 0 200 200" fill="none" xmlns="http://www.w3.org/2000/svg">
<rect x="0.5" y="0.5" width="199" height="199" rx="39.5" fill="white"/>
<rect x="0.5" y="0.5" width="199" height="199" rx="39.5" stroke="#EEEEEE"/>
<path d="M149.582 101.138C149.582 97.4836 149.252 93.9867 148.641 90.624H101.339V109.889L128.581 109.895C127.476 116.305 123.92 121.77 118.472 125.412V137.912H134.688C144.157 129.207 149.582 116.34 149.582 101.138Z" fill="#4285F4"/>
<path d="M118.478 125.417C113.964 128.441 108.151 130.21 101.351 130.21C88.2146 130.21 77.0708 121.418 73.08 109.566H56.3525V122.457C64.6398 138.791 81.6729 150 101.351 150C114.951 150 126.377 145.558 134.694 137.91L118.478 125.417Z" fill="#34A853"/>
<path d="M71.5067 100.005C71.5067 96.6769 72.065 93.4602 73.0818 90.4361V77.5459H56.3544C52.9278 84.3004 51 91.9248 51 100.005C51 108.084 52.9337 115.709 56.3544 122.463L73.0818 109.573C72.065 106.549 71.5067 103.332 71.5067 100.005Z" fill="#FABB05"/>
<path d="M101.351 69.7907C108.774 69.7907 115.422 72.3302 120.67 77.2925L135.041 63.0304C126.313 54.9564 114.934 50 101.351 50C81.6788 50 64.6398 61.2089 56.3525 77.5435L73.08 90.4338C77.0708 78.5827 88.2146 69.7907 101.351 69.7907Z" fill="#E94235"/>
</svg>
