<svg width="200" height="200" viewBox="0 0 200 200" fill="none" xmlns="http://www.w3.org/2000/svg">
<rect width="200" height="200" rx="40" fill="#05565A"/>
<path fill-rule="evenodd" clip-rule="evenodd" d="M50 49.9775H81.0487C79.427 52.7613 78.1991 59.0202 81.3386 73.0793C84.1288 85.5756 92.1992 98.6114 100.618 108.915L90.0395 117.605L50 67.2751V49.9775ZM95.3413 49.9775H150V63.2287C145.773 60.7565 138.062 58.3679 126.742 62.8981C108.476 70.2082 106.911 91.6142 106.911 91.6142C96.806 79.4028 90.1598 59.3824 95.3413 49.9775ZM150 80.8048V120.244C137.58 124.959 120.159 112.697 115.783 98.1403C109.438 77.0396 124.392 69.4243 135.091 71.5127C143.087 73.0742 147.729 77.8413 150 80.8048ZM150 126.718V150.023H116.5L123.216 144.507C118.835 145.042 110.225 142.98 106.034 137.71L94.2412 122.887L105.022 114.033C111.647 121.338 117.956 126.587 121.522 128.161C129.161 131.532 137.765 133.16 150 126.718ZM97.7934 150.023H61.1986L83.9996 131.297C85.8657 133.642 87.6671 135.909 89.3787 138.061C92.736 142.282 95.5565 146.451 97.7934 150.023ZM50.5633 150.023H50V88.5594C58.7085 99.5056 69.8324 113.489 79.798 126.015L50.5633 150.023Z" fill="#EC6722"/>
</svg>
