<svg width="200" height="200" viewBox="0 0 200 200" fill="none" xmlns="http://www.w3.org/2000/svg">
<rect width="200" height="200" rx="40" fill="#108DE8"/>
<path fill-rule="evenodd" clip-rule="evenodd" d="M96.2136 50.1816C79.6649 51.7575 66.2684 60.508 58.1392 74.0278C52.8719 82.8197 50.3834 93.1876 51.1299 103.887C53.0378 130.014 75.4759 152.119 104.177 149.838C129.974 147.764 151.21 124.582 149.053 96.0907C148.265 85.6398 144.615 77.0552 138.809 69.2585C136.154 65.7334 135.657 65.692 132.919 62.8304C129.477 59.2639 122.26 55.1582 117.656 53.3334C111.518 50.8866 103.638 49.4766 96.2136 50.1816Z" fill="white"/>
<path fill-rule="evenodd" clip-rule="evenodd" d="M71.6602 85.4326C71.0381 87.2573 71.4114 107.371 71.4114 111.103C71.4114 115.126 70.6233 116.412 76.9276 118.568C93.6836 124.291 110.232 104.883 126.864 114.463C127.61 114.919 128.564 115.831 128.772 114.38L128.813 88.46C128.813 85.6814 129.062 84.8105 127.196 83.5249C112.306 73.157 96.2136 90.9068 81.1166 88.9162C75.5174 88.1697 73.1948 85.3082 71.6602 85.4326Z" fill="#108DE8"/>
</svg>
