<svg width="200" height="200" viewBox="0 0 200 200" fill="none" xmlns="http://www.w3.org/2000/svg">
<rect width="200" height="200" rx="40" fill="#E9232A"/>
<path d="M53.3315 144.347C51.43 143.357 49.932 142.49 50.0024 142.419C50.2452 142.176 59.3434 140.235 65.6968 139.071C79.445 136.552 95.7908 134.535 112.072 133.35C118.777 132.862 143.035 132.845 147.242 133.326L150 133.642L146.891 133.69C141.371 133.776 128.714 134.661 118.796 135.655C100.023 137.537 79.154 141.007 64.0562 144.756C60.9725 145.521 58.0762 146.147 57.6191 146.147C57.1624 146.147 55.2329 145.337 53.3315 144.347ZM79.5769 125.457C79.2948 124.678 80.4749 124.329 80.9896 124.108C83.3008 123.117 84.9273 121.503 85.4715 119.658C85.7319 118.776 86.5253 113.788 87.2342 108.574C87.9431 103.36 88.5803 99.3277 88.6499 99.0909C88.7016 98.916 88.8411 98.2939 89.5893 98.2269C91.4988 98.2085 92.9167 98.2328 94.8736 98.2328C95.9547 98.1292 95.7421 99.3115 95.6572 100.069C95.5722 101.026 95.3149 102.874 95.0144 105.127C94.6486 107.876 94.1019 111.985 93.7993 114.257C93.1194 119.365 92.7425 120.938 91.5671 123.569C90.1681 126.7 88.0298 128.519 84.1535 129.813C83.3708 130.058 81.1258 130.822 80.8817 130.143C80.375 128.519 80.0152 127.108 79.5769 125.457ZM124.091 123.744C121.508 122.702 121.629 118.676 124.339 117.024C126.054 115.979 128.463 116.156 129.702 117.394C132.752 120.444 128.266 125.429 124.091 123.744ZM104.566 121.339C96.9717 120.042 97.0225 110.99 98.7238 105.816C100.854 99.8287 106.046 98.0891 110.313 97.9371C113.914 97.8138 118.906 98.4833 120.16 99.2578C120.506 99.4715 120.343 101.547 119.376 109.242C118.705 114.585 117.971 119.18 117.745 119.452C116.542 120.901 108.486 122.054 104.566 121.339ZM111.192 114.175C112.007 111.142 112.351 108.405 112.934 105.206C112.861 104.103 111 104.096 110.526 104.093C108.061 104.093 106.604 105.477 105.832 108.553C104.774 112.773 105.879 115.124 108.922 115.124C109.884 115.034 110.888 115.088 111.192 114.175ZM55.6861 118.896C57.7621 113.826 66.1002 95.6718 68.1014 91.9122C68.4796 90.9748 69.4757 90.79 70.1578 90.7243C72.1189 90.6347 73.8142 90.6586 75.5364 90.671C77.311 90.6868 77.337 91.3093 77.5654 92.6278C77.8445 93.9416 81.3068 114.607 82.0904 119.568C82.1902 120.392 82.3921 120.648 81.3196 120.65C79.8334 120.654 76.2564 120.847 75.0425 120.756C74.6546 120.705 74.4019 120.451 74.3417 120.165C74.2308 119.632 74.1057 118.719 74.0204 117.767L73.7993 115.296H69.3443H64.8889L63.9149 117.672C63.5684 118.517 63.1898 119.351 62.9077 119.904C62.71 120.412 62.4156 120.645 61.9747 120.741C60.8842 120.732 57.019 120.875 55.5658 120.747C54.847 120.417 55.4971 119.358 55.6861 118.896ZM73.0139 108.415C72.8876 107.08 72.0353 100.194 71.8351 99.1767C71.7826 99.0675 71.7579 99.1033 71.7037 99.1677C71.1774 99.9576 68.3293 106.946 67.8445 108.57C67.786 108.793 67.9316 108.875 68.1433 108.857C68.8658 108.808 71.8185 108.753 72.7165 108.718C72.9725 108.698 72.9977 108.609 73.0139 108.415ZM124.434 111.763C124.549 110.862 124.801 108.419 124.994 106.334C125.188 104.248 125.497 100.991 125.682 99.0948C125.822 97.656 125.946 96.2594 126 95.5246C126.108 94.8658 126.904 94.7881 127.428 94.783C129.173 94.8014 130.816 94.6981 132.386 94.8428C133.128 94.9187 133.437 95.0826 133.44 95.5238C132.733 99.1532 130.189 111.676 129.994 112.452C129.825 113.121 129.757 113.318 128.736 113.376C127.485 113.356 126.442 113.421 125.173 113.415C124.445 113.405 124.25 113.192 124.434 111.763ZM89.2184 93.1577C89.2184 90.9453 90.6422 89.259 92.4254 88.5494C93.9662 88.0097 95.693 88.0118 96.6124 89.0619C98.244 90.9581 97.1732 93.7598 95.2675 95.2195C92.8253 96.899 89.2581 95.9065 89.2184 93.1577ZM132.968 88.4948C132.435 87.3099 130.724 83.5716 129.166 80.1875C127.609 76.8034 126.416 73.8204 126.517 73.5579C126.618 73.296 128.354 71.1394 130.376 68.7666L133.666 64.9033C133.881 64.6434 134.128 64.3247 134.426 64.3209C136.41 64.3307 138.464 64.4493 140.357 64.4305C141.766 64.4186 142.475 64.3273 141.43 65.388C140.761 66.2167 139.441 67.7336 137.932 69.3981C135.751 71.8034 133.967 73.8357 133.967 73.9147C133.967 73.9932 135.602 77.5851 137.601 81.8968C139.172 85.2844 140.469 88.3143 140.906 89.5799C141.093 90.0096 140.929 90.3774 140.529 90.4777C140 90.6006 139.048 90.6492 137.411 90.6492H134.959C134.36 90.7119 133.919 90.607 133.688 90.0945L132.968 88.4948ZM59.5735 85.9726C57.3665 84.873 56.3234 83.4816 56.133 81.3844C56.019 80.1273 58.0762 63.2298 58.987 57.8569C59.2094 56.5951 59.3059 56.523 60.5158 56.523H62.8966C64.1471 56.523 65.2854 56.5021 66.0016 56.5426C66.9798 56.5571 66.801 57.1733 66.7263 57.9115C66.5581 59.5589 66.034 63.1282 65.3763 67.7242C64.209 75.8783 63.9119 78.7555 64.1911 79.1993C64.518 79.7173 65.3477 79.8026 70.8462 79.885L75.7647 79.9588C76.9359 79.8935 77.1783 80.1811 77.0626 81.2325C76.7758 82.9734 76.6187 84.3602 76.3332 85.9197C76.1373 86.893 75.509 86.6383 74.5304 86.698L68.7805 86.7778C61.4074 86.8704 61.3682 86.8666 59.5735 85.9726ZM116.288 86.599C116.213 86.4569 116.419 84.4792 116.745 82.2041C117.07 79.9289 117.751 75.0424 118.257 71.3455C119.694 60.8501 120.165 57.6879 120.365 56.4782C120.577 55.0663 120.578 55.1444 121.962 55.1444H124.156C125.012 55.1444 125.68 55.1333 126.196 55.1499C128.167 55.2139 127.916 55.0441 127.419 58.095C127.231 59.2479 126.605 64.3221 126.028 68.5878C124.575 79.3303 123.622 85.9172 123.448 86.4266C123.284 86.9041 116.533 87.0667 116.288 86.599ZM78.7993 85.7815C79.7143 78.1048 80.5884 72.3001 81.6051 65.1563C81.6811 64.3012 82.5219 64.2022 83.5044 64.201C84.6217 64.2001 85.7575 64.1852 86.8215 64.2206C88.8825 64.2274 89.4246 64.5035 89.2107 65.8821C88.2978 72.5885 87.1693 78.5737 85.9841 85.3923C85.7626 86.547 85.4924 86.5128 84.3887 86.5128C83.104 86.5171 80.824 86.5602 79.6593 86.5278C78.9777 86.4074 78.8228 86.3302 78.7993 85.7815ZM93.3465 68.5959C93.912 65.6274 94.3038 65.164 95.125 64.6259C96.1386 63.9624 103.626 63.2708 106.21 63.6019C106.571 63.6535 106.915 63.7184 107.242 63.7965C114.815 65.5945 113.638 74.1673 113.145 78.1112C112.626 81.8789 112.117 85.3108 112.014 85.7371C111.833 86.4795 111.672 86.5128 108.242 86.5128C107.09 86.5128 106.488 86.4731 105.832 86.4117C104.773 86.3426 104.675 86.1045 104.781 85.3343C105.166 82.1866 105.687 79.4719 106.075 76.5316C106.597 72.5189 106.458 68.5575 101.478 69.4092C100.625 69.6255 100.391 69.6942 100.273 70.5451C99.6521 74.5086 99.1062 78.6032 98.5377 82.4801C98.4126 83.4052 98.2385 84.3721 98.0597 85.2293C98.0131 85.4474 97.988 85.6428 97.9483 85.7874C97.8975 85.9585 97.7797 86.1361 97.667 85.9603C96.8667 84.5031 93.1015 84.7459 91.5304 85.8152C90.7421 86.3631 90.5799 86.6575 90.9017 84.9878C90.9585 84.6337 91.0136 84.2799 91.0673 83.9266C91.8471 78.8118 92.3725 73.7803 93.3465 68.5959ZM82.5961 59.8107C81.7549 56.9425 84.2594 54.1075 87.0639 54.0089C90.8646 53.755 91.9137 58.9808 88.0255 61.3511C85.7737 62.3811 83.4066 62.1626 82.5961 59.8107Z" fill="white"/>
</svg>
