<svg width="200" height="200" viewBox="0 0 200 200" fill="none" xmlns="http://www.w3.org/2000/svg">
<rect width="200" height="200" rx="40" fill="#4C2A86"/>
<path d="M99.3517 122.94C98.9049 122.88 98.4545 122.86 98.0081 122.788C95.8694 122.444 94.1055 121.45 92.7275 119.777C91.6666 118.488 90.9577 117.007 90.3717 115.46C89.7999 113.95 89.3847 112.392 88.9364 110.844C88.1649 108.179 87.3939 105.514 86.6229 102.849C85.4287 98.7234 84.2354 94.5972 83.0401 90.4718C82.8475 89.8074 82.581 89.1783 82.1299 88.6421C81.5384 87.9391 80.759 87.6223 79.8638 87.6081C78.4918 87.5864 77.1193 87.5974 75.7469 87.6022C75.586 87.6026 75.5263 87.5808 75.5286 87.3962C75.5401 86.3918 75.5377 85.387 75.5302 84.3822C75.529 84.2249 75.5737 84.1877 75.7271 84.1885C77.2506 84.194 78.7741 84.1909 80.2976 84.1924C81.3082 84.1936 82.2948 84.3221 83.22 84.7642C84.3948 85.3257 85.197 86.2443 85.7549 87.3997C86.1551 88.2285 86.3587 89.1222 86.6106 89.9984C87.4152 92.7968 88.2068 95.5988 89.0048 98.3988C90.3393 103.081 91.669 107.765 93.0134 112.445C93.4159 113.846 93.9153 115.214 94.7013 116.456C95.472 117.673 96.4585 118.658 97.8685 119.08C99.8175 119.663 101.716 119.569 103.458 118.402C104.486 117.712 105.173 116.723 105.728 115.637C106.371 114.382 106.784 113.043 107.167 111.692C108.17 108.163 109.179 104.637 110.186 101.109C111.381 96.9227 112.572 92.7348 113.774 88.5504C114.108 87.3867 114.666 86.3463 115.586 85.5294C116.367 84.8354 117.292 84.455 118.315 84.2881C118.848 84.2011 119.386 84.1952 119.923 84.1936C121.361 84.1897 122.799 84.1948 124.237 84.1889C124.391 84.1881 124.434 84.2272 124.433 84.3834C124.426 85.3945 124.425 86.4056 124.434 87.4171C124.436 87.5832 124.377 87.6026 124.236 87.6022C122.916 87.5974 121.596 87.5986 120.276 87.5998C118.859 87.601 117.863 88.2526 117.272 89.5378C116.923 90.2962 116.741 91.1076 116.509 91.9024C115.488 95.4055 114.478 98.9113 113.464 102.416C112.411 106.053 111.366 109.691 110.304 113.325C109.805 115.032 109.196 116.698 108.297 118.244C107.4 119.785 106.246 121.072 104.645 121.912C103.625 122.447 102.534 122.746 101.392 122.864C101.132 122.891 100.872 122.915 100.613 122.941H99.3517V122.94Z" fill="white"/>
<path d="M78.5703 79.0298C79.4829 79.0298 80.3959 79.025 81.3085 79.031C82.5121 79.0389 83.6979 79.1741 84.8497 79.547C86.9192 80.2172 88.457 81.5407 89.5839 83.3755C90.3976 84.7005 90.918 86.1454 91.345 87.6302C92.256 90.7976 93.1698 93.9641 94.0844 97.1307C95.4521 101.865 96.8221 106.599 98.1894 111.334C98.3341 111.835 98.4627 112.343 98.6857 112.817C98.8905 113.252 99.1475 113.64 99.6587 113.768C100.187 113.9 100.685 113.723 101.009 113.278C101.355 112.804 101.514 112.249 101.673 111.698C102.742 107.998 103.806 104.297 104.874 100.597C106.039 96.5648 107.208 92.5339 108.373 88.5021C108.728 87.2736 109.065 86.0398 109.595 84.8702C110.187 83.5649 110.934 82.3671 111.988 81.3794C113.154 80.2856 114.537 79.6166 116.094 79.2852C117.009 79.0907 117.935 79.0294 118.867 79.0294C120.653 79.0294 122.44 79.0314 124.226 79.0258C124.385 79.0254 124.436 79.0598 124.434 79.2283C124.426 80.2394 124.426 81.2505 124.434 82.2616C124.435 82.4166 124.387 82.4395 124.248 82.4395C122.54 82.436 120.833 82.4182 119.126 82.4474C117.899 82.4684 116.709 82.6977 115.612 83.2909C114.299 84.0014 113.444 85.1165 112.83 86.4428C112.327 87.5258 112.05 88.6836 111.716 89.8225C110.629 93.5303 109.544 97.2382 108.46 100.947C107.405 104.555 106.358 108.166 105.297 111.772C104.939 112.989 104.529 114.188 103.879 115.287C103.381 116.129 102.744 116.823 101.817 117.205C101.176 117.47 100.503 117.55 99.8165 117.533C98.7632 117.506 97.8039 117.217 97.0171 116.479C96.5189 116.012 96.1507 115.45 95.8392 114.847C95.2302 113.668 94.8443 112.407 94.4734 111.141C93.3956 107.465 92.326 103.786 91.2525 100.108C90.0785 96.086 88.9065 92.0625 87.7271 88.0419C87.3791 86.8552 86.8892 85.7346 86.1059 84.7606C85.217 83.6554 84.0609 82.9891 82.6904 82.6752C81.9206 82.4988 81.1389 82.4344 80.35 82.4356C78.8068 82.4379 77.2639 82.434 75.7206 82.4403C75.5649 82.4411 75.5289 82.3988 75.5301 82.2473C75.5368 81.243 75.5372 80.2382 75.5301 79.2334C75.5289 79.0729 75.5652 79.0238 75.7329 79.0254C76.6783 79.0341 77.6241 79.0294 78.5695 79.0294L78.5703 79.0298Z" fill="white"/>
<path d="M170 99.8515C169.959 99.7847 169.98 99.7108 169.981 99.6408C169.988 99.0702 169.979 98.4984 169.926 97.9313C169.796 96.5308 169.554 95.1484 169.18 93.7909C168.851 92.5923 168.433 91.4255 167.902 90.3001C167.359 89.1458 166.728 88.0406 165.998 86.9939C165.062 85.6535 163.993 84.4308 162.765 83.3513C161.547 82.2813 160.224 81.3631 158.795 80.5932C157.455 79.8704 156.057 79.2919 154.594 78.8755C152.479 78.2741 150.325 77.9566 148.123 78.0048C147.861 78.0127 147.6 77.989 147.338 78.0178C146.097 78.0222 144.865 78.1349 143.64 78.3314C141.266 78.7122 139.011 79.4489 136.885 80.5762C133.31 82.4727 130.544 85.192 128.581 88.731C126.675 92.1685 125.826 95.8799 125.719 99.7819C125.68 101.219 125.755 102.652 125.941 104.079C126.151 105.693 126.511 107.27 127.055 108.803C128.119 111.8 129.74 114.455 131.987 116.714C133.727 118.464 135.733 119.836 137.971 120.87C140.529 122.053 143.224 122.686 146.031 122.865C146.455 122.892 146.879 122.915 147.303 122.94H148.485C148.532 122.903 148.587 122.921 148.637 122.921C149.306 122.92 149.974 122.907 150.641 122.841C151.649 122.741 152.646 122.579 153.631 122.349C155.54 121.902 157.359 121.216 159.078 120.268C160.551 119.455 161.918 118.493 163.149 117.349C164.131 116.436 165.023 115.438 165.809 114.347C166.738 113.056 167.515 111.682 168.151 110.228C168.844 108.645 169.321 106.995 169.63 105.296C169.776 104.495 169.887 103.689 169.939 102.877C169.971 102.379 169.981 101.881 169.98 101.383C169.98 101.319 169.959 101.252 169.999 101.192V99.8519L170 99.8515ZM166.329 100.968C166.269 103.963 165.734 106.857 164.449 109.586C162.811 113.068 160.299 115.708 156.863 117.453C155.25 118.272 153.542 118.81 151.761 119.121C149.923 119.441 148.072 119.514 146.214 119.388C143.481 119.202 140.875 118.536 138.458 117.219C134.927 115.296 132.449 112.431 130.905 108.737C130.213 107.081 129.786 105.355 129.564 103.576C129.438 102.559 129.38 101.539 129.374 100.515C129.385 98.0899 129.697 95.7118 130.474 93.4049C131.215 91.2068 132.309 89.2063 133.82 87.442C135.188 85.8452 136.818 84.5763 138.676 83.5969C140.569 82.5988 142.585 81.9883 144.699 81.6957C146.381 81.4628 148.071 81.4256 149.762 81.5755C153.194 81.8795 156.35 82.9496 159.152 84.9899C161.272 86.5349 162.908 88.4946 164.115 90.8173C165.116 92.7426 165.746 94.7862 166.067 96.9301C166.267 98.2698 166.355 99.6162 166.328 100.969L166.329 100.968Z" fill="white"/>
<path d="M73.904 96.1987C73.5193 93.8266 72.7917 91.5683 71.6759 89.4406C69.3513 85.0079 65.8896 81.7883 61.295 79.8045C58.4817 78.5898 55.5241 78.048 52.4668 78.0184C52.175 78.0184 51.8832 78.0176 51.5914 78.0176C50.2715 78.0243 48.9627 78.1493 47.6615 78.3715C45.4302 78.7527 43.3069 79.4514 41.2975 80.4961C37.3762 82.5349 34.438 85.5413 32.4436 89.4781C31.5567 91.2291 30.9252 93.0705 30.5243 94.9895C30.2139 96.4736 30.0273 97.9738 30 99.4914V101.55C30.0194 102.66 30.1396 103.758 30.3147 104.853C30.686 107.171 31.3898 109.381 32.4606 111.471C33.7425 113.973 35.4293 116.157 37.6028 117.949C41.5481 121.203 46.1198 122.748 51.1964 122.904C51.8306 122.904 52.4644 122.904 53.0987 122.904C53.9326 122.896 54.7605 122.813 55.5869 122.708C57.2986 122.489 58.9668 122.091 60.5797 121.477C64.043 120.161 66.9884 118.106 69.3225 115.22C72.4556 111.345 73.9744 106.866 74.2148 101.92C74.3081 100.002 74.2116 98.0952 73.904 96.1979V96.1987ZM69.5229 107.541C68.7467 109.872 67.5799 111.982 65.9232 113.805C63.5432 116.423 60.59 118.063 57.165 118.883C55.0516 119.388 52.9069 119.521 50.7417 119.401C48.2819 119.264 45.9158 118.739 43.6746 117.699C42.0171 116.93 40.5142 115.929 39.1904 114.665C36.8401 112.423 35.3012 109.699 34.4214 106.589C33.9576 104.95 33.7294 103.273 33.6575 101.571C33.6025 100.27 33.6432 98.9742 33.7927 97.6832C34.2118 94.067 35.4237 90.7601 37.7084 87.8913C39.6186 85.4927 42.046 83.7987 44.9055 82.7148C46.4804 82.1177 48.1118 81.7666 49.7868 81.6013C51.2011 81.4617 52.6163 81.4502 54.0302 81.5764C57.6715 81.901 60.9897 83.0829 63.8872 85.3515C65.7686 86.8248 67.2335 88.645 68.3411 90.7573C69.3145 92.6134 69.9432 94.5822 70.2801 96.6487C70.4897 97.9335 70.5806 99.2257 70.5893 100.371C70.583 102.917 70.2805 105.265 69.5225 107.541L69.5229 107.541Z" fill="white"/>
<path d="M163.967 94.9663C163.244 92.3343 161.975 89.9986 160.092 88.0124C158.664 86.505 156.979 85.3563 155.076 84.5319C153.499 83.849 151.85 83.4413 150.141 83.257C148.996 83.1332 147.85 83.1115 146.702 83.1688C145.113 83.2483 143.553 83.5113 142.042 84.0162C138.081 85.3397 135.089 87.8218 133.122 91.5166C132.069 93.4945 131.451 95.6073 131.181 97.8284C131.022 99.1352 130.989 100.444 131.054 101.757C131.138 103.484 131.43 105.174 131.977 106.818C132.716 109.038 133.848 111.032 135.445 112.746C137.301 114.737 139.548 116.12 142.136 116.951C144.234 117.625 146.391 117.854 148.589 117.786C150.042 117.741 151.473 117.557 152.876 117.182C155.484 116.487 157.796 115.245 159.75 113.372C161.368 111.822 162.548 109.972 163.373 107.896C164.313 105.535 164.685 103.07 164.685 100.54C164.684 98.5089 164.485 96.8517 163.967 94.9659L163.967 94.9663ZM160.931 102.384C160.636 105.171 159.709 107.714 157.906 109.893C156.392 111.724 154.47 112.956 152.216 113.678C150.615 114.191 148.967 114.365 147.292 114.306C144.705 114.215 142.302 113.531 140.155 112.048C138.169 110.676 136.765 108.838 135.836 106.623C135.017 104.669 134.68 102.624 134.686 100.628C134.684 98.2831 135.043 96.1209 135.987 94.0861C137.785 90.2097 140.778 87.7822 144.962 86.9123C147.767 86.3291 150.543 86.5311 153.21 87.6419C155.936 88.7775 157.982 90.674 159.359 93.2873C160.211 94.9026 160.699 96.6271 160.905 98.4373C161.055 99.7525 161.07 101.069 160.931 102.384H160.931Z" fill="white"/>
<path d="M68.7821 97.7884C68.5923 96.2439 68.2407 94.7405 67.6718 93.2912C66.6797 90.7645 65.1942 88.5821 63.0977 86.8419C60.5165 84.6991 57.519 83.5591 54.2008 83.234C52.4582 83.0632 50.7173 83.104 48.9838 83.3756C47.2745 83.6437 45.6379 84.1415 44.0927 84.9213C40.4779 86.7454 38.0094 89.6027 36.5436 93.3513C35.6702 95.5847 35.3029 97.9133 35.2799 100.303C35.27 101.459 35.3432 102.608 35.512 103.753C35.8054 105.742 36.3969 107.634 37.3416 109.411C38.5871 111.754 40.3039 113.67 42.5332 115.121C44.7973 116.595 47.2875 117.415 49.9624 117.692C51.5919 117.86 53.2217 117.84 54.8492 117.628C56.8314 117.371 58.7175 116.809 60.4928 115.885C62.5121 114.833 64.2238 113.416 65.5824 111.584C67.6611 108.782 68.6543 105.595 68.8904 102.149C68.99 100.694 68.96 99.2396 68.7821 97.7888V97.7884ZM63.8692 107.201C62.2334 110.621 59.5692 112.822 55.9243 113.835C54.3372 114.276 52.7141 114.382 51.0735 114.279C49.0744 114.153 47.1824 113.655 45.426 112.677C42.9322 111.289 41.1912 109.236 40.0928 106.62C39.5475 105.322 39.2122 103.969 39.0588 102.569C38.8057 100.257 38.9374 97.9762 39.6183 95.7436C40.3063 93.4882 41.4787 91.5245 43.2256 89.9262C44.9551 88.3437 46.9839 87.3437 49.282 86.8909C50.7457 86.6027 52.2222 86.5437 53.7045 86.6976C56.6827 87.0068 59.2829 88.1543 61.4153 90.2749C63.127 91.9772 64.2045 94.0477 64.7912 96.3771C65.1483 97.7943 65.2752 98.9972 65.2768 100.522C65.2823 102.848 64.8782 105.09 63.8688 107.201H63.8692Z" fill="white"/>
</svg>
