<?xml version="1.0" encoding="UTF-8"?>
<svg width="40px" height="36px" viewBox="0 0 40 36" version="1.1" xmlns="http://www.w3.org/2000/svg" xmlns:xlink="http://www.w3.org/1999/xlink">
    <title>ATM</title>
    <g id="ATM" stroke="none" stroke-width="1" fill="none" fill-rule="evenodd">
        <g id="编组-2">
            <rect id="矩形备份" x="0" y="0" width="40" height="36"></rect>
            <path d="M23.4,18.4491985 L23.4,30.9774394 C23.2347237,31.0075202 23.0652763,31.0075202 22.9,30.9774394 L9.8,30.9774394 C9.46749684,30.9914001 9.13524669,30.9445039 8.82,30.839115 C8.50734855,30.7717572 8.23878906,30.5754825 8.08208804,30.2998175 C7.92538702,30.0241524 7.89551147,29.6954267 8,29.3965889 C8.3,28.0331052 8.66,26.6893822 8.98,25.4444624 C9.48,23.4683991 9.96,21.4923359 10.46,19.5162726 C10.5656625,19.1653632 10.6524506,18.8091735 10.72,18.4491985 L23.4,18.4491985 Z" id="路径" fill="#228A0E" fill-rule="nonzero"></path>
            <path d="M7,17.5402094 L7,15.0898909 L33,15.0898909 L33,17.5402094 C24.34,17.5797306 15.7,17.5797306 7,17.5402094 Z" id="路径" fill="#228A0E" fill-rule="nonzero"></path>
            <path d="M26.2,18.4491985 L29.246411,18.4491985 C30.146411,22.0456336 31.08,25.5432655 31.96,29.1397006 C32.22,30.1672535 31.68,30.7995938 30.54,30.839115 C29.4,30.8786363 28.72,30.8983969 27.76,30.8983969 C27.24,26.6893822 26.72,22.6582132 26.2,18.4491985 Z" id="路径" fill="#228A0E" fill-rule="nonzero"></path>
            <polygon id="路径-2" fill="#DCF5D7" points="23.4 18.4491985 26.2 18.4491985 27.7929688 30.8983969 23.4 31"></polygon>
        </g>
        <g transform="translate(10.000000, 7.000000)" fill="#7AD968" fill-rule="nonzero">
            <path d="M4.27403846,0 L7,7 L5.55288462,7 L4.91346154,5.25837321 L2.05288462,5.25837321 L1.44711538,7 L0,7 L2.72596154,0 L4.27403846,0 Z M3.5,1.07177033 L3.46634615,1.07177033 C3.46634615,1.11642743 3.44391026,1.20574163 3.39903846,1.33971292 C3.35416667,1.51834131 3.32051282,1.64114833 3.29807692,1.70813397 C3.27564103,1.75279107 2.97275641,2.60127592 2.38942308,4.25358852 L4.64423077,4.25358852 C4.03846154,2.57894737 3.72435897,1.71929825 3.70192308,1.67464115 C3.61217949,1.45135566 3.54487179,1.25039872 3.5,1.07177033 Z" id="形状"></path>
            <polygon id="路径" points="13 1.07177033 10.6871508 1.07177033 10.6871508 7 9.34636872 7 9.34636872 1.07177033 7 1.07177033 7 0 13 0"></polygon>
            <path d="M21,7 L19.7361111,7 L19.7361111,2.61244019 C19.7361111,2.4784689 19.7469136,2.14354067 19.7685185,1.6076555 C19.7685185,1.29505582 19.7685185,1.11642743 19.7685185,1.07177033 L19.7361111,1.03827751 C19.6064815,1.66347687 19.5092593,2.06539075 19.4444444,2.24401914 C19.3796296,2.51196172 18.9259259,4.09728868 18.0833333,7 L16.9490741,7 C16.0632716,4.09728868 15.587963,2.53429027 15.5231481,2.31100478 C15.4367284,2.06539075 15.3179012,1.6523126 15.1666667,1.07177033 L15.1342593,1.07177033 C15.1558642,1.25039872 15.1666667,1.80861244 15.1666667,2.74641148 L15.1666667,7 L14,7 L14,0 L15.9444444,0 C16.8518519,3.08133971 17.316358,4.67783094 17.337963,4.78947368 C17.4027778,5.14673046 17.4459877,5.40350877 17.4675926,5.55980861 L17.5,5.55980861 C17.5216049,5.33652313 17.5648148,5.09090909 17.6296296,4.82296651 C17.6728395,4.66666667 18.1265432,3.05901116 18.9907407,0 L21,0 L21,7 Z" id="路径"></path>
        </g>
    </g>
</svg>