<?xml version="1.0" encoding="UTF-8"?>
<svg width="40px" height="36px" viewBox="0 0 40 36" version="1.1" xmlns="http://www.w3.org/2000/svg" xmlns:xlink="http://www.w3.org/1999/xlink">
    <title>信用卡</title>
    <g id="信用卡" stroke="none" stroke-width="1" fill="none" fill-rule="evenodd">
        <g id="编组-2">
            <rect id="矩形备份" x="0" y="0" width="40" height="36"></rect>
            <path d="M6,26.2880786 C6,27.2363137 6.72815994,28 7.62642139,28 L32.3735786,28 C33.2726087,28 34,27.2335451 34,26.2880786 L34,15.1666667 L6,15.1666667 L6,26.2880786 Z" id="路径" fill="#1D71D4" fill-rule="nonzero"></path>
            <polygon id="路径" fill="#6EB1FF" fill-rule="nonzero" points="26.7307693 21 31.6666667 21 30.7692308 24.5 25.8333333 24.5"></polygon>
            <path d="M32.3735786,7 L7.62642139,7 C6.72739127,7 6,7.69677716 6,8.55629222 L6,12.8333333 L34,12.8333333 L34,8.55629222 C34,7.69426029 33.2718401,7 32.3735786,7 L32.3735786,7 Z" id="路径" fill="#6EB1FF" fill-rule="nonzero"></path>
        </g>
    </g>
</svg>