<?xml version="1.0" encoding="UTF-8"?>
<svg width="40px" height="36px" viewBox="0 0 40 36" version="1.1" xmlns="http://www.w3.org/2000/svg" xmlns:xlink="http://www.w3.org/1999/xlink">
    <title>商超</title>
    <g id="商超" stroke="none" stroke-width="1" fill="none" fill-rule="evenodd">
        <g id="编组">
            <rect id="矩形备份" x="0" y="0" width="40" height="36"></rect>
            <g transform="translate(6.000000, 6.000000)" fill-rule="nonzero" id="路径">
                <path d="M23.7828068,2.50754162 L3.72718012,2.50754162 C3.02007226,2.50754162 2.44154938,1.94335544 2.44154938,1.25377081 C2.44154938,0.564186177 3.02007226,0 3.72718012,0 L23.7828068,0 C24.4899147,0 25.0684375,0.564186177 25.0684375,1.25377081 C25.0684375,1.94335544 24.4899147,2.50754162 23.7828068,2.50754162 Z" fill="#EC5700"></path>
                <path d="M0,10.8330585 L2.52736663,3.83407223 C2.52736663,3.83370583 25.0915121,3.83386407 25.0915121,3.83425543 L28,10.8330585 C28,10.8334249 0,10.8334249 0,10.8330585 Z" fill="#FE9558"></path>
                <path d="M0,11.25 C0,12.8608305 1.29047337,14.1666667 2.88235294,14.1666667 C4.47423251,14.1666667 5.76470588,12.8608305 5.76470588,11.25 C5.76470588,9.63916948 4.47423251,8.33333333 2.88235294,8.33333333 C1.29047337,8.33333333 0,9.63916948 0,11.25 Z" fill="#FE9558"></path>
                <path d="M5.55882353,11.25 C5.55882353,12.2920246 6.10819687,13.2548951 6.99999998,13.7759074 C7.89180309,14.2969197 8.99054985,14.2969197 9.88235296,13.7759074 C10.7741561,13.2548951 11.3235294,12.2920246 11.3235294,11.25 C11.3235294,9.63916947 10.033056,8.33333333 8.44117647,8.33333333 C6.8492969,8.33333333 5.55882353,9.63916947 5.55882353,11.25 Z" fill="#FE9558"></path>
                <path d="M11.1176471,11.25 C11.1176471,12.8608305 12.4081204,14.1666667 14,14.1666667 C15.5918796,14.1666667 16.8823529,12.8608305 16.8823529,11.25 C16.8823529,9.63916948 15.5918796,8.33333333 14,8.33333333 C12.4081204,8.33333333 11.1176471,9.63916948 11.1176471,11.25 L11.1176471,11.25 Z" fill="#FE9558"></path>
                <path d="M16.6764706,11.25 C16.6764706,12.8608305 17.966944,14.1666667 19.5588235,14.1666667 C21.1507031,14.1666667 22.4411765,12.8608305 22.4411765,11.25 C22.4411765,9.63916948 21.1507031,8.33333333 19.5588235,8.33333333 C17.966944,8.33333333 16.6764706,9.63916948 16.6764706,11.25 L16.6764706,11.25 Z" fill="#FE9558"></path>
                <path d="M22.2352941,11.25 C22.2352941,12.8608305 23.5257675,14.1666667 25.1176471,14.1666667 C26.7095266,14.1666667 28,12.8608305 28,11.25 C28,9.63916948 26.7095266,8.33333333 25.1176471,8.33333333 C23.5257675,8.33333333 22.2352941,9.63916948 22.2352941,11.25 L22.2352941,11.25 Z" fill="#FE9558"></path>
                <polygon fill="#EC5700" points="25.5294118 25 2.47058824 25 2.47058824 15.8333333 4.75778319 15.8333333 4.75379312 18.7192017 23.2383838 18.7192017 23.2345194 15.8333333 25.5294118 15.8333333"></polygon>
            </g>
        </g>
    </g>
</svg>