<svg width="40" height="40" viewBox="0 0 40 40" fill="none" xmlns="http://www.w3.org/2000/svg">
<rect width="40" height="40" rx="8" fill="white"/>
<path d="M23.09 21.7799C23.0435 21.5023 22.969 21.2336 22.8567 20.9849C22.5055 20.226 22.0155 19.5899 21.2842 19.1607C20.1432 18.4964 18.7655 18.4997 17.6373 19.1855C17.1265 19.4936 16.7063 19.9372 16.4361 20.4715C16.3447 20.652 16.2693 20.8413 16.2092 21.0355C15.9117 21.9805 15.9221 23.2512 16.4577 24.1143C16.6326 24.3951 16.8859 24.6374 17.1931 24.7553C17.5034 24.8748 17.8698 24.8612 18.1489 24.6823C18.5073 24.4505 18.5715 24.0077 18.5041 23.6146C18.4199 23.1124 18.355 22.6174 18.5402 22.1257C18.5987 21.9692 18.6829 21.8176 18.8032 21.7021C18.877 21.6315 18.9644 21.5745 19.0558 21.5296C19.2507 21.4342 19.472 21.3924 19.6861 21.4269C20.0598 21.4863 20.3653 21.7767 20.5313 22.1168C20.6956 22.457 20.7414 22.8412 20.7598 23.2207C20.8376 24.8668 20.4447 26.5723 20.0253 28.1535C19.982 28.3171 19.9371 28.4792 19.8914 28.642C19.8561 28.7672 19.7919 28.9268 19.8713 29.048C19.9058 29.0993 19.9595 29.137 20.0173 29.1603C20.2618 29.2589 20.4615 29.1089 20.6251 28.9437C21.5905 27.9722 22.208 26.7191 22.6314 25.4308C22.7893 24.9486 22.9249 24.4609 23.0163 23.9611C23.1414 23.2792 23.2119 22.4987 23.09 21.7799Z" fill="#009591"/>
<path d="M30 14.1681C30 13.921 29.7811 13.7582 29.5469 13.7662C29.308 13.7742 29.0867 13.897 28.8678 13.9804C24.6218 15.5945 19.8338 15.9009 15.3594 15.2567C14.5944 15.146 13.8182 14.9912 13.0484 14.8717C12.5681 14.7971 12.0925 14.6864 11.6066 14.6519C11.192 14.619 10.6764 14.6037 10.3413 14.8925C9.90022 15.2736 9.93149 15.9956 10.1817 16.4737C10.4824 17.0473 11.0084 17.4765 11.5569 17.8038C12.0893 18.1206 12.7236 18.4592 13.3571 18.4191C15.0675 18.3092 16.7731 18.1431 18.4723 17.9233C21.3702 17.547 24.4093 17.1917 27.1309 16.0662C28.021 15.6987 28.9006 15.2407 29.6624 14.6478C29.8011 14.542 30 14.3695 30 14.1681Z" fill="#009591"/>
<path d="M17.8239 12.712C17.8239 13.6353 18.5721 14.3838 19.4942 14.3838C20.4164 14.3838 21.1645 13.6353 21.1645 12.712C21.1645 12.5756 21.1324 12.4368 21.0747 12.3125C20.9304 12.0084 20.7692 11.8616 20.786 11.4966C20.8069 11.0073 20.179 11.0001 19.8398 11.0001C19.471 11.0001 19.078 11.0522 18.7445 11.2191C18.479 11.353 18.2505 11.5592 18.0893 11.8079C17.9233 12.0654 17.8311 12.3678 17.8239 12.6743V12.712Z" fill="#ED1651"/>
</svg>
