<svg width="40" height="40" viewBox="0 0 40 40" fill="none" xmlns="http://www.w3.org/2000/svg">
<rect width="40" height="40" rx="8" fill="white"/>
<path d="M14.5422 9.2747C13.9284 9.5792 13.4664 10.1092 13.2501 10.7587L9.13349 23.102C8.91533 23.7489 8.9662 24.4494 9.27413 25.0632C9.5816 25.6727 10.1142 26.1314 10.7612 26.3469L24.264 30.8682C24.9232 31.0839 25.6185 31.0372 26.2332 30.7284C26.8507 30.4184 27.3091 29.8943 27.5244 29.2432L31.6452 16.9017C32.0945 15.5602 31.3593 14.1015 30.0126 13.6536L16.5084 9.13113C15.8518 8.91737 15.1563 8.96477 14.5422 9.2747Z" fill="white"/>
<path d="M21.1423 21.1283C20.408 21.947 19.4917 22.6028 18.4353 23.011L17.8211 23.2469V17.528L18.4256 17.7608C19.4873 18.1651 20.4039 18.8239 21.1423 19.6367C21.6661 18.7928 21.9934 17.817 22.0582 16.757C22.2251 14.0116 20.5019 11.4984 18.137 10.6239L16.1882 9.97262C15.307 9.68111 14.3726 10.1671 14.0797 11.0409L9.94811 23.3917C9.65805 24.269 10.1496 25.2232 11.0317 25.5128L20.4039 28.634C21.3625 27.6201 21.9806 26.2782 22.0695 24.7792C22.1531 23.4442 21.8044 22.1856 21.1423 21.1283ZM15.72 23.5996H14.7916V17.1882H15.72V23.5996Z" fill="#0099DA"/>
<path d="M20.6003 20.3811C20.0783 19.7681 19.4469 19.2574 18.7146 18.882V21.8946C19.4469 21.5169 20.0807 20.9977 20.6003 20.3811Z" fill="#F15C21"/>
<path d="M29.7138 14.479L21.1117 11.6126C22.2677 12.873 22.9757 14.5465 22.9757 16.3834C22.9798 17.8319 22.5264 19.2231 21.7353 20.3811C22.5281 21.5383 22.9879 22.9278 22.9879 24.3784C22.991 26.1121 22.3678 27.7066 21.3264 28.9403L24.5581 30.0161C25.4407 30.3085 26.3731 29.8273 26.6631 28.9483L30.7971 16.6013C31.089 15.7229 30.5955 14.7714 29.7138 14.479ZM27.4338 23.5782L26.2741 23.5824L23.8847 20.375L26.3102 17.1702L27.4838 17.166L25.0496 20.3811L27.4338 23.5782Z" fill="#0055A2"/>
</svg>
