<svg width="200" height="200" viewBox="0 0 200 200" fill="none" xmlns="http://www.w3.org/2000/svg">
<rect width="200" height="200" rx="40" fill="#FAE100"/>
<path d="M57.3482 112.42C57.3388 112.27 57.3341 112.096 57.3341 111.923C57.3341 109.41 58.4876 107.164 60.2929 105.691L60.307 105.682C62.4593 104.21 65.1226 103.328 67.9876 103.328C68.3112 103.328 68.6347 103.338 68.9536 103.361H68.9114H74.5617V101.495C74.5617 96.9845 72.572 94.7293 68.5925 94.7293C67.1577 94.7386 65.7744 94.9356 64.4568 95.2872L64.5693 95.2591C63.0782 95.6342 61.7887 96.089 60.5602 96.6516L60.7056 96.5907L59.266 93.1257C60.6212 92.3521 62.192 91.705 63.8425 91.2643L63.9832 91.2315C65.4602 90.8189 67.153 90.5751 68.902 90.5657H68.9067C75.8027 90.5657 79.2492 94.2432 79.246 101.598V120.25H75.6214L75.0353 117.052C73.6989 118.145 72.1562 119.064 70.4916 119.729L70.3744 119.772C68.9817 120.353 67.364 120.705 65.6666 120.733H65.6572C65.4509 120.751 65.2117 120.766 64.9726 120.766C60.7431 120.766 57.3107 117.338 57.3107 113.104C57.3107 112.865 57.3201 112.626 57.3435 112.392V112.42H57.3482ZM66.5528 116.79C67.2984 116.785 68.0205 116.686 68.7098 116.508L68.6488 116.522C69.5116 116.311 70.2337 116.072 70.9371 115.791L70.8245 115.833C71.6123 115.524 72.2828 115.177 72.9158 114.764L72.8689 114.792C73.5067 114.384 74.0647 113.953 74.5758 113.479L74.5664 113.489V106.667H69.4694C69.2443 106.648 68.9864 106.639 68.7238 106.639C66.9139 106.639 65.2211 107.145 63.7769 108.026L63.8191 108.003C62.7218 108.913 62.0279 110.277 62.0279 111.801C62.0279 111.946 62.0326 112.087 62.0466 112.232V112.213C62.0185 112.392 61.9997 112.603 61.9997 112.814C61.9997 115.031 63.8003 116.832 66.0182 116.832C66.2058 116.832 66.3934 116.818 66.5762 116.794L66.5528 116.79ZM92.8818 120.254H87.9771V79.0643L92.8818 78V120.254ZM105.992 90.3594L109.833 93.1304L100.403 104.96L111.324 118.07L107.54 121L94.6449 105.223L105.992 90.3594ZM115.661 112.42C115.652 112.27 115.647 112.101 115.647 111.923C115.647 109.41 116.801 107.164 118.606 105.687L118.62 105.677C120.777 104.205 123.436 103.324 126.305 103.324C126.629 103.324 126.952 103.333 127.271 103.356H127.229H132.879V101.49C132.879 96.9798 130.89 94.7246 126.91 94.7246C125.475 94.7339 124.087 94.9309 122.77 95.2825L122.882 95.2544C121.391 95.6295 120.106 96.0843 118.878 96.6469L119.019 96.5907L117.579 93.1257C118.934 92.3568 120.5 91.7097 122.156 91.2643L122.296 91.2315C123.773 90.8189 125.471 90.5751 127.22 90.5657C134.109 90.5657 137.561 94.2432 137.564 101.598V120.25H133.939L133.353 117.052C132.017 118.145 130.474 119.064 128.805 119.729L128.687 119.772C127.295 120.353 125.677 120.705 123.984 120.733H123.975C123.769 120.751 123.529 120.766 123.286 120.766C119.056 120.766 115.628 117.338 115.628 113.109C115.628 112.865 115.638 112.626 115.661 112.392V112.42ZM124.866 116.79C125.611 116.785 126.333 116.686 127.023 116.508L126.962 116.522C127.825 116.311 128.547 116.072 129.25 115.791L129.138 115.833C129.925 115.524 130.596 115.172 131.229 114.764L131.182 114.792C131.82 114.384 132.373 113.953 132.889 113.479L132.879 113.489V106.667H127.787C127.562 106.648 127.299 106.639 127.037 106.639C125.227 106.639 123.534 107.145 122.095 108.026L122.137 108.003C121.04 108.913 120.341 110.272 120.341 111.796C120.341 111.941 120.346 112.087 120.36 112.227V112.209C120.331 112.387 120.313 112.598 120.313 112.809C120.313 115.027 122.113 116.827 124.331 116.827C124.519 116.827 124.706 116.813 124.889 116.79H124.866ZM157.291 90.6266C157.473 90.6173 157.689 90.6126 157.905 90.6126C161.44 90.6126 164.62 92.1364 166.819 94.5605L166.828 94.5698C169.013 97.3549 170.331 100.904 170.331 104.768C170.331 105.157 170.317 105.541 170.293 105.921L170.298 105.87C170.321 106.193 170.335 106.568 170.335 106.953C170.335 110.765 169.027 114.267 166.833 117.043L166.861 117.01C164.399 119.415 161.028 120.897 157.309 120.897C153.591 120.897 150.219 119.415 147.753 117.005L147.758 117.01C145.577 114.272 144.255 110.765 144.255 106.948C144.255 106.568 144.269 106.193 144.293 105.823L144.288 105.874C144.264 105.546 144.25 105.162 144.25 104.777C144.25 100.914 145.577 97.3549 147.805 94.5417L147.776 94.5745C149.99 92.1411 153.174 90.6173 156.709 90.6173C156.915 90.6173 157.117 90.622 157.319 90.6313H157.291V90.6266ZM157.291 94.5698C157.192 94.5652 157.075 94.5605 156.958 94.5605C154.669 94.5605 152.644 95.6904 151.415 97.4253L151.401 97.4487C150.093 99.5774 149.314 102.156 149.314 104.918C149.314 105.251 149.324 105.584 149.347 105.912L149.343 105.87C149.324 106.156 149.31 106.488 149.31 106.826C149.31 109.541 150.088 112.073 151.429 114.215L151.396 114.159C152.812 115.875 154.937 116.958 157.314 116.958C159.691 116.958 161.815 115.875 163.217 114.173L163.227 114.159C164.535 112.073 165.309 109.541 165.309 106.826C165.309 106.488 165.295 106.156 165.271 105.827L165.276 105.87C165.295 105.584 165.309 105.255 165.309 104.922C165.309 102.161 164.535 99.5821 163.189 97.3877L163.227 97.4487C161.97 95.6904 159.935 94.5605 157.638 94.5605C157.511 94.5605 157.389 94.5652 157.267 94.5698H157.291ZM34.5688 120.254H29.6641V79.0643L34.5688 78V120.254ZM47.6794 90.3594L51.5197 93.1304L42.0853 104.96L53.0108 118.07L49.2268 121L36.3319 105.223L47.6794 90.3594Z" fill="black"/>
</svg>
