<svg width="200" height="200" viewBox="0 0 200 200" fill="none" xmlns="http://www.w3.org/2000/svg">
<rect width="200" height="200" rx="40" fill="#1E4BC6"/>
<path d="M47 93.75H61.6422C63.9541 93.75 65.8807 94.1376 67.8073 94.9127C69.7339 95.6878 71.2752 96.8505 72.6239 98.207C73.9725 99.5634 75.1284 101.114 75.8991 103.051C76.6697 104.989 77.055 106.927 77.055 109.059C77.055 111.19 76.6697 113.128 75.8991 115.066C75.1284 117.004 73.9725 118.556 72.6239 119.91C71.2752 121.265 69.5413 122.431 67.8073 123.203C66.0734 123.978 63.9541 124.369 61.6422 124.369H55.0917V136.576H47.1927V93.75H47ZM54.8991 101.116V116.812H61.0642C62.2202 116.812 63.3761 116.618 64.3394 116.231C65.3028 115.843 66.0734 115.262 66.844 114.486C67.6147 113.711 68 112.936 68.3853 111.967C68.7706 110.998 68.9633 110.03 68.9633 108.867C68.9633 107.704 68.7706 106.735 68.3853 105.766C68 104.797 67.422 104.022 66.844 103.247C66.0734 102.472 65.3028 101.891 64.3394 101.503C63.3761 101.116 62.2202 100.922 61.0642 100.922H54.8991V101.116ZM95.3578 136.576C93.2385 136.576 91.3119 136.19 89.1927 135.413C87.2661 134.638 85.3394 133.475 83.7982 132.121C82.2569 130.568 80.9083 128.824 79.945 126.693C78.9816 124.561 78.4037 122.042 78.4037 119.329C78.4037 116.616 78.789 114.097 79.7523 111.965C80.7156 109.834 82.0642 108.09 83.6055 106.54C85.1468 104.989 87.0734 104.02 89 103.245C91.1193 102.47 93.0459 102.083 95.3578 102.083C97.6697 102.083 99.789 102.47 101.523 103.245C103.45 104.02 104.991 105.183 106.339 106.54V102.083H114.239V136.574H106.339V131.729C105.183 133.281 103.45 134.442 101.523 135.411C99.5963 136.19 97.6697 136.576 95.3578 136.576ZM96.7064 129.408C98.2477 129.408 99.5963 129.214 100.752 128.632C101.908 128.051 103.064 127.47 104.028 126.501C104.991 125.532 105.569 124.563 106.147 123.4C106.725 122.234 106.917 120.879 106.917 119.525C106.917 118.166 106.725 116.81 106.147 115.649C105.569 114.486 104.991 113.324 104.028 112.549C103.064 111.58 102.101 110.998 100.752 110.417C99.4037 109.642 98.055 109.448 96.7064 109.448C95.3578 109.448 94.0092 109.642 92.6606 110.223C91.3119 110.805 90.3486 111.386 89.3853 112.355C88.422 113.324 87.6514 114.293 87.2661 115.455C86.6881 116.618 86.4954 117.975 86.4954 119.331C86.4954 120.687 86.6881 122.042 87.2661 123.205C87.844 124.371 88.6147 125.532 89.3853 126.501C90.3486 127.47 91.5046 128.049 92.6606 128.632C93.8165 129.018 95.1651 129.408 96.7064 129.408ZM125.22 102.276L134.853 125.724L143.716 102.276H152L131.771 152.272H123.679L130.807 135.027L116.936 102.276H125.22Z" fill="white"/>
<path d="M150.548 68.7662V47.771H145.586L145.851 64.4134H145.784L141.153 47.771H133.743V68.7662H138.639L138.374 51.4926H138.507L143.403 68.7662H150.548Z" fill="#6F9DE4"/>
<path d="M51.4367 47.771L47.7316 68.9776H53.0907L55.8696 49.6669H55.9357L58.6484 68.9776H64.0076L60.3025 47.771H51.4367Z" fill="#6F9DE4"/>
<path d="M90.2741 68.9776L89.811 47.771H81.673L79.1588 63.9921H79.0926L76.6446 47.771H68.4404L67.9773 68.9776H73.0057L73.138 49.8775H73.2703L76.5784 68.9776H81.673L84.9811 49.8775H85.1134L85.2457 68.9776H90.2741Z" fill="#6F9DE4"/>
<path d="M123.025 64.2021C122.958 64.7645 122.496 65.7476 121.106 65.7476C119.716 65.7476 119.319 64.7645 119.253 64.3432C119.186 64.0623 119.186 63.7807 119.186 63.4999V47.7717H114.092V63.009C114.092 63.4304 114.158 64.2021 114.158 64.4134C114.489 68.4151 117.4 69.6798 121.105 69.6798C124.811 69.6798 127.788 68.3456 128.119 64.4134C128.119 64.2021 128.185 63.4304 128.185 63.009V47.7717H123.091V63.3601C123.091 63.641 123.091 63.9921 123.025 64.2021Z" fill="#6F9DE4"/>
<path d="M39.3289 64.4829C39.3951 64.1318 39.4612 63.4297 39.2628 62.9388C38.2703 60.2003 31.1248 59.0059 30.3308 54.5836C30.1323 53.4601 30.1323 52.6175 30.2646 51.7046C30.7939 48.2639 33.7051 47 37.2779 47C40.1229 47 44.0265 47.7022 44.0265 52.3366V53.8112H39.0643V52.477C39.0643 51.3535 38.4026 50.5811 37.2117 50.5811C35.9546 50.5811 35.4915 51.2833 35.3592 51.9855C35.293 52.2664 35.293 52.6877 35.3592 53.109C35.8885 55.6361 43.4972 56.971 44.3573 61.394C44.4234 61.8863 44.6219 63.0793 44.3573 64.9049C43.8941 68.4159 40.9168 69.75 37.2779 69.75C33.5066 69.75 30 68.3456 30 63.5701V61.9558H35.3592V63.9921C35.3592 65.1149 36.087 65.8873 37.344 65.8873C38.7335 65.8873 39.1304 65.1851 39.3289 64.4829Z" fill="#6F9DE4"/>
<path d="M104.367 64.4829C104.433 64.0623 104.499 63.4297 104.301 62.9388C103.308 60.2003 96.2949 59.0059 95.5678 54.7233C95.3031 53.67 95.3693 52.8274 95.5016 51.9146C96.0309 48.4739 98.9421 47.2802 102.449 47.2802C105.227 47.2802 109.131 47.9824 109.131 52.5465V54.0211H104.169V52.687C104.169 51.5635 103.507 50.7911 102.316 50.7911C101.125 50.7911 100.662 51.4933 100.53 52.1954C100.464 52.4763 100.398 52.8976 100.53 53.3189C101.059 55.7766 108.535 57.0405 109.395 61.4635L109.398 61.4833C109.468 61.922 109.656 63.1063 109.395 64.9042C108.932 68.4151 105.955 69.6798 102.382 69.6798C98.6767 69.6798 95.1701 68.2754 95.1701 63.5701V61.9558H100.463V63.9921C100.463 65.1149 101.191 65.8873 102.448 65.8873C103.771 65.8873 104.234 65.1851 104.367 64.4829Z" fill="#6F9DE4"/>
<path d="M164.905 63.9921C164.773 64.5532 164.309 65.5362 162.854 65.5362C161.399 65.5362 160.87 64.6234 160.87 63.9205C160.803 63.7105 160.803 63.429 160.803 63.1481V53.4587C160.803 53.1076 160.803 52.7565 160.87 52.4756C161.001 51.9841 161.399 50.9308 162.854 50.9308C164.376 50.9308 164.772 51.9841 164.839 52.4756C164.905 52.8267 164.905 53.3182 164.905 53.3182V54.5119H169.934V53.8098C169.934 53.8098 169.934 53.0374 169.868 52.4054C169.537 48.403 166.427 47.139 162.854 47.139C159.281 47.139 156.304 48.403 155.841 52.4054C155.841 52.7565 155.774 53.4587 155.774 53.8098V62.7275C155.774 63.1488 155.774 63.4297 155.841 64.1318C156.171 67.9938 159.347 69.3982 162.854 69.3982C166.427 69.3982 169.602 67.9938 169.933 64.1318C170 63.4297 170 63.1488 170 62.7275V57.0398H162.921V60.1301H164.972V63.2183V63.2184C164.972 63.4298 164.972 63.7808 164.905 63.9921Z" fill="#6F9DE4"/>
</svg>
