<svg width="40" height="40" viewBox="0 0 40 40" fill="none" xmlns="http://www.w3.org/2000/svg">
<rect width="40" height="40" rx="8" fill="white"/>
<path d="M29.0201 24.322C26.6193 23.6751 23.4437 23.2812 19.9609 23.2812C16.5115 23.2812 13.3637 23.6676 10.9713 24.3036C12.5799 27.6723 16.0179 29.9999 19.9999 29.9999C23.9747 29.9999 27.4077 27.6808 29.0201 24.322Z" fill="#1273B8"/>
<path d="M19.9609 23.2812C23.4437 23.2812 26.6193 23.675 29.0201 24.322C29.648 23.0139 30 21.548 30 19.9999C30 14.4771 25.5227 10 19.9999 10C14.4771 10 10 14.4771 10 19.9999C10 21.5408 10.3489 23 10.9712 24.3035C13.3637 23.6677 16.5115 23.2812 19.9609 23.2812Z" fill="#009CDB"/>
<path d="M19.9968 23.3594C23.4796 23.3594 26.6552 23.7532 29.056 24.4001C29.1583 24.1865 29.2529 23.9692 29.3396 23.7488C27.7169 21.26 24.1441 19.5312 19.9968 19.5312C15.8907 19.5312 12.348 21.2259 10.7032 23.675C10.7954 23.9144 10.8968 24.1502 11.0072 24.3817C13.3997 23.7458 16.5473 23.3594 19.9968 23.3594Z" fill="#F9FDFE"/>
</svg>
