<svg width="200" height="200" viewBox="0 0 200 200" fill="none" xmlns="http://www.w3.org/2000/svg">
<rect x="0.5" y="0.5" width="199" height="199" rx="39.5" fill="white"/>
<rect x="0.5" y="0.5" width="199" height="199" rx="39.5" stroke="#EEEEEE"/>
<path d="M101.976 50C124.373 50 142.521 65.0184 142.521 83.5736C142.521 102.129 124.373 113.389 101.976 113.389C79.8926 112.943 64.5162 105.745 55.7979 91.7967C60.493 65.3322 75.9137 51.428 101.976 50ZM100.455 70.8763C87.5809 72.1716 79.7114 78.2992 76.8067 89.2502C80.7415 92.6942 88.6065 94.6129 100.455 95.0153C112.348 94.8384 119.541 91.3502 119.678 83.3039C118.917 74.4087 110.292 70.5182 100.455 70.8763Z" fill="black"/>
<path d="M54.1001 100.604C60.714 119.645 79.0438 130.242 97.8642 130.242C113.466 130.242 123.838 123.491 129.245 113.301L146.726 124.252C140.647 139.182 122.543 150 101.22 150C74.8438 150 52.2698 132.254 54.1046 101.364V100.604H54.1001Z" fill="#00C252"/>
</svg>
