<svg width="200" height="200" viewBox="0 0 200 200" fill="none" xmlns="http://www.w3.org/2000/svg">
<rect x="0.5" y="0.5" width="199" height="199" rx="39.5" fill="white"/>
<rect x="0.5" y="0.5" width="199" height="199" rx="39.5" stroke="#EEEEEE"/>
<path d="M96.7586 136.763C95.0878 138.086 93.4929 139.516 91.7334 140.706C85.1893 145.136 77.6831 147.124 70.1136 148.807C60.6793 150.953 50.8165 150.191 41.8231 146.624C40.1459 145.991 38.2472 145.238 38.0257 143.206C37.7599 141.054 39.608 139.997 41.1206 138.953C43.2598 137.485 45.6964 136.58 48.0382 135.491C55.2005 132.266 61.333 127.126 65.7593 120.637C68.7846 116.169 69.5567 111.143 69.4428 105.859C69.2845 97.8842 69.2909 89.9033 69.2592 81.9288C69.2255 73.2201 69.2128 64.5114 69.2213 55.8027C69.2213 51.1699 72.3857 48.9041 76.7591 50.518C83.5023 53.0582 89.7326 56.7929 95.1511 61.5431C95.4928 61.8343 95.8536 62.0938 96.208 62.3722C98.2143 63.3849 99.6003 65.1317 100.999 66.7646C107.17 73.9986 111.334 82.2389 112.904 91.6691C114.575 101.726 112.872 111.289 108.676 120.536C106.204 125.834 102.946 130.729 99.0117 135.054C98.3599 135.757 97.7839 136.567 96.7586 136.763Z" fill="#FEC50A"/>
<path d="M96.7586 136.763C101.353 132.003 105.322 126.788 108.056 120.732C116.492 102.042 114.271 84.612 101.784 68.4224C100.1 66.2326 97.9864 64.4162 96.1826 62.3719C99.5053 60.0745 102.879 57.8467 106.372 55.8087C111.942 52.562 118.062 51.2519 124.347 50.5747C131.72 49.7835 139.049 49.9797 146.213 52.1632C151.175 53.6695 155.491 56.4037 159.574 59.4985C161.7 61.1061 161.472 61.9225 159.023 62.9035C144.587 68.6566 135.536 79.188 132.15 94.27C130.049 103.637 132.922 112.206 137.701 120.314C142.479 128.421 149.903 133.193 158.251 136.731C160.865 137.832 161.757 139.605 158.808 141.687C154.966 144.415 150.58 146.079 146.106 147.383C127.783 152.598 111.233 149.497 96.7586 136.763Z" fill="#ED2327"/>
</svg>
