<svg width="200" height="133" viewBox="0 0 200 133" fill="none" xmlns="http://www.w3.org/2000/svg">
<rect width="200" height="133" rx="20" fill="#016FD0"/>
<path d="M118.325 119.188V73.6582H166.714L171.906 80.4009L177.269 73.6582H200V83.2536L189.091 95.9809L200 108.708V119.188H176.859L171.674 112.301L166.411 119.188L118.325 119.188Z" fill="white"/>
<path d="M100 59.5293L120.003 14H138.874L145.066 28.1967V14H168.525L172.211 24.261L175.785 14H200V59.5296H136.078L133.18 52.3526H125.45L122.573 59.5293H109.091H100Z" fill="white"/>
<path d="M124.179 113.383V79.292H152.094V86.9176H132.823V92.7491H151.644V99.9261H132.823V105.982H152.094V113.383H124.179ZM153.178 113.383L166.77 96.548L152.854 79.292H163.632L171.92 89.9594L180.236 79.292H190.592L176.859 96.3375L190.476 113.383H179.7L171.653 102.884L163.801 113.383H153.178Z" fill="#016FD0"/>
<path d="M150.74 19.7959V53.8869H159.295V28.7672L168.388 53.8869H175.891L184.959 28.7672V53.8869H193.514V19.7959H180.006L172.276 41.8261L164.356 19.8462L150.74 19.7959Z" fill="#016FD0"/>
<path fill-rule="evenodd" clip-rule="evenodd" d="M123.865 19.8017L109.147 53.8927H118.73L121.445 47.066H137.232L139.934 53.8927H149.727L135.023 19.8017H123.865ZM134.122 39.6648L129.31 27.7355L124.484 39.6648H134.122Z" fill="#016FD0"/>
</svg>
