<svg width="200" height="133" viewBox="0 0 200 133" fill="none" xmlns="http://www.w3.org/2000/svg">
<rect x="0.5" y="0.5" width="199" height="132" rx="19.5" fill="white"/>
<rect x="0.5" y="0.5" width="199" height="132" rx="19.5" stroke="#EEEEEE"/>
<path d="M164.875 95.8413C164.875 106.952 155.825 116 144.711 116H35V36.1587C35 25.0476 44.05 16 55.164 16H164.875V95.8413Z" fill="white"/>
<path d="M129.151 75.3651H137.487C137.725 75.3651 138.281 75.2858 138.519 75.2858C140.107 74.9683 141.456 73.5397 141.456 71.5556C141.456 69.6509 140.107 68.2223 138.519 67.8255C138.281 67.7461 137.804 67.7461 137.487 67.7461H129.151V75.3651Z" fill="url(#paint0_linear_728_19)"/>
<path d="M136.535 22.7471C128.597 22.7471 122.087 29.1756 122.087 37.1915V52.1915H142.489C142.966 52.1915 143.521 52.1915 143.918 52.2709C148.523 52.509 151.936 54.8899 151.936 59.0169C151.936 62.2709 149.634 65.0487 145.347 65.6042V65.7629C150.031 66.0804 153.603 68.6994 153.603 72.7471C153.603 77.1121 149.634 79.9693 144.395 79.9693H122.008V109.334H143.204C151.142 109.334 157.652 102.906 157.652 94.8899V22.7471H136.535Z" fill="url(#paint1_linear_728_19)"/>
<path d="M140.424 59.9686C140.424 58.0639 139.075 56.794 137.487 56.5559C137.328 56.5559 136.931 56.4766 136.693 56.4766H129.151V63.4607H136.693C136.931 63.4607 137.408 63.4607 137.487 63.3813C139.075 63.1432 140.424 61.8734 140.424 59.9686Z" fill="url(#paint2_linear_728_19)"/>
<path d="M56.6712 22.7471C48.7326 22.7471 42.2229 29.1756 42.2229 37.1915V72.8264C46.2716 74.8106 50.4791 76.0804 54.6865 76.0804C59.6879 76.0804 62.387 73.0645 62.387 68.9375V52.1122H74.7712V68.8582C74.7712 75.3661 70.7225 80.6836 56.9887 80.6836C48.6532 80.6836 42.1436 78.8582 42.1436 78.8582V109.255H63.3396C71.2782 109.255 77.7878 102.826 77.7878 94.8106V22.7471H56.6712Z" fill="url(#paint3_linear_728_19)"/>
<path d="M96.6025 22.7471C88.6639 22.7471 82.1543 29.1756 82.1543 37.1915V56.0804C85.8061 52.9852 92.1569 51.001 102.398 51.4772C107.875 51.7153 113.75 53.2233 113.75 53.2233V59.3344C110.813 57.8264 107.32 56.4772 102.795 56.1598C95.0148 55.6042 90.331 59.4137 90.331 66.0804C90.331 72.8264 95.0148 76.636 102.795 76.0011C107.32 75.6836 110.813 74.255 113.75 72.8264V78.9376C113.75 78.9376 107.955 80.4455 102.398 80.6836C92.1569 81.1598 85.8061 79.1756 82.1543 76.0804V109.414H103.35C111.289 109.414 117.799 102.985 117.799 94.9693V22.7471H96.6025Z" fill="url(#paint4_linear_728_19)"/>
<defs>
<linearGradient id="paint0_linear_728_19" x1="122.073" y1="71.5651" x2="157.747" y2="71.5651" gradientUnits="userSpaceOnUse">
<stop stop-color="#007940"/>
<stop offset="0.229" stop-color="#00873F"/>
<stop offset="0.743" stop-color="#40A737"/>
<stop offset="1" stop-color="#5CB531"/>
</linearGradient>
<linearGradient id="paint1_linear_728_19" x1="122.073" y1="66.0058" x2="157.75" y2="66.0058" gradientUnits="userSpaceOnUse">
<stop stop-color="#007940"/>
<stop offset="0.229" stop-color="#00873F"/>
<stop offset="0.743" stop-color="#40A737"/>
<stop offset="1" stop-color="#5CB531"/>
</linearGradient>
<linearGradient id="paint2_linear_728_19" x1="122.072" y1="59.9583" x2="157.747" y2="59.9583" gradientUnits="userSpaceOnUse">
<stop stop-color="#007940"/>
<stop offset="0.229" stop-color="#00873F"/>
<stop offset="0.743" stop-color="#40A737"/>
<stop offset="1" stop-color="#5CB531"/>
</linearGradient>
<linearGradient id="paint3_linear_728_19" x1="42.2063" y1="66.0058" x2="78.4325" y2="66.0058" gradientUnits="userSpaceOnUse">
<stop stop-color="#1F286F"/>
<stop offset="0.475" stop-color="#004E94"/>
<stop offset="0.826" stop-color="#0066B1"/>
<stop offset="1" stop-color="#006FBC"/>
</linearGradient>
<linearGradient id="paint4_linear_728_19" x1="81.9487" y1="66.0058" x2="117.133" y2="66.0058" gradientUnits="userSpaceOnUse">
<stop stop-color="#6C2C2F"/>
<stop offset="0.173" stop-color="#882730"/>
<stop offset="0.573" stop-color="#BE1833"/>
<stop offset="0.859" stop-color="#DC0436"/>
<stop offset="1" stop-color="#E60039"/>
</linearGradient>
</defs>
</svg>
