<svg width="200" height="133" viewBox="0 0 200 133" fill="none" xmlns="http://www.w3.org/2000/svg">
<rect width="200" height="133" rx="20" fill="#FAE100"/>
<path d="M57.3482 80.4197C57.3388 80.2697 57.3341 80.0962 57.3341 79.9227C57.3341 77.4095 58.4876 75.1637 60.2929 73.6914L60.307 73.682C62.4593 72.2098 65.1226 71.3283 67.9876 71.3283C68.3112 71.3283 68.6347 71.3377 68.9536 71.3611H68.9114H74.5617V69.495C74.5617 64.9845 72.572 62.7293 68.5925 62.7293C67.1577 62.7386 65.7744 62.9356 64.4568 63.2872L64.5693 63.2591C63.0782 63.6342 61.7887 64.089 60.5602 64.6516L60.7056 64.5907L59.266 61.1257C60.6212 60.3521 62.192 59.705 63.8425 59.2643L63.9832 59.2315C65.4602 58.8189 67.153 58.5751 68.902 58.5657H68.9067C75.8027 58.5657 79.2492 62.2432 79.246 69.5982V88.2498H75.6214L75.0353 85.0521C73.6989 86.1446 72.1562 87.0636 70.4916 87.7294L70.3744 87.7716C68.9817 88.353 67.364 88.7046 65.6666 88.7327H65.6572C65.4509 88.7515 65.2117 88.7656 64.9726 88.7656C60.7431 88.7656 57.3107 85.3381 57.3107 81.1042C57.3107 80.8651 57.3201 80.626 57.3435 80.3916V80.4197H57.3482ZM66.5528 84.7896C67.2984 84.7849 68.0205 84.6864 68.7098 84.5082L68.6488 84.5223C69.5116 84.3113 70.2337 84.0722 70.9371 83.7909L70.8245 83.8331C71.6123 83.5236 72.2828 83.1766 72.9158 82.764L72.8689 82.7922C73.5067 82.3842 74.0647 81.9529 74.5758 81.4793L74.5664 81.4887V74.6667H69.4694C69.2443 74.6479 68.9864 74.6385 68.7238 74.6385C66.9139 74.6385 65.2211 75.1449 63.7769 76.0264L63.8191 76.0029C62.7218 76.9125 62.0279 78.277 62.0279 79.8008C62.0279 79.9461 62.0326 80.0868 62.0466 80.2321V80.2134C62.0185 80.3916 61.9997 80.6026 61.9997 80.8135C61.9997 83.0313 63.8003 84.8317 66.0182 84.8317C66.2058 84.8317 66.3934 84.8177 66.5762 84.7942L66.5528 84.7896ZM92.8818 88.2545H87.9771V47.0643L92.8818 46V88.2545ZM105.992 58.3594L109.833 61.1304L100.403 72.96L111.324 86.0696L107.54 89L94.6449 73.2226L105.992 58.3594ZM115.661 80.4197C115.652 80.2697 115.647 80.1009 115.647 79.9227C115.647 77.4095 116.801 75.1637 118.606 73.6867L118.62 73.6774C120.777 72.2051 123.436 71.3236 126.305 71.3236C126.629 71.3236 126.952 71.333 127.271 71.3564H127.229H132.879V69.4903C132.879 64.9798 130.89 62.7246 126.91 62.7246C125.475 62.7339 124.087 62.9309 122.77 63.2825L122.882 63.2544C121.391 63.6295 120.106 64.0843 118.878 64.6469L119.019 64.5907L117.579 61.1257C118.934 60.3568 120.5 59.7097 122.156 59.2643L122.296 59.2315C123.773 58.8189 125.471 58.5751 127.22 58.5657C134.109 58.5657 137.561 62.2432 137.564 69.5982V88.2498H133.939L133.353 85.0521C132.017 86.1446 130.474 87.0636 128.805 87.7294L128.687 87.7716C127.295 88.353 125.677 88.7046 123.984 88.7327H123.975C123.769 88.7515 123.529 88.7656 123.286 88.7656C119.056 88.7656 115.628 85.3381 115.628 81.1089C115.628 80.8651 115.638 80.626 115.661 80.3916V80.4197ZM124.866 84.7896C125.611 84.7849 126.333 84.6864 127.023 84.5082L126.962 84.5223C127.825 84.3113 128.547 84.0722 129.25 83.7909L129.138 83.8331C129.925 83.5236 130.596 83.172 131.229 82.764L131.182 82.7922C131.82 82.3842 132.373 81.9529 132.889 81.4793L132.879 81.4887V74.6667H127.787C127.562 74.6479 127.299 74.6385 127.037 74.6385C125.227 74.6385 123.534 75.1449 122.095 76.0264L122.137 76.0029C121.04 76.9125 120.341 78.2723 120.341 79.7961C120.341 79.9414 120.346 80.0868 120.36 80.2275V80.2087C120.331 80.3869 120.313 80.5979 120.313 80.8089C120.313 83.0266 122.113 84.8271 124.331 84.8271C124.519 84.8271 124.706 84.813 124.889 84.7896H124.866ZM157.291 58.6266C157.473 58.6173 157.689 58.6126 157.905 58.6126C161.44 58.6126 164.62 60.1364 166.819 62.5605L166.828 62.5698C169.013 65.3549 170.331 68.9043 170.331 72.7677C170.331 73.1569 170.317 73.5414 170.293 73.9212L170.298 73.8696C170.321 74.1931 170.335 74.5682 170.335 74.9527C170.335 78.7646 169.027 82.267 166.833 85.0427L166.861 85.0099C164.399 87.4152 161.028 88.8968 157.309 88.8968C153.591 88.8968 150.219 87.4152 147.753 85.0052L147.758 85.0099C145.577 82.2717 144.255 78.7646 144.255 74.948C144.255 74.5682 144.269 74.1931 144.293 73.8227L144.288 73.8743C144.264 73.5461 144.25 73.1616 144.25 72.7771C144.25 68.9136 145.577 65.3549 147.805 62.5417L147.776 62.5745C149.99 60.1411 153.174 58.6173 156.709 58.6173C156.915 58.6173 157.117 58.622 157.319 58.6313H157.291V58.6266ZM157.291 62.5698C157.192 62.5652 157.075 62.5605 156.958 62.5605C154.669 62.5605 152.644 63.6904 151.415 65.4253L151.401 65.4487C150.093 67.5774 149.314 70.1561 149.314 72.9178C149.314 73.2507 149.324 73.5836 149.347 73.9118L149.343 73.8696C149.324 74.1556 149.31 74.4885 149.31 74.8261C149.31 77.5408 150.088 80.0727 151.429 82.2155L151.396 82.1592C152.812 83.8753 154.937 84.9583 157.314 84.9583C159.691 84.9583 161.815 83.8753 163.217 82.1733L163.227 82.1592C164.535 80.0727 165.309 77.5408 165.309 74.8261C165.309 74.4885 165.295 74.1556 165.271 73.8274L165.276 73.8696C165.295 73.5836 165.309 73.2554 165.309 72.9225C165.309 70.1608 164.535 67.5821 163.189 65.3877L163.227 65.4487C161.97 63.6904 159.935 62.5605 157.638 62.5605C157.511 62.5605 157.389 62.5652 157.267 62.5698H157.291ZM34.5688 88.2545H29.6641V47.0643L34.5688 46V88.2545ZM47.6794 58.3594L51.5197 61.1304L42.0853 72.96L53.0108 86.0696L49.2268 89L36.3319 73.2226L47.6794 58.3594Z" fill="black"/>
</svg>
