<svg width="200" height="133" viewBox="0 0 200 133" fill="none" xmlns="http://www.w3.org/2000/svg">
<rect width="200" height="133" rx="20" fill="black"/>
<path d="M80.9925 98C98.6615 98 112.985 83.6731 112.985 66C112.985 48.3269 98.6615 34 80.9925 34C63.3235 34 49 48.3269 49 66C49 83.6731 63.3235 98 80.9925 98Z" fill="#EB001B"/>
<path d="M119.635 98C137.304 98 151.628 83.6731 151.628 66C151.628 48.3269 137.304 34 119.635 34C101.966 34 87.6426 48.3269 87.6426 66C87.6426 83.6731 101.966 98 119.635 98Z" fill="#F79E1B"/>
<path d="M100.306 40.4453C108.009 46.2838 112.969 55.536 112.969 65.9368C112.969 76.3376 108.009 85.6058 100.306 91.4443C92.6025 85.6058 87.6426 76.3536 87.6426 65.9368C87.6426 55.5201 92.6185 46.2838 100.306 40.4453Z" fill="#FF5F00"/>
</svg>
