<svg width="200" height="133" viewBox="0 0 200 133" fill="none" xmlns="http://www.w3.org/2000/svg">
<rect x="0.5" y="0.5" width="199" height="132" rx="19.5" fill="white"/>
<rect x="0.5" y="0.5" width="199" height="132" rx="19.5" stroke="#EEEEEE"/>
<path d="M61.0323 26H93.0124C97.4956 26 100.185 29.5888 99.1394 34.0748L84.3449 97.9252C83.2988 102.411 78.8156 106 74.3324 106H42.3524C37.8692 106 35.1792 102.411 36.2253 97.9252L51.1693 34.0748C52.2154 29.5888 56.6985 26 61.1817 26" fill="#ED171F"/>
<path d="M90.3223 26H127.084C131.568 26 129.476 29.5888 128.429 34.0748L113.635 97.9252C112.589 102.411 112.888 106 108.405 106H71.6424C67.1592 106 64.4693 102.411 65.5154 97.9252L80.3099 34.0748C81.356 29.5888 85.8392 26 90.3223 26Z" fill="#082F67"/>
<path d="M125.591 26H157.571C162.054 26 164.744 29.5888 163.698 34.0748L148.903 97.9252C147.857 102.411 143.374 106 138.891 106H106.911C102.428 106 99.7378 102.411 100.784 97.9252L115.578 34.0748C116.625 29.5888 121.108 26 125.591 26Z" fill="#006A65"/>
<path fill-rule="evenodd" clip-rule="evenodd" d="M120.21 85.9624H123.199L124.095 83.1213H121.107L120.21 85.9624ZM122.601 78.0372L121.555 81.4764C121.555 81.4764 122.75 80.8783 123.348 80.7288C123.946 80.7288 124.843 80.4297 124.843 80.4297L125.59 78.0372H122.601ZM124.095 73.1026L123.049 76.3923C123.049 76.3923 124.095 75.9437 124.843 75.7942C125.44 75.6447 126.337 75.6447 126.337 75.6447L127.084 73.2521H124.095V73.1026ZM130.82 73.1026L126.935 85.9624H127.981L127.234 88.654H126.187L125.889 89.5512H122.153L122.451 88.654H114.979L115.727 86.2615H116.474L120.359 73.2521L121.107 70.5605H124.843L124.394 71.9064C124.394 71.9064 125.44 71.1587 126.337 70.8596C127.234 70.5606 132.763 70.5605 132.763 70.5605L132.016 73.2521H130.671L130.82 73.1026Z" fill="white"/>
<path d="M132.464 70.5616H136.499V72.057C136.499 72.356 136.798 72.356 137.246 72.356H137.993L137.246 74.8981H135.004C133.062 74.8981 132.464 74.1504 132.464 73.2532V70.4121V70.5616Z" fill="white"/>
<path d="M133.061 82.2231H129.175L129.773 79.9801H134.107L134.704 78.0362H130.371L131.118 75.4941H143.222L142.475 78.0362H138.44L137.843 79.9801H141.878L141.28 82.2231H136.946L136.199 83.1203H137.992L138.44 85.9614C138.44 86.2605 138.44 86.41 138.44 86.5596C138.44 86.5596 139.038 86.7091 139.337 86.7091H139.935L139.188 89.4007H137.843C137.693 89.4007 137.245 89.4007 136.946 89.4007C136.498 89.4007 136.199 89.1016 135.9 88.9521C135.601 88.9521 135.302 88.5035 135.153 88.0549L134.704 85.2138L132.762 87.9054C132.164 88.8026 131.267 89.4007 129.773 89.4007H126.934L127.681 87.0082H128.727C129.026 87.0082 129.325 87.0082 129.474 86.7091C129.624 86.7091 129.922 86.5596 130.072 86.2605L132.911 82.2231H133.061Z" fill="white"/>
<path d="M90.9203 76.2422H101.082L100.335 78.6347H96.3001L95.7024 80.7282H99.8866L99.1394 83.2702H94.9552L93.9091 86.7095C93.9091 87.0085 94.9552 87.1581 95.2541 87.1581L97.3462 86.859L96.4496 89.7001H91.8169C91.518 89.7001 91.2192 89.7001 90.7709 89.7001C90.3225 89.7001 90.1731 89.4011 90.0237 89.102C89.8742 88.8029 89.5753 88.6534 89.7248 88.0553L91.0697 83.5693H88.8281L89.5753 81.0272H91.9664L92.5641 78.9338H90.3225L91.0697 76.5412L90.9203 76.2422Z" fill="white"/>
<path d="M97.7952 71.9072H101.98L101.232 74.4493H95.5536L94.9558 75.0474C94.657 75.3464 94.657 75.1969 94.2086 75.3465C93.9098 75.496 93.1626 75.795 92.2659 75.795H90.4727L91.2199 73.4025H91.8176C92.2659 73.4025 92.5648 73.4025 92.7143 73.4025C92.8637 73.4025 93.1626 73.1035 93.312 72.6549L94.3581 70.7109H98.5424L97.7952 72.0567V71.9072Z" fill="white"/>
<path fill-rule="evenodd" clip-rule="evenodd" d="M105.715 76.0933C105.715 76.0933 106.911 75.0465 108.853 74.7475C109.302 74.7475 112.141 74.7475 112.141 74.7475L112.589 73.4017H106.761L105.864 76.2428L105.715 76.0933ZM111.244 77.14H105.416L105.117 78.3363H110.198C110.796 78.3363 110.945 78.3363 110.945 78.3363L111.394 77.14H111.244ZM103.772 70.5605H107.359L106.911 72.355C106.911 72.355 107.957 71.4578 108.853 71.1587C109.6 70.8596 111.394 70.5605 111.394 70.5605H117.072L115.13 76.9905C114.831 78.0372 114.383 78.7849 114.233 79.2334C114.084 79.5325 113.785 79.8316 113.187 80.1307C112.739 80.4297 112.29 80.5793 111.842 80.5793C111.394 80.5793 110.945 80.5793 110.049 80.5793H104.52L103.025 85.8129C103.025 86.2615 102.876 86.5606 103.025 86.7101C103.025 86.7101 103.324 87.0091 103.623 87.0091L106.014 86.7101L105.117 89.5512H102.427C101.531 89.5512 100.933 89.5512 100.485 89.5512C100.036 89.5512 99.588 89.5512 99.2892 89.2521C98.9903 88.9531 98.6914 88.8035 98.6914 88.5045C98.6914 88.2054 98.6914 87.7568 98.9903 87.1587L103.922 70.5605H103.772Z" fill="white"/>
<path d="M114.083 81.0283L113.785 82.5236C113.785 82.9722 113.486 83.4208 113.187 83.7199C112.738 84.019 112.29 84.3181 111.244 84.3181H109.301V86.1124C109.301 86.561 109.301 86.561 109.451 86.7106C109.451 86.7106 109.6 86.7106 109.75 86.8601H110.347H112.29L111.543 89.4022H109.451C107.956 89.4022 106.761 89.4022 106.462 89.1031C106.163 88.804 106.014 88.6545 106.014 88.0564V81.1779H109.6V82.5236H110.347C110.646 82.5236 110.796 82.5236 110.945 82.5236C110.945 82.5236 111.095 82.3741 111.244 82.2246L111.543 81.1779H114.233L114.083 81.0283Z" fill="white"/>
<path d="M64.7681 46.3359C64.7681 46.9341 62.3771 57.1023 62.3771 57.1023C61.9287 59.1957 61.6298 60.6911 60.4343 61.5883C59.8366 62.1864 58.9399 62.3359 58.0433 62.3359C56.5489 62.3359 55.8017 61.5883 55.6523 60.2425V59.7939L56.1006 56.9528C56.1006 56.9528 58.4916 47.6817 58.7905 46.3359C54.3073 46.3359 53.4107 46.3359 53.4107 46.3359V46.9341L51.0196 57.4014V58.2986C50.8702 58.2986 50.4219 61.1397 50.4219 61.1397C50.4219 62.0369 50.5713 62.635 50.8702 63.2331C51.9163 65.1771 55.0545 65.4761 56.8478 65.4761C58.6411 65.4761 61.1815 65.0275 62.6759 64.1303C65.2164 62.635 65.8141 60.392 66.4119 58.2986L66.7108 57.2518C66.7108 57.2518 69.1018 47.5322 69.5501 46.3359C66.2625 46.3359 65.3658 46.3359 64.9175 46.3359" fill="white"/>
<path d="M78.0692 65.6264C76.4253 65.6264 75.8276 65.6264 74.0343 65.6264C74.1837 64.7292 74.3332 64.1311 74.4826 63.3835L74.7815 62.3367C75.0804 60.8414 75.5287 59.047 75.5287 58.4489C75.5287 58.1498 75.5287 57.2526 74.7815 57.2526C74.0343 57.2526 74.0343 57.4021 73.586 57.7012C73.2871 58.4489 72.8388 60.8414 72.6893 61.8881C72.241 64.1311 72.241 64.2806 71.9421 65.3274C70.2983 65.3274 69.7005 65.3274 67.7578 65.4769C68.0567 63.9816 68.3556 62.7853 68.6545 61.4395C69.4017 57.8507 69.7006 56.5049 69.85 54.8601C71.6433 54.561 72.0916 54.4115 74.1837 53.9629H74.3332C74.3332 54.1124 74.0343 55.3087 74.0343 55.3087C74.3332 55.1591 74.6321 54.8601 75.0804 54.7106C75.977 54.262 77.0231 54.1124 77.6208 54.1124C78.5175 54.1124 79.4141 54.4115 79.8624 55.3087C80.3107 56.2059 79.8625 57.4021 79.5636 59.4956L79.2647 60.5423C78.8164 62.9348 78.6669 63.3835 78.368 65.1778H78.2186L78.0692 65.6264Z" fill="white"/>
<path d="M84.6433 65.6274C83.7467 65.6274 82.9995 65.6274 82.4017 65.6274C81.804 65.6274 81.2062 65.6274 80.3096 65.6274V65.4778C80.6084 64.5806 80.7579 64.2816 80.7579 63.833C80.7579 63.5339 81.0567 63.2348 81.2062 62.1881C81.5051 60.9918 81.6545 60.0946 81.804 59.347C81.804 58.5993 81.9534 58.0012 82.1028 57.2535C82.9995 57.2535 83.7467 56.9545 84.3444 56.9545C84.9422 56.9545 85.5399 56.8049 86.586 56.5059V56.6554C86.4366 57.4031 86.1377 58.1507 85.9883 58.8984C85.8388 59.6461 85.6894 60.3937 85.3905 61.1414C85.0916 62.7862 84.9422 63.3844 84.7928 63.833C84.7928 64.2816 84.7927 64.4311 84.4939 65.3283L84.6433 65.6274Z" fill="white"/>
<path d="M94.806 59.7933C94.806 60.2419 94.3576 61.7372 93.9093 62.4849C93.6104 62.9335 93.1621 63.2326 92.7138 63.2326C92.2655 63.2326 91.8172 63.2326 91.8172 62.0363C91.8172 61.4382 91.8172 60.8401 92.1161 60.2419C92.5644 58.298 93.0127 56.8027 94.3577 56.8027C95.7026 56.8027 95.4037 57.9989 94.9554 59.7933M98.9903 60.0924C99.5881 57.5503 98.9903 56.5036 98.542 55.7559C97.6453 54.7092 96.3004 54.4102 94.6565 54.4102C93.0127 54.4102 91.5183 54.4101 89.8745 56.055C88.679 57.2513 88.0812 58.7466 87.7823 60.2419C87.4835 61.7372 87.0351 64.4288 89.5756 65.4756C90.3228 65.7746 91.5183 65.9242 92.1161 65.9242C93.9093 65.9242 95.8521 65.4756 97.197 63.9802C98.2431 62.784 98.8409 60.9896 98.9903 60.2419" fill="white"/>
<path d="M138.293 65.7746C136.35 65.7746 135.752 65.7746 133.959 65.7746C134.407 63.8307 135.005 61.8868 135.304 60.0924C135.902 57.6999 136.051 56.6531 136.201 55.3073C138.143 54.8587 138.592 54.8588 140.684 54.4102C140.385 56.055 139.937 57.5503 139.638 59.1952C138.89 62.3354 138.592 63.9802 138.293 65.6251H138.143L138.293 65.7746Z" fill="white"/>
<path d="M135.304 60.0933C135.304 60.5419 134.856 62.0372 134.407 62.6354C134.109 63.084 133.361 63.383 132.913 63.383C132.465 63.383 132.016 63.383 132.016 62.1868C132.016 61.5886 132.016 60.9905 132.315 60.3924C132.764 58.598 133.212 56.9531 134.557 56.9531C135.902 56.9531 136.051 58.1494 135.603 59.9438M139.19 60.2428C139.787 57.8503 137.546 60.0933 137.097 59.1961C136.5 57.9998 136.948 55.3082 134.706 54.5606C133.81 54.2615 131.867 54.5606 130.074 56.2054C128.878 57.4017 128.28 58.897 127.982 60.3924C127.683 61.8877 127.234 64.5793 129.775 65.626C130.522 65.9251 131.269 66.0746 132.016 66.0746C134.557 66.0746 136.5 62.1868 137.845 60.6914C138.891 59.4952 139.19 61.14 139.339 60.3924" fill="white"/>
<path d="M109.899 65.6264C108.255 65.6264 107.807 65.6264 105.864 65.6264C106.014 64.7292 106.163 64.1311 106.313 63.3835L106.612 62.3367C106.91 60.8414 107.359 59.047 107.359 58.4489C107.359 58.1498 107.359 57.2526 106.612 57.2526C105.864 57.2526 105.864 57.4021 105.416 57.7012C105.267 58.4489 104.669 60.8414 104.519 61.8881C104.071 64.1311 104.071 64.2806 103.772 65.3274C102.128 65.3274 101.531 65.3274 99.5879 65.4769C99.8868 63.9816 100.186 62.7853 100.485 61.4395C101.232 57.8507 101.531 56.5049 101.68 54.8601H101.829C103.623 54.561 104.071 54.4115 106.163 53.9629H106.313C106.313 54.1124 106.014 55.3087 106.014 55.3087C106.313 55.1591 106.612 54.8601 107.06 54.7106C107.957 54.262 109.003 54.1124 109.6 54.1124C110.497 54.1124 111.394 54.4115 111.842 55.3087C112.29 56.2059 111.842 57.4021 111.394 59.4956L111.095 60.5423C110.497 62.9348 110.497 63.3835 110.198 65.1778H110.049L109.899 65.6264Z" fill="white"/>
<path d="M123.947 46.3359H122.602C119.165 46.3359 117.671 46.3359 117.222 46.3359C117.222 46.635 117.222 47.0836 117.222 47.0836L116.027 52.9154C116.027 52.9154 113.038 65.1771 112.889 65.7752C115.877 65.7752 117.222 65.7752 117.671 65.7752C117.671 65.1771 118.567 61.7378 118.567 61.7378L119.165 59.1958C119.165 59.1958 119.315 58.8967 119.613 58.8967H119.912C122.453 58.8967 125.442 58.8967 127.833 57.2518C129.476 56.0556 130.523 54.4107 130.971 52.3172C130.971 51.8686 131.12 51.121 131.12 50.5229C131.12 49.9247 130.971 48.878 130.523 48.2799C129.327 46.635 126.936 46.635 124.246 46.635M125.591 52.3172C125.292 53.663 124.545 54.7098 123.349 55.1584C122.453 55.607 121.407 55.607 120.211 55.607H119.464V55.3079C119.464 55.3079 120.809 49.4761 120.809 49.6257V49.3266V49.0275H121.407C121.407 49.0275 124.097 49.3266 124.246 49.3266C125.292 49.7752 125.74 50.8219 125.442 52.1677" fill="white"/>
<path d="M154.134 54.4122H153.985C152.042 54.5618 151.594 54.7113 149.8 55.0104C149.8 55.1599 149.8 55.1599 149.8 55.1599C148.455 58.3001 148.455 57.5524 147.409 60.0945C147.409 60.0945 147.409 59.9449 147.409 59.7954L147.11 54.4122H146.961C144.869 54.5618 144.869 54.7113 142.926 55.0104H142.777C142.777 55.1599 142.777 55.3094 142.777 55.3094C143.076 56.5057 142.926 56.3562 143.225 58.1506C143.225 59.0478 143.524 60.0945 143.524 60.9917C143.673 62.487 143.823 63.3842 144.122 65.7767C142.777 67.8702 142.478 68.7674 141.282 70.5618C143.225 70.5618 143.524 70.5618 145.018 70.5618L145.317 70.2627C146.363 68.0197 154.283 54.2627 154.283 54.2627" fill="white"/>
<path d="M86.2867 55.7575C87.3327 55.0098 87.4821 53.9631 86.5855 53.5145C85.6889 52.9163 84.045 53.2154 82.999 53.9631C81.9529 54.7107 81.8034 55.7575 82.7001 56.2061C83.5967 56.6547 85.2406 56.5051 86.2867 55.907" fill="white"/>
<path d="M145.017 70.5605L143.522 73.2521C143.074 74.1493 142.177 74.897 140.683 74.897H138.143L138.89 72.5045H139.338C139.637 72.5045 139.786 72.5045 139.936 72.5045C139.936 72.5045 140.085 72.5045 140.235 72.2054L141.131 70.7101H145.017V70.5605Z" fill="white"/>
</svg>
