<svg width="200" height="133" viewBox="0 0 200 133" fill="none" xmlns="http://www.w3.org/2000/svg">
<rect width="200" height="133" rx="20" fill="#1434CB"/>
<path d="M123.865 40C112.434 40 102.218 45.9065 102.218 56.8191C102.218 69.3338 120.336 70.1981 120.336 76.4852C120.336 79.1324 117.293 81.5021 112.095 81.5021C104.718 81.5021 99.2043 78.191 99.2043 78.191L96.8452 89.2031C96.8452 89.2031 103.197 92 111.629 92C124.128 92 133.962 85.8034 133.962 74.7044C133.962 61.4803 115.769 60.6415 115.769 54.8062C115.769 52.7322 118.267 50.4601 123.45 50.4601C129.298 50.4601 134.069 52.8683 134.069 52.8683L136.378 42.2326C136.378 42.2326 131.187 40 123.865 40ZM19.2769 40.8028L19 42.4082C19 42.4082 23.8094 43.2855 28.1409 45.0358C33.718 47.0426 34.1155 48.211 35.0547 51.8398L45.2901 91.1722H59.011L80.1489 40.8028H66.4595L52.8772 75.0491L47.3349 46.0202C46.8266 42.698 44.2519 40.8028 41.1004 40.8028H19.2769ZM85.6535 40.8028L74.9147 91.172H87.9686L98.6697 40.8026H85.6535V40.8028ZM158.46 40.8028C155.312 40.8028 153.644 42.4827 152.42 45.4183L133.295 91.172H146.985L149.633 83.5463H166.311L167.921 91.172H180L169.462 40.8028H158.46ZM160.24 54.411L164.298 73.312H153.427L160.24 54.411Z" fill="white"/>
</svg>
