<svg width="200" height="200" viewBox="0 0 200 200" fill="none" xmlns="http://www.w3.org/2000/svg">
<rect width="200" height="200" rx="40" fill="#ED1E24"/>
<path fill-rule="evenodd" clip-rule="evenodd" d="M100.001 150C127.615 150 150 127.618 150 100.001C150 77.3685 134.965 58.2494 114.339 52.0861C114.375 52.0651 114.393 52.0547 114.393 52.0547C114.34 52.0547 114.287 52.0548 114.235 52.055C109.724 50.7178 104.946 50 100.001 50C72.3849 50 50 72.3849 50 100.001C50 127.618 72.3849 150 100.001 150ZM114.235 52.055C93.4747 52.1423 75.5822 69.3978 72.0897 91.2217C71.7712 93.2793 72.0897 99.7852 72.0897 99.7852C72.0897 115.197 84.5872 127.694 100.001 127.694C115.419 127.694 127.916 115.199 127.916 99.7852C127.916 84.3855 115.448 71.9027 100.057 71.8705C104.15 58.3757 113.545 52.5579 114.339 52.0861L114.235 52.055Z" fill="white"/>
</svg>
