<svg width="200" height="200" viewBox="0 0 200 200" fill="none" xmlns="http://www.w3.org/2000/svg">
<rect width="200" height="200" rx="40" fill="#010101"/>
<path d="M128.181 95.1518C128.348 110.282 141.916 115.307 142.027 115.363C141.916 115.698 139.85 122.565 134.881 129.6C130.582 135.686 126.115 141.771 119.08 141.883C112.157 141.995 109.923 137.919 102.051 137.919C94.1226 137.919 91.6659 141.771 85.1335 141.995C78.3219 142.218 73.1852 135.407 68.8303 129.321C59.9528 116.926 53.197 94.2585 62.2978 78.9606C66.8203 71.3675 74.916 66.566 83.6818 66.3985C90.326 66.2868 96.6351 70.7533 100.711 70.7533C104.787 70.7533 112.436 65.3935 120.476 66.1751C123.826 66.2868 133.317 67.5151 139.347 76.1132C138.845 76.3924 128.069 82.478 128.181 95.1518ZM115.172 57.9679C118.801 53.7247 121.202 47.8623 120.532 42C115.339 42.2233 109.03 45.3499 105.345 49.5931C101.995 53.3338 99.0917 59.3078 99.8734 65.0585C105.68 65.5052 111.598 62.2111 115.172 57.9679Z" fill="white"/>
</svg>
