<?xml version="1.0" standalone="no"?><!DOCTYPE svg PUBLIC "-//W3C//DTD SVG 1.1//EN" "http://www.w3.org/Graphics/SVG/1.1/DTD/svg11.dtd"><svg t="1723625043182" class="icon" viewBox="0 0 1024 1024" version="1.1" xmlns="http://www.w3.org/2000/svg" p-id="4354" width="200" height="200" xmlns:xlink="http://www.w3.org/1999/xlink"><path d="M942.146783 549.376c22.349913 0 40.381217 17.897739 40.381217 40.091826v308.713739c0 69.38713-56.765217 125.818435-126.619826 125.818435H166.978783c-69.676522 0-126.486261-56.431304-126.486261-125.68487V589.467826c0-22.194087 18.031304-40.091826 40.381217-40.091826 22.327652 0 40.358957 17.897739 40.358957 40.091826v308.713739a45.634783 45.634783 0 0 0 45.746087 45.456696h689.062956a45.634783 45.634783 0 0 0 45.746087-45.456696V589.467826c0-22.194087 18.031304-40.091826 40.358957-40.091826zM856.041739 0c32.567652 0 66.604522 12.443826 93.250783 34.237217 28.93913 23.663304 45.746087 55.741217 46.681043 88.642783l26.646261 212.969739c0.26713 2.226087 0.356174 4.452174 0.267131 6.611478a40.069565 40.069565 0 0 1 1.224347 9.839305c0.133565 86.505739-70.789565 156.93913-157.985391 156.93913a158.052174 158.052174 0 0 1-118.739478-53.51513 158.029913 158.029913 0 0 1-118.739478 53.537391 158.029913 158.029913 0 0 1-117.626435-52.290783 158.052174 158.052174 0 0 1-117.581913 52.290783c-46.747826 0-88.776348-20.257391-117.715479-52.379826a157.94087 157.94087 0 0 1-117.626434 52.379826c-87.195826 0-157.96313-70.455652-157.963131-156.961391 0-1.936696 0.133565-3.82887 0.400696-5.676522a40.247652 40.247652 0 0 1-0.133565-10.774261L27.046957 122.88c0.934957-32.901565 17.764174-65.001739 46.681043-88.642783C100.396522 12.421565 134.41113 0 167.001043 0h689.040696z m0 80.228174H166.978783c-28.271304 0-59.213913 23.79687-59.213913 45.456696 0 1.602783-0.111304 3.33913-0.267131 4.941913l-26.89113 215.129043-0.133566 0.868174c0.26713 1.847652 0.400696 3.739826 0.400696 5.676522 0 42.384696 34.726957 76.733217 77.245218 76.733217 42.518261 0 77.222957-34.504348 77.222956-76.733217 0-22.194087 18.031304-40.114087 40.358957-40.114087 22.483478 0 40.514783 17.92 40.514782 40.114087 0 42.384696 34.704696 76.733217 77.245218 76.733217 42.518261 0 77.222957-34.504348 77.222956-76.733217 0-22.194087 18.031304-40.114087 40.358957-40.114087s40.358957 17.92 40.358956 40.114087c0 42.384696 34.726957 76.733217 77.245218 76.733217 42.518261 0 77.245217-34.504348 77.245217-76.733217 0-22.194087 18.031304-40.114087 40.358956-40.114087h2.270609c22.349913 0 40.381217 17.92 40.381218 40.114087 0 42.384696 34.726957 76.733217 77.245217 76.733217 42.518261 0 77.222957-34.504348 77.222956-76.733217l0.022261-1.491479a40.448 40.448 0 0 1-0.957217-5.053217l-26.935652-215.129043c-0.24487-1.602783-0.24487-3.33913-0.24487-4.941913 0-21.659826-30.942609-45.456696-59.213913-45.456696z" fill="#111111" p-id="4355"></path></svg>