<svg width="16" height="12" viewBox="0 0 16 12" fill="none" xmlns="http://www.w3.org/2000/svg">
<path fill-rule="evenodd" clip-rule="evenodd" d="M1.18537 10.2001C1.18547 10.5305 1.45082 10.7991 1.7777 10.7991H14.2223C14.5485 10.7991 14.8145 10.5305 14.8146 10.2001V4.80058H1.18537V10.2001ZM2.37003 8.99928H4.74006V7.79986H2.37003V8.99928Z" fill="black"/>
<path d="M1.7777 1.20086C1.45078 1.20086 1.18537 1.46894 1.18537 1.80058V3.59971H14.8146V1.80058C14.8146 1.46899 14.5486 1.20094 14.2223 1.20086H1.7777Z" fill="black"/>
<path fill-rule="evenodd" clip-rule="evenodd" d="M14.2223 0C15.2025 6.63114e-05 16 0.808081 16 1.80058V3.59971H14.8146V1.80058C14.8146 1.46899 14.5486 1.20094 14.2223 1.20086H1.7777C1.45078 1.20086 1.18537 1.46894 1.18537 1.80058V3.59971H0V1.80058C0 0.808042 0.797385 2.9534e-06 1.7777 0H14.2223ZM0 10.2001V4.80058H1.18537V10.2001C1.18547 10.5305 1.45082 10.7991 1.7777 10.7991H14.2223C14.5485 10.7991 14.8145 10.5305 14.8146 10.2001V4.80058H16V10.2001C15.9999 11.1919 15.2024 11.9999 14.2223 12H1.7777C0.79744 12 9.03133e-05 11.192 0 10.2001Z" fill="black"/>
</svg>
