<svg width="200" height="200" viewBox="0 0 200 200" fill="none" xmlns="http://www.w3.org/2000/svg">
<g clip-path="url(#clip0_111_21)">
<rect width="200" height="200" fill="white"/>
<rect width="200" height="82" fill="#54A857"/>
<rect y="125" width="200" height="75" fill="#37A8DC"/>
<path fill-rule="evenodd" clip-rule="evenodd" d="M0 86.6133H200V73.4365H0V86.6133Z" fill="#54A857"/>
<path fill-rule="evenodd" clip-rule="evenodd" d="M22.4708 117.03H27.2401L27.2447 106.463H37.5356V101.689H27.2401V97.0177H37.6255V92.2415H22.4708V117.03ZM52.1497 105.433C52.1497 104.354 52.309 102.133 49.5027 100.567C46.4779 98.8783 41.6483 100.196 40.244 100.757V104.495C42.2855 103.227 45.1943 102.825 46.8853 103.654C48.4785 104.435 48.3602 105.77 48.0506 106.297C47.6762 106.204 46.3027 105.698 43.7183 105.944C40.5433 106.254 38.2946 108.635 38.6986 112.775C39.0491 116.325 42.817 117.029 44.4557 117.029C46.6976 117.029 48.4455 115.782 48.4455 115.782C48.5365 116.313 48.6492 116.7 48.9098 117.029H53.1227C52.4683 116.316 52.169 114.786 52.169 114.181C52.1702 113.575 52.1497 106.506 52.1497 105.433ZM45.4537 113.693C43.8639 113.763 42.8318 112.666 42.8318 111.166C42.8318 109.672 44.2349 108.711 45.5129 108.711C47.1675 108.711 48.0062 109.331 48.0062 109.331C48.0062 109.331 48.0404 112.078 48.1007 112.575C47.4771 113.166 46.9502 113.629 45.4537 113.693ZM154.59 105.433C154.59 104.354 154.755 102.133 151.949 100.567C148.92 98.8783 144.093 100.196 142.69 100.757V104.495C144.732 103.227 147.64 102.825 149.329 103.654C150.92 104.435 150.807 105.77 150.497 106.297C150.12 106.204 148.746 105.698 146.163 105.944C142.982 106.254 140.734 108.635 141.144 112.775C141.496 116.325 145.26 117.029 146.899 117.029C149.144 117.029 150.887 115.782 150.887 115.782C150.987 116.313 151.094 116.7 151.36 117.029H155.565C154.909 116.316 154.611 114.786 154.611 114.181C154.611 113.575 154.59 106.506 154.59 105.433ZM147.897 113.693C146.306 113.763 145.276 112.666 145.276 111.166C145.276 109.672 146.675 108.711 147.955 108.711C149.609 108.711 150.451 109.331 150.451 109.331C150.451 109.331 150.479 112.078 150.546 112.575C149.919 113.166 149.395 113.629 147.897 113.693ZM73.9684 99.9036C70.3633 99.808 68.7758 101.876 68.7758 101.876C68.7758 101.876 67.3692 99.9138 64.0531 99.9138C61.669 99.9138 60.1782 101.361 60.1782 101.361V100.1H55.6797L55.6877 117.029H60.1725V105.479C60.3967 104.089 63.3111 103.469 64.1999 104.354C65.0875 105.246 65.1273 105.528 65.1273 106.699V117.03H69.6691V105.434C69.6691 104.839 71.7061 103.452 73.264 104.219C74.6569 104.901 74.7184 105.574 74.7184 106.555V117.032H79.0666V105.901C79.0655 104.779 79.3056 100.034 73.9684 99.9036ZM82.6684 117.03H86.9711V99.9275H82.6684V117.03ZM90.7049 117.03H95.0054V92.2574H90.7049V117.03ZM105.806 109.641L101.815 99.9036H97.2961L103.671 115.494L101.463 121.497L105.957 121.523L113.725 99.907H109.329L105.806 109.641ZM127.129 99.8854L120.647 92.2552H116.066V117.03H120.371V99.1616L127.129 107.153L133.838 99.1935V117.03H138.168V92.2552H133.565L127.129 99.8854ZM162.141 101.927V99.9138H157.829V117.029H162.132V106.089C162.132 106.089 164.842 102.442 168.165 104.967V100.383C166.574 99.7284 164.517 99.2606 162.141 101.927ZM180.141 103.75V99.907H176.26V93.4603L172.179 95.1434V99.8877H169.614V103.75H172.189V111.42C172.189 113.621 173.35 115.847 175.372 116.565C177.109 117.179 178.121 117.233 180.096 116.632V112.712C179.243 112.936 177.096 113.305 176.518 111.686C176.149 110.649 176.266 110.296 176.266 109.08V103.75H180.141ZM84.8442 92.1402C84.4773 92.1328 84.1126 92.1986 83.7715 92.3338C83.4304 92.4691 83.1197 92.671 82.8576 92.9279C82.5955 93.1847 82.3872 93.4913 82.2451 93.8296C82.1029 94.1679 82.0297 94.5312 82.0297 94.8981C82.0297 95.2651 82.1029 95.6284 82.2451 95.9667C82.3872 96.305 82.5955 96.6116 82.8576 96.8684C83.1197 97.1252 83.4304 97.3272 83.7715 97.4624C84.1126 97.5977 84.4773 97.6635 84.8442 97.6561C85.566 97.6414 86.2532 97.3444 86.7584 96.8288C87.2637 96.3132 87.5467 95.62 87.5467 94.8981C87.5467 94.1762 87.2637 93.4831 86.7584 92.9675C86.2532 92.4519 85.566 92.1549 84.8442 92.1402ZM200 122.547V126.565H0V122.547H200Z" fill="#37A8DC"/>
</g>
<defs>
<clipPath id="clip0_111_21">
<rect width="200" height="200" rx="40" fill="white"/>
</clipPath>
</defs>
</svg>
