<svg width="200" height="200" viewBox="0 0 200 200" fill="none" xmlns="http://www.w3.org/2000/svg">
<rect x="0.5" y="0.5" width="199" height="199" rx="39.5" fill="white"/>
<rect x="0.5" y="0.5" width="199" height="199" rx="39.5" stroke="#EEEEEE"/>
<path fill-rule="evenodd" clip-rule="evenodd" d="M40.7459 51.403C40.7459 51.2965 40.7459 51.2965 40.8525 51.1899C40.8525 51.1899 63.7658 40 99.7872 40C135.915 40 160 51.2965 160 51.2965L145.187 99.5741L159.68 148.491C159.68 148.491 138.898 160 98.2946 160C57.691 160 40 149.237 40 149.237L55.1327 99.4676L40.7459 51.403Z" fill="#497DBB"/>
<path fill-rule="evenodd" clip-rule="evenodd" d="M57.2643 99.6816L42.6644 147.107C42.5578 147.319 42.5578 147.745 42.6644 147.959C42.6644 148.066 42.771 148.279 42.9841 148.386C42.9841 148.386 67.1762 157.977 100.107 157.977C133.038 157.977 157.123 147.107 157.123 147.107L143.055 99.1488L157.336 53.0031C157.336 52.8966 157.23 52.5769 157.122 52.4703C157.122 52.4703 134.955 42.0264 99.573 42.0264C68.4542 42.0264 43.1965 52.6834 43.1965 52.6834C43.0899 52.79 43.0899 53.1097 43.0899 53.3228L57.2643 99.6816Z" fill="white"/>
<path fill-rule="evenodd" clip-rule="evenodd" d="M46.7138 55.1341C46.7138 55.0276 46.6073 54.8145 46.7138 54.6013C46.8204 54.3882 47.0335 54.1758 47.2467 54.1758C47.2467 54.1758 68.3477 44.9033 99.7868 44.9033C131.226 44.9033 153.818 54.0685 153.818 54.0685C153.818 54.0685 153.925 54.1751 153.925 54.2816V54.921L140.284 98.9354C140.284 99.1485 140.072 99.4682 140.177 99.6814L153.818 145.081C153.818 145.188 153.818 145.295 153.712 145.401C153.712 145.401 132.078 155.205 99.573 155.205C67.0682 155.205 46.7131 146.574 46.7131 146.574C46.6065 146.574 46.3934 146.36 46.2869 146.254C46.1803 146.147 46.0737 146.04 46.0737 145.828L60.1423 100.107C60.2489 99.8945 60.1423 99.5748 60.1423 99.2551L46.7138 55.1341Z" fill="#497DBB"/>
<path fill-rule="evenodd" clip-rule="evenodd" d="M97.2295 63.766C97.9755 63.6594 99.1477 63.6594 99.6805 63.5528C99.8936 63.5528 100.107 63.2331 100.32 63.1266C100.32 63.02 100.426 62.9134 100.426 62.8069C100.532 62.2741 100.532 61.6347 100.426 61.2084C100.428 61.0986 100.399 60.9904 100.343 60.8962C100.286 60.802 100.205 60.7256 100.107 60.6756C99.7871 60.4625 99.2543 60.3559 99.0411 60.1428C98.9346 60.0362 98.9346 60.0362 99.0411 59.9297L101.918 53.2154C102.04 53.084 102.184 52.9757 102.345 52.8957C102.558 52.7892 102.985 52.7892 103.197 52.6826C103.411 52.5761 103.73 52.4695 103.837 52.2564C103.944 52.1498 104.05 51.9367 104.05 51.7243C104.156 51.298 104.05 50.7652 104.05 50.339C104.05 50.2324 103.944 50.0193 103.944 50.0193C103.837 49.8061 103.623 49.6996 103.411 49.593C103.304 49.4864 103.091 49.4864 102.985 49.4864C101.813 49.3799 100.533 49.3799 99.3608 49.3799C99.0411 49.3799 98.6149 49.3799 98.2952 49.4864C98.0978 49.4903 97.9086 49.5661 97.7631 49.6996C97.6565 49.9127 97.4434 50.2324 97.4434 50.4455C97.3368 50.8718 97.3368 51.4039 97.4434 51.7243C97.4434 51.9374 97.6565 52.3637 97.8697 52.4695C98.0828 52.6826 98.509 52.5761 98.7222 52.7892C98.9353 52.7892 98.9353 52.8957 98.9353 53.0023C98.8287 53.4286 98.6156 53.7483 98.509 54.1745C97.9762 55.3467 97.2303 56.9452 97.0172 57.3714C97.0172 57.478 96.9106 57.3714 96.9106 57.3714C96.804 57.3714 96.6975 57.478 96.6975 57.3714C96.4843 57.0517 96.0581 56.1992 95.6318 55.5598C95.3121 54.8146 94.7793 53.8548 94.5662 53.322C94.4596 53.2154 94.4596 53.1089 94.5662 53.0023C94.5662 53.0023 95.5253 52.7892 95.845 51.617C95.845 50.4448 95.7384 49.912 95.099 49.6988C94.3531 49.4857 90.0898 49.6988 89.557 50.1251C89.0242 50.4448 89.0242 50.6579 89.1307 51.8301C89.1307 53.0023 90.4095 53.2154 90.4095 53.2154C90.516 53.322 90.516 53.2154 90.516 53.322L88.7045 58.0115L86.0404 53.8548C86.0404 53.7483 86.0404 53.7483 86.1469 53.7483C86.1469 53.7483 87.106 53.322 87.3191 52.7892C87.5323 52.3629 87.5323 50.6579 86.6798 50.4448C85.9338 50.2317 81.6713 50.6579 81.0319 51.0842C80.4991 51.4039 80.7122 52.7892 80.7122 52.7892L81.0319 53.7483C81.1385 53.8548 81.3516 53.9614 81.564 54.0679C81.8837 54.0679 82.2034 54.0679 82.5231 54.1745C82.8427 54.1745 82.9493 54.2811 83.0559 54.4942L86.8922 60.7822V61.1019C86.7856 61.2084 86.7856 61.1019 86.679 61.2084C86.5725 61.315 86.3593 61.315 86.2528 61.4216C86.0396 61.5281 85.8265 61.7413 85.8265 61.9544C85.72 62.3806 85.72 63.02 85.8265 63.5528C85.8265 63.5528 85.72 63.766 86.3593 64.2988C87.1053 64.725 91.9014 63.6594 91.9014 63.6594C92.0079 63.6594 92.2211 63.4463 92.2211 63.3397C92.3276 63.1266 92.4342 62.7003 92.4342 62.4872C92.4342 62.0609 92.3276 61.6347 92.1145 61.2084C92.1145 61.1019 91.9014 60.9953 91.7948 60.8887C91.5817 60.7822 91.1554 60.7822 90.9423 60.5691L92.5408 56.1992L94.9917 60.1421V60.3552C94.7786 60.6749 94.3523 60.6749 94.1392 60.8873C93.9261 61.207 93.8195 61.7398 93.8195 62.0595C93.8195 62.4857 94.0326 62.912 94.1392 63.2317C94.1392 63.3382 94.3523 63.4448 94.4589 63.5514C94.8852 63.6579 95.3114 63.7645 95.8442 63.7645H97.2295V63.766ZM113.321 64.2988C113.642 64.2988 114.174 64.1922 114.6 63.9791C114.921 63.8725 115.24 63.5528 115.453 63.2331C115.559 63.1266 115.666 62.8069 115.666 62.7003C115.88 61.6347 115.986 60.6756 116.093 59.61C116.199 58.864 116.093 57.905 116.093 57.3721C115.986 57.159 115.88 56.9459 115.88 56.8393C115.666 56.5196 115.348 56.1999 115.028 56.0934C114.814 55.8803 114.388 55.7737 114.069 55.7737L107.887 55.135C107.781 55.135 107.674 55.135 107.567 55.0285L107.461 54.9219V53.5366C107.461 53.43 107.461 53.43 107.567 53.3235C107.674 53.2169 107.674 53.1103 107.887 53.1103L112.362 53.3235C112.683 53.43 113.002 53.43 113.321 53.5366C113.535 53.6432 113.535 53.6432 113.642 53.8563C113.748 54.2825 113.748 54.8154 113.961 55.135C114.068 55.3482 114.494 55.4547 114.6 55.4547H115.453C115.559 55.4547 115.88 55.4547 115.985 55.3482C116.199 55.135 116.306 54.7088 116.412 54.3891C116.626 53.9628 116.626 53.3235 116.626 52.7906C116.626 52.3644 116.519 51.9381 116.412 51.5119C116.412 51.4053 116.306 51.1922 116.199 51.0856C115.985 50.8725 115.773 50.6594 115.559 50.5528C115.347 50.4462 115.027 50.2331 114.707 50.2331L107.46 49.5937C107.247 49.5937 106.928 49.5937 106.608 49.7003C106.501 49.7003 106.182 49.8069 106.075 49.9134C105.755 50.02 105.542 50.1266 105.328 50.3397C105.116 50.6594 104.902 51.0856 104.796 51.5119C104.69 52.0447 104.476 54.7088 104.476 55.2416C104.476 55.6679 104.582 56.2007 104.796 56.5204C104.902 56.8401 105.116 57.1597 105.328 57.3729C105.649 57.4794 105.968 57.6926 106.395 57.6926C107.035 57.7991 111.19 58.1188 112.576 58.3319C112.79 58.3319 112.896 58.4385 113.109 58.4385V58.5451C113.216 58.8648 113.216 58.9713 113.216 59.1845C113.216 59.7173 113.216 60.2501 113.002 60.6763C113.002 60.7829 112.895 60.8895 112.789 60.8895L107.46 60.4632H107.14C107.034 60.3567 107.034 60.3567 107.034 60.1435C106.928 59.7173 106.928 59.0779 106.82 58.5451C106.82 58.4385 106.608 58.2254 106.501 58.2254C106.181 58.1188 105.754 58.1188 105.542 58.1188C105.328 58.1188 105.009 58.0123 104.796 58.1188C104.582 58.2254 104.37 58.5451 104.263 58.7582C104.157 59.291 104.05 60.2501 104.05 60.996C104.05 61.4223 104.156 61.8485 104.156 62.2748C104.156 62.3814 104.263 62.5945 104.263 62.7011C104.475 62.9142 104.796 63.2339 105.115 63.447L113.321 64.2988ZM130.16 54.4942C130.266 54.1745 130.053 53.749 129.947 53.4286C129.841 53.2154 129.734 53.0023 129.627 52.8957C129.415 52.6826 128.988 52.3629 128.775 52.3629L120.569 50.9776C120.355 50.9776 120.249 51.0842 120.036 51.0842C119.93 51.1907 119.61 51.1907 119.504 51.2973C119.291 51.5104 118.971 51.7236 118.865 52.0432C118.651 52.3629 118.544 52.8957 118.439 53.322L116.839 62.7003C116.839 63.02 117.053 63.4463 117.16 63.766C117.16 63.9791 117.586 64.5119 117.798 64.6185L125.685 66.0038C126.032 66.1104 126.404 66.1104 126.751 66.0038C126.964 66.0038 127.284 65.7907 127.39 65.6841C127.71 65.471 128.03 65.2578 128.242 64.9382C128.349 64.6185 128.563 64.1922 128.563 63.8725L130.16 54.4942ZM78.3663 65.471C79.0057 65.6841 83.9076 65.1513 84.2273 64.2995C84.547 63.447 84.4405 63.6601 84.3339 63.3404C84.3339 62.9142 84.2273 62.3814 84.0142 62.0617C83.9076 61.8485 83.4814 61.8485 83.3748 61.742C82.9486 61.6354 82.6289 61.742 82.3092 61.5289L80.8173 59.8238L77.0876 55.0285C77.0876 54.8154 77.1941 54.8154 77.3007 54.7088C77.4073 54.6022 77.6204 54.6022 77.727 54.4957C77.727 54.4957 78.3664 53.7504 78.0467 52.8972C78.0467 52.1513 77.727 51.8316 77.3007 51.6184C76.981 51.5119 72.1857 52.1513 71.7594 52.5775C71.3332 52.8972 71.4397 52.8972 71.3332 53.5366C71.3332 54.2825 71.6528 55.0285 71.6528 55.0285C71.7594 55.2416 71.9725 55.3482 72.1857 55.4547C72.3988 55.5613 72.6119 55.4547 72.825 55.6679C72.9316 55.6679 72.9316 55.7744 72.9316 55.881L69.9478 63.7674C69.7347 64.0871 69.3084 64.0871 68.9888 64.3002C68.8822 64.3002 68.7756 64.5134 68.6691 64.6199C68.6691 64.6199 68.4559 65.579 68.6691 65.8987C68.8822 66.3249 68.8822 66.6446 69.2019 66.9643C69.5216 67.284 74.8505 66.5381 75.2767 65.6856C75.2767 65.6856 75.3833 63.7674 74.957 63.5543C74.5308 63.3412 74.425 63.2346 74.2111 63.128C73.998 63.128 73.7848 63.128 73.5717 63.0215C73.4652 63.0215 73.4652 63.0215 73.4652 62.9149C73.5717 62.5952 73.5717 62.3821 73.7848 62.2755L77.9416 61.5296C78.1547 61.5296 78.3678 61.5296 78.5809 61.6361C78.6875 61.7427 78.7941 61.7427 78.9006 61.9558C78.9006 62.0624 79.0072 62.0624 78.9006 62.169C78.5809 62.4887 78.1547 62.4887 77.835 62.8083C77.7284 62.9149 77.6219 63.2346 77.6219 63.4477C77.6197 63.4463 77.727 65.1513 78.3663 65.471ZM141.244 55.5598C140.711 55.9861 140.818 55.9861 140.711 56.1992C140.505 56.6322 140.396 57.105 140.391 57.5845C140.391 57.7977 140.498 58.1174 140.604 58.3305C140.924 58.5436 141.35 58.6502 141.67 58.8626C141.777 58.9691 141.777 59.0757 141.777 59.1823L140.924 62.5923C140.818 62.6989 140.924 62.8054 140.818 62.912H140.498C140.284 62.8054 140.284 62.6989 140.178 62.4857L137.301 57.9028C137.195 57.7962 137.087 57.7962 137.087 57.5831C137.087 57.4765 137.194 57.5831 137.301 57.4765C137.408 57.37 137.727 57.37 137.941 57.2634C138.047 57.0503 138.261 56.8371 138.261 56.624C138.473 56.1978 138.473 55.7715 138.581 55.3452C138.581 55.1321 138.474 54.7059 138.154 54.4927C137.728 54.1731 133.039 53.214 133.039 53.214C132.933 53.214 132.613 53.214 132.506 53.3205C132.4 53.4271 132.186 53.7468 132.08 53.9599C131.866 54.3862 131.866 54.8124 131.76 55.2387C131.76 55.4518 131.866 55.6649 131.974 55.8781C131.974 55.9846 132.186 56.0912 132.293 56.1978C132.614 56.4109 132.933 56.3043 133.146 56.624C133.36 56.8371 133.252 56.9437 133.146 57.1568L131.441 63.4448C131.335 63.6579 131.228 63.7645 131.015 63.7645C130.695 63.8711 130.376 63.7645 130.055 63.7645C129.95 63.7645 129.736 63.7645 129.736 63.8711C129.629 63.9776 129.416 64.0842 129.416 64.1908C129.31 64.4039 129.096 64.8301 129.096 65.0433C128.99 65.4688 128.99 65.8958 129.096 66.2155C129.096 66.4286 129.416 66.6417 129.523 66.6417C130.055 66.8548 130.801 67.068 131.334 67.2811C132.292 67.4942 133.784 67.8139 134.318 67.9205C134.425 67.9205 134.85 67.8139 134.957 67.7073C135.171 67.4942 135.383 67.1753 135.49 66.8548C135.596 66.5351 135.703 66.1089 135.703 65.7892C135.703 65.6826 135.597 65.363 135.49 65.2564C135.382 65.1498 135.17 64.9367 135.063 64.9367C134.849 64.8301 134.637 64.8301 134.425 64.7236C134.318 64.617 134.318 64.5104 134.211 64.4039V64.0842C134.317 63.5514 135.063 60.8866 135.276 60.4603C135.276 60.3537 135.276 60.3537 135.382 60.3537L135.596 60.5669L138.899 65.6819C138.899 65.7885 138.899 65.7885 138.793 65.895C138.579 66.0016 138.365 65.895 138.153 66.1082C137.94 66.2147 137.727 66.5344 137.62 66.7475C137.513 67.1738 137.3 67.5993 137.3 68.0263C137.3 68.2394 137.513 68.6657 137.62 68.7715L142.629 70.2641C142.842 70.2641 143.056 70.1576 143.268 70.051C143.374 70.051 143.588 69.8379 143.588 69.6248C143.801 69.1985 144.015 68.6657 144.12 68.2394C144.12 68.0263 144.015 67.8132 143.908 67.7066C143.801 67.4935 143.482 67.2804 143.268 67.1745C143.268 67.1745 143.056 67.1745 143.056 67.068C142.842 66.9614 142.842 66.9614 142.736 66.7483V66.322L144.441 60.2472C144.547 60.1406 144.547 60.034 144.653 59.9275C144.76 59.8209 144.867 59.8209 145.079 59.8209C145.4 59.7144 145.612 59.8209 145.932 59.8209C146.039 59.8209 146.252 59.7144 146.252 59.7144C146.465 59.5012 146.679 59.2881 146.784 59.075C146.891 58.7553 147.105 58.2232 147.105 57.7962C147.105 57.5831 147.105 57.37 146.891 57.051C146.785 56.8386 142.096 54.9205 141.244 55.5598ZM55.8793 59.8231C56.0924 59.9297 56.1989 60.0362 56.1989 60.1428C56.4121 60.7822 57.7974 66.0045 57.904 66.6439C57.904 66.7505 57.904 66.857 57.6908 66.9636C57.6908 66.9636 56.4121 67.2833 56.4121 68.2424C56.5186 69.2014 57.158 70.1605 57.158 70.1605C57.3711 70.2671 57.6908 70.3736 57.7974 70.3736L67.3888 67.9227C67.602 67.8161 67.9217 67.7095 68.1348 67.4964C68.2414 67.2833 68.3479 66.857 68.3479 66.5373C68.2414 66.0045 67.4954 63.3404 67.2823 62.7011C67.2823 62.7011 67.0692 61.8485 65.7904 62.1682C64.6182 62.4879 64.6182 63.2339 64.6182 63.2339C64.7248 63.7667 64.9379 64.1929 64.9379 64.7258C64.9379 64.8323 64.9379 64.9389 64.8313 65.0455L61.3147 66.1111C61.2082 66.1111 61.1016 66.0045 60.995 66.0045C60.8885 65.898 60.8885 65.898 60.8885 65.7914L59.0769 59.2903C59.0769 59.1837 59.0769 59.0772 59.1835 58.9706C59.1835 58.9706 60.6753 58.7575 60.5688 57.159C60.4622 55.454 59.0769 55.5606 59.0769 55.5606L54.2815 56.8393C54.2815 56.8393 53.8553 56.9459 53.7487 57.4787C53.5356 58.1181 54.0684 59.3969 54.4947 59.7165C54.8136 60.0362 55.8793 59.8231 55.8793 59.8231ZM126.431 55.1336C126.751 55.1336 126.963 55.2401 127.176 55.4533C127.283 55.5598 127.388 55.8795 127.283 56.0927L126.11 62.3806C126.11 62.4872 126.004 62.7003 125.897 62.8069C125.791 62.9134 125.577 62.9135 125.365 62.9135L120.249 62.0609C120.036 61.9544 119.823 61.8478 119.717 61.6347C119.61 61.315 119.717 61.1019 119.717 60.8887L120.888 54.6008L121.208 54.2811L126.431 55.1336ZM75.7015 57.7977C75.9147 57.9042 76.0212 58.1174 76.2343 58.2239C76.3409 58.4371 76.3409 58.6502 76.4475 58.8626C76.4475 58.9691 76.554 59.0757 76.4475 59.0757C76.1278 59.2888 75.595 59.3954 75.1687 59.3954H74.9556C74.849 59.2888 74.7425 59.2888 74.7425 59.1823V58.6494C74.849 58.3298 74.9556 58.0101 75.0621 57.7969C75.1687 57.6904 75.2753 57.6904 75.3818 57.6904C75.4884 57.6918 75.595 57.6918 75.7015 57.7977ZM84.7609 128.136C84.7609 128.136 85.0806 129.521 86.5725 130.374C89.6628 131.865 110.765 131.119 113.109 130.374C115.347 129.627 115.24 128.562 115.24 128.562C115.24 128.562 117.372 103.731 115.56 95.2051C114.707 89.5565 108.952 84.9743 108.952 84.9743C108.846 84.8677 108.846 84.6546 108.846 84.4415C108.846 84.3349 109.166 84.3349 109.271 84.3349C109.592 84.2283 109.804 84.3349 110.23 84.4415C110.444 84.4415 110.551 84.6546 110.657 84.7612C110.87 84.8677 110.977 85.0808 111.189 85.1874C111.296 85.294 111.616 85.4005 111.722 85.294C111.935 85.294 112.148 85.0808 112.255 84.8677C112.467 84.7612 112.467 84.4422 112.681 84.2291C112.788 84.0159 113.001 84.0159 113.214 83.9094C113.426 83.6963 113.746 83.3766 113.853 83.0569C113.959 82.8437 113.853 82.5241 113.853 82.3109C113.746 81.9912 113.64 81.7781 113.426 81.565C113 81.0329 112.467 80.6059 112.148 80.0731C112.148 79.9665 112.148 79.7534 112.254 79.6468C112.36 79.114 113.107 77.1959 113.533 76.0237L114.492 73.4662C114.598 73.253 114.598 72.9333 114.598 72.6136C114.598 72.4005 114.598 72.0808 114.492 71.8677C114.379 71.5481 114.197 71.2572 113.959 71.0152C113.698 70.8312 113.411 70.6875 113.107 70.5889C112.254 70.2693 111.402 69.9496 110.549 69.7364C109.057 69.4167 107.459 69.2036 105.966 68.8839C104.9 68.7774 103.835 68.6708 102.769 68.6708C101.383 68.5642 99.998 68.6708 98.6127 68.6708C97.9733 68.6708 97.2274 68.6708 96.588 68.7774C95.0133 68.8928 93.4473 69.1063 91.8992 69.4167C90.6204 69.6299 89.2351 70.0561 88.0629 70.4824C87.7432 70.5889 87.4235 70.6955 87.1038 70.9079C86.8907 71.121 86.6776 71.4407 86.571 71.6538C86.3579 71.9735 86.2513 72.2932 86.2513 72.6129C86.3579 73.1457 86.571 73.7851 86.6776 74.4245C86.8907 74.9573 87.2104 75.4901 87.4235 76.023L88.0629 77.9411C88.276 78.5805 88.5957 79.3264 88.7023 79.7527C88.7023 79.9658 88.5957 80.2855 88.4892 80.3921C88.1695 80.9249 87.6366 81.2446 87.317 81.7774C87.2191 81.8273 87.1372 81.9037 87.0807 81.9979C87.0242 82.0921 86.9953 82.2003 86.9973 82.3102C86.8907 82.5233 86.9973 82.843 86.9973 83.0561C86.9973 83.2693 87.1038 83.589 87.317 83.6955C87.5301 83.9087 87.8498 84.0152 88.0629 84.1218C88.1695 84.3349 88.276 84.4415 88.4892 84.6546C88.4892 84.7612 88.4892 85.0801 88.5957 85.1874C88.8088 85.294 89.022 85.4005 89.2351 85.294C89.4482 85.294 89.7679 85.0809 89.981 84.9743C90.0876 84.8677 90.1942 84.6546 90.4073 84.548C90.5139 84.548 90.6204 84.4415 90.727 84.4415C91.1532 84.3349 91.3664 84.4415 91.6861 84.4415C91.7926 84.4415 92.0057 84.6546 92.0057 84.6546C92.1123 84.8677 91.8992 84.8677 91.8992 84.9743C91.8992 84.9743 86.3571 89.3434 85.0784 95.4182C83.8011 101.492 84.7609 128.136 84.7609 128.136ZM107.14 83.162C107.247 83.162 107.247 83.2685 107.354 83.3751V83.9079C107.247 83.9079 107.247 84.0145 107.14 84.0145H93.8188C93.7122 84.0145 93.6057 83.9079 93.6057 83.9079C93.4991 83.6948 93.4991 83.4824 93.4991 83.3751C93.6057 83.2685 93.7122 83.162 93.8188 83.162H107.14ZM93.3925 77.0871C93.4991 77.1937 93.4991 77.3003 93.4991 77.4068L93.6057 80.1782L92.6466 81.8832C92.54 82.0963 92.6466 82.416 92.4335 82.6292H91.2613C91.1279 82.4833 91.0521 82.2939 91.0481 82.0963L89.4497 77.301L87.8512 72.5049V72.2918C87.8512 72.2918 92.54 69.9474 99.7871 69.8408C105.649 69.7342 110.445 71.013 110.445 71.013L112.895 72.0786C113.002 72.1852 113.109 72.2918 113.109 72.3983L109.699 82.6292H108.526C108.42 82.6292 108.42 82.6292 108.314 82.5226C108.314 82.3095 108.314 81.9898 108.207 81.7767L107.355 80.8176V77.5141L108.1 75.8091C107.993 75.596 107.887 75.4894 107.78 75.4894C107.354 75.2763 107.035 75.2763 106.714 75.2763C105.223 75.1697 103.623 75.0632 102.132 75.0632C100.32 75.0632 98.5083 74.9566 96.6967 75.0632C95.6311 75.0632 93.9261 75.2763 93.3933 75.3828C93.1801 75.3828 92.967 75.596 92.8604 75.8091L93.3925 77.0871ZM89.2366 82.5226C89.2366 82.6292 89.2366 82.6292 89.13 82.6292C89.13 82.5226 89.0234 82.5226 89.0234 82.416C89.0234 82.3095 88.9169 82.3095 89.0234 82.2029C89.13 82.2029 89.3431 82.0963 89.3431 82.2029C89.4497 82.3095 89.3431 82.5226 89.2366 82.5226ZM111.935 82.5226C111.935 82.5226 111.829 82.6292 111.723 82.6292C111.616 82.6292 111.616 82.5226 111.511 82.416V82.2029C111.616 82.2029 111.723 82.2029 111.83 82.3095C111.935 82.3095 111.935 82.416 111.935 82.5226ZM141.883 134.21C141.883 133.996 141.777 133.891 141.883 133.677C141.883 133.571 141.883 133.465 141.989 133.358C142.31 133.144 142.629 133.144 142.842 132.932C143.056 132.825 143.162 132.612 143.268 132.399V131.653C143.162 131.227 143.056 130.694 142.842 130.375C142.736 130.268 141.883 130.054 141.777 130.054L136.768 131.44C136.555 131.546 136.448 131.972 136.448 132.185C136.448 132.613 136.554 133.039 136.768 133.251C136.768 133.571 136.981 133.891 137.194 134.104C137.408 134.21 137.727 134.21 137.94 134.318C138.26 134.318 138.579 134.211 138.898 134.211C139.005 134.211 139.005 134.318 139.005 134.425C139.111 134.851 139.857 137.835 139.964 138.368C139.964 138.474 140.07 138.474 139.964 138.474C139.857 138.58 139.75 138.58 139.644 138.474L134.101 135.597C133.995 135.597 133.995 135.597 133.995 135.491C133.995 135.384 134.101 135.491 134.101 135.384C134.208 135.278 134.422 135.172 134.634 134.958C134.634 134.745 134.741 134.531 134.741 134.319C134.634 133.786 134.421 133.04 134.208 132.614C134.208 132.507 133.888 132.4 133.782 132.294H133.036L128.772 133.36C128.666 133.467 128.453 133.572 128.346 133.572L127.92 133.999V134.958C128.026 135.384 128.134 135.917 128.346 136.236C128.453 136.343 128.772 136.45 128.986 136.557H130.158C130.264 136.557 130.264 136.557 130.264 136.663L131.862 143.91C131.65 144.123 131.223 144.123 130.903 144.337C130.797 144.443 130.69 144.551 130.583 144.656V145.829C130.69 146.149 130.903 146.575 131.009 146.894C131.116 147.001 131.33 147.108 131.436 147.108C131.542 147.214 131.755 147.214 131.862 147.214L136.552 146.149C136.658 146.042 136.872 145.935 136.978 145.829C137.084 145.829 137.191 145.615 137.191 145.509V144.124C137.084 143.911 136.978 143.592 136.871 143.378C136.765 143.272 136.445 143.059 136.338 143.059C135.912 143.059 135.379 143.165 134.953 143.059C134.846 143.059 134.846 142.952 134.741 142.845C134.634 142.313 133.888 139.435 133.782 139.009C133.782 138.902 133.782 138.796 133.888 138.796C133.994 138.69 133.994 138.69 134.101 138.796L139.536 141.566C139.748 141.673 139.748 141.78 139.748 141.887C139.855 141.992 139.748 141.992 139.748 141.992C139.643 142.206 139.322 142.313 139.322 142.632C139.216 142.845 139.216 143.165 139.322 143.378C139.322 143.804 139.536 144.23 139.748 144.656C139.855 144.763 139.962 144.977 140.069 144.977C140.416 145.083 140.787 145.083 141.134 144.977L145.503 143.592C145.609 143.592 145.823 143.378 145.929 143.165C146.036 142.845 145.929 142.419 145.929 142.099C145.823 141.779 145.717 141.354 145.503 141.034C145.503 140.927 145.29 140.714 145.183 140.714C144.757 140.607 144.117 140.714 143.691 140.607C143.585 140.607 143.585 140.501 143.478 140.395L141.883 134.21ZM56.1989 136.022V136.981C56.3055 137.193 56.3055 137.513 56.4121 137.726C56.7318 138.046 57.0515 138.471 57.3711 138.579C58.1171 138.793 63.3394 140.284 63.9788 140.498C64.0854 140.498 64.0854 140.603 64.1919 140.71C64.1919 140.816 64.2985 140.924 64.2985 141.03C64.1919 141.562 64.0854 141.988 63.8723 142.414C63.7657 142.628 63.7657 142.84 63.5526 142.947C63.2329 143.054 63.1263 142.947 62.8066 142.84L58.2237 141.669C58.0105 141.562 57.904 141.562 57.7974 141.349C57.6908 141.243 57.6908 141.243 57.6908 141.135C57.6908 140.709 57.904 140.39 57.904 140.071C57.904 139.857 57.904 139.644 57.7974 139.538C57.7974 139.324 57.5843 139.218 57.3711 139.111C57.0522 138.909 56.6834 138.798 56.3055 138.792C56.0924 138.685 55.7727 138.792 55.6661 138.898C55.5596 139.004 55.3464 139.218 55.2399 139.43C55.1333 139.963 54.8136 140.816 54.7071 141.456C54.6005 141.776 54.4939 142.095 54.6005 142.521C54.6005 142.84 54.7071 143.266 54.8136 143.48C55.0268 143.8 55.3457 144.225 55.6661 144.332L62.9132 146.356C63.3394 146.356 63.7657 146.463 64.1919 146.356C64.5116 146.356 64.8313 146.251 65.151 146.037C65.4707 145.824 65.7904 145.504 65.897 145.184L67.1757 139.643C67.0692 139.429 66.9626 139.003 66.856 138.79C66.6429 138.576 66.3232 138.258 66.1101 138.15L59.3959 136.231C59.2893 136.231 59.1827 136.231 59.1827 136.126C59.0762 135.805 59.0762 135.593 59.1827 135.379C59.2893 134.953 59.3959 134.74 59.5024 134.421C59.609 134.315 59.609 134.207 59.7155 134.207C59.8221 134.101 59.9287 133.994 60.0352 134.101L64.8306 135.38C65.0437 135.38 65.1503 135.486 65.2568 135.486C65.47 135.593 65.5765 135.593 65.5765 135.806C65.6831 136.126 65.47 136.552 65.5765 136.979C65.5765 137.191 65.6831 137.405 65.8962 137.511C66.2159 137.725 66.7487 137.831 67.175 137.939C67.3881 137.939 67.6012 137.832 67.7078 137.725C67.8144 137.617 68.0275 137.405 68.1341 137.192C68.2406 136.766 68.4538 136.233 68.5603 135.701C68.6669 135.38 68.7734 134.954 68.7734 134.634C68.7734 134.422 68.6669 134.102 68.5603 133.889L68.2406 133.249L67.8144 132.823L60.3542 130.691C60.0345 130.585 59.6082 130.585 59.2886 130.585C59.0754 130.585 58.7557 130.691 58.5426 130.691C58.3295 130.798 58.1164 130.798 58.0098 130.904C57.9032 131.118 57.5835 131.332 57.477 131.544L56.1989 136.022ZM76.3409 149.023C76.4475 149.023 76.7672 148.918 76.8737 148.811C76.9803 148.704 77.1934 148.491 77.3 148.278C77.5131 147.852 77.5131 147.426 77.6197 147.107C77.6197 146.786 77.5131 146.467 77.4065 146.254C77.3 146.148 77.0869 146.04 76.9803 145.934C76.7672 145.828 76.4475 145.828 76.2343 145.721C76.1278 145.615 76.1278 145.507 76.1278 145.402C76.0212 145.295 76.0212 145.295 76.0212 145.188L77.1934 139.114C77.3 138.794 77.3 138.581 77.5131 138.261C77.6197 138.155 77.7262 138.155 77.9394 138.155C78.4715 138.261 79.3247 138.474 79.8575 138.581C79.9641 138.581 79.9641 138.581 79.9641 138.687C80.0706 139.007 79.9641 139.433 79.9641 139.752V140.819C80.0706 141.033 80.2838 141.245 80.3903 141.351C80.71 141.458 81.0297 141.458 81.3494 141.458C81.456 141.564 81.7756 141.564 81.9888 141.458C82.0953 141.351 82.415 141.032 82.415 140.818C82.6282 140.285 82.9478 139.113 83.161 138.26C83.2675 137.834 83.2675 137.301 83.2675 136.875V136.342C83.161 136.13 82.9479 135.809 82.8413 135.809L71.5448 133.572C71.1186 133.466 70.7989 133.572 70.3726 133.572L70.1595 133.678C69.9464 133.892 69.7332 134.104 69.6267 134.425C69.5201 134.957 69.2004 137.088 68.9873 138.261C68.9873 138.474 68.9873 138.794 69.0939 138.9C69.0939 139.114 69.4136 139.326 69.5201 139.326C69.7332 139.433 70.1595 139.54 70.4792 139.54C70.5858 139.54 70.9054 139.54 71.012 139.433C71.2251 139.221 71.4383 138.795 71.6514 138.581L71.9711 137.302L72.0776 137.196H72.3973C72.9302 137.302 73.8892 137.515 74.422 137.622C74.5286 137.622 74.5286 137.622 74.5286 137.728L73.3564 144.122C73.2498 144.336 73.2498 144.655 73.1433 144.869C73.1433 144.975 73.1433 144.975 73.0367 144.975C72.6105 145.081 72.0776 145.081 71.6514 145.188C71.5448 145.188 71.3317 145.294 71.3317 145.294C71.1186 145.721 71.012 146.147 70.9054 146.466C70.7989 146.785 70.7989 147.106 70.9054 147.318C70.9054 147.532 71.012 147.851 71.1186 147.958L76.3409 149.023ZM127.283 135.596C127.177 135.382 126.963 135.063 126.857 134.955C126.751 134.743 126.431 134.529 126.217 134.423C125.897 134.317 125.472 134.21 125.151 134.103L117.69 135.276C117.264 135.382 116.733 135.596 116.412 135.808C116.199 135.915 116.092 136.128 115.985 136.234C115.88 136.555 115.666 136.874 115.559 137.193C115.559 137.726 115.559 138.366 115.666 138.898L117.051 147.744C117.051 148.17 117.371 148.596 117.69 148.81C117.904 149.023 118.33 149.236 118.649 149.236L127.921 147.744C128.027 147.744 128.24 147.531 128.24 147.424C128.454 147.21 128.667 146.891 128.667 146.679C128.773 146.253 128.88 145.826 128.773 145.4L127.283 135.596ZM94.672 150.409C94.7786 150.302 94.8852 150.089 94.8852 149.876C94.9917 149.556 95.0983 149.023 94.9917 148.597C94.9917 148.385 94.8852 148.065 94.7786 147.958C94.7786 147.852 94.5655 147.745 94.3523 147.639C94.1392 147.532 93.713 147.639 93.4998 147.425C93.1801 147.105 93.0736 146.785 92.967 146.466L90.0898 139.965C89.9832 139.752 90.0898 139.752 90.0898 139.539H90.1964C90.4095 139.433 90.6226 139.433 90.8357 139.325C90.9423 139.219 91.262 139.113 91.262 138.899C91.4751 138.579 91.5817 137.941 91.5817 137.514C91.5817 137.301 91.3686 136.875 91.262 136.661C91.262 136.555 90.9423 136.342 90.8357 136.342L85.5076 135.915C85.2944 136.022 85.0813 136.342 84.9747 136.555C84.8682 136.875 84.7616 137.301 84.7616 137.62C84.7616 137.941 84.8682 138.26 84.9747 138.579C85.0813 138.686 85.1879 138.899 85.401 138.899C85.5076 139.113 85.7207 139.006 85.8273 139.219C85.9338 139.325 85.8273 139.325 85.8273 139.432L81.0319 146.359C81.0319 146.359 80.9253 146.359 80.8188 146.465C80.3925 146.465 79.8597 146.465 79.4334 146.572C79.2203 146.678 79.1138 147.104 79.0072 147.317C78.9006 147.637 78.7941 147.957 78.7941 148.276C78.7941 148.49 79.0072 148.916 79.1138 149.128C79.1138 149.235 79.3269 149.448 79.54 149.555L84.7623 149.981C84.9755 149.981 85.1886 149.769 85.1886 149.555C85.4017 149.128 85.5083 148.596 85.6149 148.169C85.6149 147.957 85.5083 147.637 85.4017 147.531C85.2952 147.317 84.9755 147.104 84.7623 146.998C84.6558 146.891 84.4427 146.998 84.4427 146.784C84.3361 146.678 84.3361 146.572 84.4427 146.464C84.5492 146.252 84.6558 146.145 84.8689 146.038C85.082 145.826 85.1886 145.826 85.5083 145.826C86.0411 145.932 89.3446 146.145 89.7708 146.252C89.984 146.358 89.984 146.572 90.0905 146.784C90.1971 146.998 90.3036 146.998 90.1971 147.21C90.1971 147.317 90.1971 147.317 90.0905 147.317C89.6643 147.531 89.1315 147.531 88.8118 147.637C88.5986 147.743 88.4921 148.064 88.4921 148.169C88.3855 148.733 88.3855 149.311 88.4921 149.874C88.4921 150.088 88.8118 150.407 89.0249 150.515L94.672 150.409ZM115.24 149.237C115.347 148.811 115.347 148.066 115.24 147.639C115.24 147.426 115.028 146.999 114.814 146.893C114.388 146.68 113.748 146.786 113.321 146.68V146.467L112.683 139.966C112.683 139.752 112.683 139.54 112.789 139.326C112.789 139.22 112.895 139.22 113.002 139.114C113.321 139.007 113.747 138.9 114.068 138.794C114.174 138.687 114.388 138.58 114.388 138.474C114.494 138.261 114.6 137.941 114.6 137.621C114.6 137.301 114.494 136.876 114.388 136.45C114.388 136.343 114.281 136.13 114.068 136.023C113.961 135.917 113.642 135.809 113.321 135.809L108.42 136.342C108.314 136.342 108.1 136.556 107.992 136.662C107.887 136.876 107.78 137.302 107.78 137.621C107.887 138.047 107.992 138.58 108.1 138.9C108.1 139.114 108.42 139.22 108.526 139.22C108.952 139.433 109.379 139.326 109.699 139.54C109.911 139.54 109.911 139.646 109.911 139.86L110.444 146.467C110.444 146.681 110.338 146.787 110.23 146.894V147C109.804 147.212 109.378 147.212 109.059 147.426C108.952 147.426 108.739 147.746 108.739 147.853C108.633 148.172 108.739 148.598 108.739 148.919C108.739 149.239 108.633 149.345 109.059 149.984C109.485 150.728 115.453 149.876 115.24 149.237ZM102.664 150.623C102.77 150.623 102.877 150.516 102.984 150.409L103.41 149.982C103.517 149.77 103.517 149.45 103.517 149.13C103.517 148.81 103.41 148.277 103.303 147.958C103.196 147.852 103.091 147.745 102.983 147.639C102.557 147.532 102.131 147.532 101.704 147.425C101.598 147.318 101.598 147.318 101.598 147.105L101.812 139.751C102.344 139.645 103.729 139.645 104.155 139.751C104.262 139.751 104.262 139.857 104.262 140.071C104.369 140.603 104.369 141.457 104.582 141.883C104.688 142.095 105.008 142.203 105.222 142.309C105.434 142.415 105.754 142.309 106.074 142.309C106.181 142.309 106.287 142.203 106.394 142.203L106.82 141.776L107.034 137.407C107.034 137.193 106.928 136.981 106.82 136.874C106.713 136.768 106.608 136.555 106.501 136.555L94.4574 136.341C94.3509 136.341 94.1377 136.341 94.0312 136.447C93.8043 136.568 93.6187 136.753 93.4984 136.98C93.4984 137.086 93.3918 137.3 93.3918 137.406V141.243C93.3918 141.457 93.4984 141.776 93.6049 141.883C93.7115 141.989 93.9246 142.203 94.0312 142.203C94.4574 142.309 94.8837 142.309 95.2034 142.203C95.4165 142.096 95.8428 141.883 95.8428 141.67C96.0559 141.243 96.0559 140.391 96.1625 139.858V139.752C96.5887 139.646 97.1215 139.646 97.6543 139.646C97.974 139.646 98.2937 139.646 98.6134 139.752C98.72 139.752 98.72 139.752 98.72 139.858V146.146C98.72 146.572 98.8265 146.891 98.6134 147.211C98.6134 147.318 98.5068 147.318 98.4003 147.425C97.974 147.639 97.4412 147.639 97.1215 147.851C96.9084 148.065 96.8018 148.596 96.8018 148.918C96.8018 149.237 96.9084 149.77 97.015 150.196L97.4412 150.623H102.664ZM120.036 146.04C119.929 146.04 119.397 145.933 119.397 145.827L118.438 139.219C118.331 139.113 118.331 138.899 118.438 138.687C118.438 138.58 118.544 138.367 118.65 138.367L124.298 137.408H124.726L125.046 137.728L126.005 144.442C126.005 144.654 125.898 144.868 125.898 145.08C125.791 145.187 125.791 145.294 125.684 145.294L120.036 146.04ZM88.0644 141.777C88.2775 142.203 88.4906 142.736 88.5972 143.162C88.5972 143.268 88.7037 143.482 88.5972 143.482C88.2775 143.589 87.7447 143.589 87.425 143.589C87.2118 143.589 86.9987 143.589 86.7856 143.482C86.679 143.375 86.5725 143.268 86.5725 143.162C86.679 142.948 86.7856 142.736 86.9987 142.416C87.1053 142.31 87.2118 142.096 87.3184 141.884C87.425 141.777 87.6381 141.67 87.7447 141.67C87.8512 141.67 87.9571 141.67 88.0644 141.777Z" fill="white"/>
</svg>
