<svg width="200" height="200" viewBox="0 0 200 200" fill="none" xmlns="http://www.w3.org/2000/svg">
<rect width="200" height="200" rx="40" fill="#FFCB01"/>
<path d="M43.8545 107.147C43.8545 107.038 43.7648 106.947 43.655 106.947H36.7552C33.0245 106.947 30 103.917 30 100.193C30 98.3878 30.5998 96.5601 31.9787 95.1834L69.6726 55.9828C72.3171 53.3391 76.603 53.3391 79.2475 55.9828L88.0318 64.518L105.778 64.4902C106.957 57.2259 116.472 54.0161 122.889 54.0161C133.709 54.0161 142.761 61.5691 145.065 71.6858C145.105 71.8627 145.148 72.0379 145.177 72.2151C145.195 72.3087 145.247 72.3885 145.327 72.4303C153.106 76.709 158.557 84.6937 159.296 94.0069C159.306 94.1229 159.358 94.2221 159.454 94.2741C159.511 94.307 159.568 94.3435 159.627 94.3784C165.841 98.1104 170 104.913 170 112.688C170 121.59 164.549 129.217 156.803 132.421C156.732 132.451 156.68 132.522 156.68 132.605V139.587C156.68 143.317 153.654 146.343 149.922 146.343H50.6243C46.8912 146.343 43.8649 143.317 43.8649 139.587L43.8545 107.147Z" fill="white"/>
<path d="M97.9677 105.442C100.367 105.442 102.314 103.498 102.314 101.097V85.2812C102.314 82.8823 100.367 80.9365 97.9677 80.9365C95.5654 80.9365 93.6211 82.8823 93.6211 85.2812V101.097C93.6211 103.497 95.5657 105.442 97.9677 105.442Z" fill="#003894"/>
<path d="M132.181 105.442C134.581 105.442 136.528 103.498 136.528 101.097V85.2812C136.528 82.8823 134.581 80.9365 132.181 80.9365C129.781 80.9365 127.835 82.8823 127.835 85.2812V101.097C127.835 103.497 129.781 105.442 132.181 105.442Z" fill="#003894"/>
<path d="M84.007 115.459C84.007 115.327 83.8996 115.219 83.7663 115.219L82.6281 115.216C80.6207 115.216 78.9937 113.59 78.9937 111.583C78.9937 109.576 80.6204 107.949 82.6281 107.949H92.8834C94.8913 107.949 96.519 109.576 96.519 111.583C96.519 113.589 94.8913 115.216 92.8834 115.216L92.2941 115.219C92.1607 115.219 92.0531 115.327 92.0531 115.459L92.0489 128.4C92.0489 130.618 90.2488 132.415 88.0312 132.415C85.8125 132.415 84.0135 130.618 84.0135 128.4L84.007 115.459Z" fill="#003894"/>
<path d="M120.85 80.9365C118.536 80.9365 116.66 82.813 116.66 85.127L116.622 88.2044L116.62 88.1856C116.62 88.2325 116.582 88.2723 116.532 88.2723C116.501 88.2723 116.475 88.257 116.459 88.2325L112.717 82.8133V82.8166C111.962 81.7265 110.701 81.0133 109.274 81.0133C106.958 81.0133 105.084 82.888 105.084 85.2035V101.21C105.084 103.524 106.958 105.401 109.274 105.401C111.588 105.401 113.465 103.524 113.465 101.21L113.509 98.0664V98.073C113.509 98.0246 113.549 97.9863 113.596 97.9863C113.627 97.9863 113.651 97.9986 113.667 98.0228L117.33 103.406C118.077 104.56 119.374 105.324 120.85 105.324C123.163 105.324 125.039 103.447 125.039 101.133V85.127C125.04 82.813 123.164 80.9365 120.85 80.9365Z" fill="#003894"/>
<path d="M86.5296 80.9368C85.1857 80.9368 83.9877 81.5478 83.1927 82.506V82.4991L78.5337 87.7776C78.5337 87.7776 78.4799 87.9008 78.36 87.9008C78.2404 87.9008 78.1384 87.7776 78.1384 87.7776L73.4071 82.5425C72.6127 81.5633 71.4015 80.9365 70.0402 80.9365C67.6478 80.9365 65.708 82.8772 65.708 85.2693V101.227C65.708 103.539 67.585 105.416 69.8979 105.416C72.2126 105.416 74.0893 103.539 74.0893 101.227L74.1919 95.4846C74.1996 95.4221 74.2508 95.3719 74.3163 95.3719C74.3482 95.3719 74.3793 95.386 74.4024 95.4066L78.1659 99.6144C78.1659 99.6144 78.2631 99.7657 78.3949 99.7657C78.5256 99.7657 78.6207 99.6144 78.6207 99.6144L82.1627 95.3322C82.1854 95.3094 82.2156 95.2972 82.2506 95.2972C82.3206 95.2972 82.3762 95.351 82.3762 95.4203H82.378L82.4823 101.227C82.4823 103.539 84.3575 105.416 86.6725 105.416C88.9866 105.416 90.8642 103.539 90.8642 101.227V85.2693C90.8639 82.8775 88.9223 80.9368 86.5296 80.9368Z" fill="#003894"/>
<path d="M132.692 117.942L130.53 117.941C130.459 117.941 130.402 117.887 130.402 117.816V114.257C130.402 114.188 130.459 114.134 130.53 114.134L132.692 114.136C133.745 114.136 134.597 114.986 134.597 116.038C134.597 117.089 133.744 117.942 132.692 117.942ZM132.707 107.953L124.475 107.949C123.087 107.949 121.964 109.074 121.964 110.459L121.981 128.205C121.981 130.53 123.865 132.415 126.192 132.415C128.519 132.415 130.405 130.529 130.405 128.205L130.407 124.09C130.407 124.02 130.462 123.965 130.533 123.965L132.438 123.966C138.326 123.966 141.139 119.993 141.139 116.04C141.138 111.574 137.362 107.953 132.707 107.953Z" fill="#003894"/>
<path d="M149.732 101.622C149.736 101.624 149.739 101.624 149.743 101.624C155.493 102.171 159.991 107.041 159.991 112.876C159.991 118.606 155.67 123.335 150.067 124.016C148.125 124.254 146.62 125.844 146.62 127.839V135.973C146.62 136.147 146.48 136.284 146.309 136.284H54.2436C54.0729 136.284 53.9321 136.147 53.9321 135.973L53.9252 100.405C53.9252 98.4404 52.3314 96.8449 50.3656 96.8449H44.8826C44.8458 96.8449 44.8093 96.8311 44.7833 96.8051C44.7277 96.7516 44.7277 96.6628 44.7833 96.6087L74.3797 65.9589C74.4356 65.9048 74.5238 65.9048 74.5767 65.9589L83.55 74.5931C84.7797 75.8239 87.0753 75.9366 88.4174 74.5931C89.7604 73.2481 89.7503 71.0587 88.4072 69.7172L76.8896 58.5087C75.5448 57.167 73.3673 57.167 72.0219 58.5087L34.0167 97.9158C33.5046 98.5321 33.1948 99.3323 33.1948 100.198C33.1948 102.164 34.8563 103.698 36.7551 103.698H46.753C46.924 103.698 47.063 103.837 47.063 104.009V139.587C47.063 141.554 48.6569 143.148 50.6242 143.148H149.935C151.901 143.148 153.494 141.554 153.494 139.587V130.471C153.494 130.377 153.554 130.304 153.638 130.28C161.213 128.117 166.753 121.144 166.753 112.876C166.753 105.78 162.667 99.6398 156.719 96.6733C156.6 96.6123 156.48 96.557 156.362 96.4979C156.235 96.4393 156.148 96.3108 156.148 96.1613C156.067 86.7354 150.521 78.615 142.519 74.8152C142.395 74.7542 142.327 74.6257 142.309 74.4798C141.099 64.8357 132.864 57.375 122.89 57.375C118.531 57.375 114.502 58.7965 111.249 61.2077C109.715 62.3429 109.302 64.4486 110.394 66.0107C111.487 67.5727 113.687 68.0192 115.2 66.8649C117.335 65.2347 120 64.2681 122.89 64.2681C127.854 64.2681 132.148 67.1198 134.231 71.2736C135.083 72.9785 135.843 75.3983 135.843 79.4708C135.843 79.6196 135.947 79.7448 136.087 79.7726C136.312 79.8196 136.528 79.8781 136.748 79.9391C143.083 81.6575 147.943 87.0352 149.018 93.6108C149.164 94.5063 149.458 96.9038 149.458 101.318C149.457 101.478 149.577 101.604 149.732 101.622Z" fill="#003894"/>
<path d="M78.6938 124.716C78.6938 129.28 74.9996 132.979 70.4345 132.979C67.2456 132.979 64.8226 131.721 62.9534 129.719C62.3821 129.108 62.0601 128.268 62.0601 127.365C62.0601 125.426 63.6318 123.853 65.5722 123.853C66.337 123.853 67.2934 124.232 67.7816 124.492C68.0316 124.626 69.2771 125.478 69.7884 125.478C70.1723 125.478 70.4832 125.169 70.4832 124.786C70.4832 124.289 69.8025 123.857 69.4918 123.701C65.9632 121.937 62.7214 119.538 62.7214 115.15C62.7214 110.763 65.8748 107.306 70.8549 107.306C73.5331 107.306 75.8834 108.512 77.5634 110.34C78.0723 110.894 78.3706 111.624 78.3706 112.433C78.3706 114.148 76.9792 115.539 75.2633 115.539C74.0862 115.539 72.5181 114.568 72.3776 114.492C71.9644 114.265 71.7892 114.055 71.3793 114.055C70.9697 114.055 70.6396 114.385 70.6396 114.794C70.6396 115.346 71.2944 115.801 72.841 116.558C77.0994 118.642 78.6938 121.65 78.6938 124.716Z" fill="#003894"/>
<path d="M107.545 125.092C104.8 125.092 102.577 122.869 102.577 120.124C102.577 117.381 104.8 115.158 107.545 115.158C110.288 115.158 112.514 117.381 112.514 120.124C112.514 122.869 110.288 125.092 107.545 125.092ZM107.549 107.347C100.582 107.347 94.9341 113.07 94.9341 120.124C94.9341 127.182 100.582 132.902 107.549 132.902C114.516 132.902 120.165 127.182 120.165 120.124C120.165 113.07 114.517 107.347 107.549 107.347Z" fill="#003894"/>
</svg>
