<svg width="200" height="200" viewBox="0 0 200 200" fill="none" xmlns="http://www.w3.org/2000/svg">
<rect width="200" height="200" rx="40" fill="#E07D2B"/>
<path d="M145.704 121.514C145.704 121.514 134.148 149.7 100.519 150C68.6667 150 50 124.063 50 100.375C50 74.4378 71.1852 50 100.963 50C131.185 50 150 77.1364 150 95.8771C150 115.367 130.148 122.414 114.444 118.216C132.074 118.216 134.889 102.474 134.889 96.3268C134.889 88.2309 127.037 78.6357 136.519 70.5397C138.296 68.8906 137.407 68.4408 136.222 68.8906C134.593 69.4903 125.704 71.1394 122.296 87.0315C120.667 94.3778 118.296 103.523 109.556 105.472C109.556 105.622 117.556 100.225 117.556 88.9805C117.556 75.937 109.407 72.4887 109.407 61.6941C109.407 56.5967 112.815 54.048 112.815 54.048C112.815 54.048 115.185 52.099 110.148 52.9985C102.148 54.3478 89.1111 62.5937 89.1111 79.8351C89.1111 86.1319 91.4815 90.6297 91.4815 96.6267C91.4815 107.571 83.9259 108.021 82.2963 108.021C74.5926 108.021 66.2963 99.3253 71.037 86.1319C71.037 86.1319 69.4074 87.0315 66.5926 88.2309C63.3333 89.7301 62.1481 89.1304 59.6296 89.8801C57.1111 90.7796 54.8889 91.8291 54.4444 93.0285C55.3333 93.0285 56.2222 93.1784 57.1111 93.4783C58.5926 94.2279 60.6666 96.4768 61.4074 98.2759C64.074 104.573 64.0741 113.568 66 119.865C68.6666 128.561 74.1481 136.957 91.3333 136.957C112.519 136.957 119.63 120.465 140.222 120.465C144.519 120.765 145.704 121.514 145.704 121.514Z" fill="white"/>
</svg>
