<svg width="200" height="200" viewBox="0 0 200 200" fill="none" xmlns="http://www.w3.org/2000/svg">
<path d="M45.4883 76.25H55.918V135.332H45.4883V76.25Z" fill="white"/>
<path d="M60.625 80.1562C63.6328 80.1562 66.0742 77.8711 66.0742 75.0781V68.8281H58.2617V72.3438H43.1445V68.8281H35.332V75.0781C35.332 77.8711 37.7734 80.1562 40.7813 80.1562H41.582V131.426H40.7813C37.7734 131.426 35.332 133.711 35.332 136.504V142.754H43.1445V139.238H58.2617V142.754H66.0742V136.504C66.0742 133.711 63.6328 131.426 60.625 131.426H59.8242V80.1562H60.625ZM49.3945 131.426V80.1562H52.0117V131.426H49.3945Z" fill="#55389C"/>
<path d="M96.3477 68.8281V75.0781C96.3477 75.7227 95.6445 76.25 94.8047 76.25H74.9609C74.1016 76.25 73.418 75.7227 73.418 75.0781V68.8281" fill="white"/>
<path d="M94.8047 80.1562C97.8125 80.1562 100.254 77.8711 100.254 75.0781V68.8281H92.4414V72.3438H77.3242V68.8281H69.5117V75.0781C69.5117 77.8711 71.9531 80.1562 74.9609 80.1562H75.7617V131.426H74.9609C71.9531 131.426 69.5117 133.711 69.5117 136.504V142.754H77.3242V139.238H92.4414V142.754H100.254V136.504C100.254 133.691 97.8125 131.426 94.8047 131.426H94.0039V80.1562H94.8047ZM86.1914 131.426H83.5742V80.1562H86.1914V131.426Z" fill="#55389C"/>
<path d="M130.508 68.8281V75.0781C130.508 75.7227 129.805 76.25 128.965 76.25H109.121C108.262 76.25 107.578 75.7227 107.578 75.0781V68.8281M130.508 142.754V136.504C130.508 135.859 129.805 135.332 128.965 135.332H109.121C108.262 135.332 107.578 135.859 107.578 136.504V142.754M113.828 76.25H124.258V135.332H113.828V76.25Z" fill="white"/>
<path d="M128.965 80.1562C131.973 80.1562 134.414 77.8711 134.414 75.0781V68.8281H126.602V72.3438H111.484V68.8281H103.672V75.0781C103.672 77.8711 106.113 80.1562 109.121 80.1562H109.922V131.426H109.121C106.113 131.426 103.672 133.711 103.672 136.504V142.754H111.484V139.238H126.602V142.754H134.414V136.504C134.414 133.711 131.973 131.426 128.965 131.426H128.164V80.1562H128.965ZM117.734 131.426V80.1562H120.352V131.426H117.734Z" fill="#55389C"/>
<path d="M164.688 68.8281V75.0781C164.688 75.7227 163.984 76.25 163.145 76.25H143.301C142.441 76.25 141.758 75.7227 141.758 75.0781V68.8281M164.688 142.754V136.504C164.688 135.859 163.984 135.332 163.145 135.332H143.301C142.441 135.332 141.758 135.859 141.758 136.504V142.754M148.008 76.25H158.438V135.332H148.008V76.25Z" fill="white"/>
<path d="M163.145 80.1562C166.152 80.1562 168.594 77.8711 168.594 75.0781V68.8281H160.781V72.3438H145.664V68.8281H137.852V75.0781C137.852 77.8711 140.293 80.1562 143.301 80.1562H144.102V131.426H143.301C140.293 131.426 137.852 133.711 137.852 136.504V142.754H145.664V139.238H160.781V142.754H168.594V136.504C168.594 133.711 166.152 131.426 163.145 131.426H162.344V80.1562H163.145ZM154.531 131.426H151.914V80.1562H154.531V131.426Z" fill="#55389C"/>
<path d="M32.4219 150.195H171.484V153.34H32.4219V150.195Z" fill="#7CD0E8"/>
<path d="M173.789 142.383H30.1172C27.0898 142.383 24.6094 144.844 24.6094 147.891V155.645C24.6094 158.672 27.0703 161.152 30.1172 161.152H173.789C176.816 161.152 179.297 158.691 179.297 155.645V147.891C179.297 144.844 176.836 142.383 173.789 142.383ZM171.484 153.34H32.4219V150.195H171.484V153.34Z" fill="#55389C"/>
<path d="M155.625 180.664H48.3008C46.1523 180.664 44.3945 178.906 44.3945 176.758C44.3945 174.609 46.1523 172.852 48.3008 172.852H155.625C157.773 172.852 159.531 174.609 159.531 176.758C159.531 178.906 157.773 180.664 155.625 180.664Z" fill="#55389C"/>
<path d="M47.9297 57.1875L101.953 29.5898L155.996 57.1875H47.9297Z" fill="#7CD0E8"/>
<path d="M177.285 58.3398L176.777 56.9727C176.074 55.1172 174.648 53.5547 172.754 52.5977L106.465 18.7305C103.691 17.3047 100.254 17.3047 97.4805 18.7305L31.1719 52.5977C29.2773 53.5742 27.8516 55.1172 27.1484 56.9727L26.6406 58.3398C25.7812 60.625 26.0937 63.0859 27.5 65.1172C29.1406 67.4805 32.0117 68.9062 35.1562 68.9062H168.77C171.914 68.9062 174.785 67.4805 176.426 65.1172C177.832 63.0859 178.145 60.625 177.285 58.3398ZM168.77 61.0937H35.1562C34.5898 61.0937 34.2383 60.918 34.0625 60.8008L34.4531 59.7461C34.4726 59.707 34.5703 59.6289 34.7266 59.5508L101.016 25.6836C101.562 25.4102 102.363 25.4102 102.91 25.6836L169.199 59.5508C169.355 59.6289 169.453 59.707 169.473 59.7461L169.863 60.8008C169.687 60.918 169.336 61.0937 168.77 61.0937Z" fill="#55389C"/>
</svg>
